<svg width="1709" height="600" viewBox="0 0 1709 600" fill="none" xmlns="http://www.w3.org/2000/svg">
<g clip-path="url(#clip0)">
<path d="M296.535 485.267C296.966 486.969 296.898 488.858 296.139 490.633C295.076 493.147 292.923 494.871 290.462 495.494C288.758 495.925 286.923 495.843 285.183 495.104C282.771 494.104 280.4 493.034 278.055 491.958C233.906 471.821 198.937 440.987 176.554 402.362C174.249 398.37 175.601 393.251 179.62 390.938C183.579 388.612 188.732 389.985 191.038 393.977C209.087 425.151 236.201 450.866 270.167 469.321L270.439 469.482C274.409 471.642 278.503 473.714 282.683 475.678C285.623 477.063 288.639 478.401 291.667 479.678C294.174 480.712 295.892 482.838 296.535 485.267Z" fill="#07004D"/>
<path d="M676.361 220.721C676.573 221.559 676.779 222.371 676.964 223.216C690.87 281.34 677.373 342.743 638.854 396.467C600.105 450.536 540.878 489.873 472.128 507.274C444.567 514.249 416.536 517.43 388.676 516.739C387.148 516.723 385.613 516.681 384.068 516.611C381.308 516.504 378.928 515.062 377.502 512.949C376.51 511.53 375.95 509.773 376.025 507.912C376.089 506.571 376.464 505.325 377.078 504.221C377.421 503.76 377.757 503.272 378.068 502.79C379.666 500.918 382.085 499.787 384.731 499.895C389.732 500.098 394.726 500.157 399.711 500.074C422.548 499.791 445.464 496.755 468.02 491.045C602.492 457.011 688.672 337.582 660.134 224.828C658.998 220.338 657.713 215.944 656.218 211.633C654.41 206.191 652.344 200.87 650.001 195.709C607.794 101.379 486.915 51.0774 364.506 82.0593C282.098 102.917 214.624 156.744 184.004 225.994C182.143 230.235 177.189 232.151 172.974 230.281C168.726 228.392 166.817 223.466 168.679 219.224C201.397 145.3 273.04 87.9415 360.398 65.831C429.149 48.4301 499.965 54.8837 559.763 83.9796C620.058 113.327 661.473 161.896 676.361 220.721Z" fill="#07004D"/>
<path d="M669.992 200.894C670.741 205.453 667.656 209.745 663.07 210.503C660.749 210.888 658.485 211.26 656.219 211.631C483.183 240.434 478.864 257.931 459.051 338.259C452.871 363.42 445.247 394.244 431.075 432.855C429.813 436.281 428.504 439.749 427.128 443.293C418.928 464.563 409.794 483.508 399.712 500.074C396.164 505.951 392.471 511.492 388.677 516.739C384.519 522.597 380.178 528.071 375.68 533.151C359.259 551.955 340.948 565.8 320.836 574.573C313.951 577.611 307.21 579.863 300.747 581.499C263.748 590.863 235.684 580.038 234.31 579.495L222.921 574.981L231.271 566.018C257.234 538.179 270.929 512.583 278.055 491.957C279.933 486.532 281.355 481.453 282.436 476.748C282.517 476.383 282.603 476.044 282.684 475.679C283.051 473.944 283.378 472.279 283.684 470.648C286.784 452.998 284.812 442.361 284.778 442.11C283.864 437.593 286.714 433.159 291.26 432.24C295.769 431.299 300.174 434.157 301.135 438.632C301.362 439.755 303.759 451.725 300.743 471.078C300.026 475.634 299.011 480.61 297.592 485.919C291.757 507.888 279.159 535.998 252.819 567.01C266.177 569.299 289.083 570.322 314.498 559.084C331.373 551.618 346.969 540.015 361.133 524.343C364.896 520.225 368.531 515.823 372.09 511.124C373.768 508.887 375.433 506.595 377.078 504.221C377.421 503.76 377.758 503.272 378.068 502.791C389.38 486.315 399.629 466.771 408.732 444.293C409.671 441.984 410.578 439.653 411.506 437.289C427.893 394.693 436.157 361.177 442.811 334.253C453.351 291.526 460.306 263.29 489.786 242.302C516.196 223.503 558.631 211.064 650.002 195.709C653.396 195.137 656.846 194.551 660.382 193.973C664.947 193.25 669.24 196.336 669.992 200.894Z" fill="#07004D"/>
<g opacity="0.25">
<g opacity="0.25">
<path opacity="0.25" d="M283.684 470.648C289.396 471.044 295.073 471.19 300.742 471.078C300.026 475.634 299.012 480.61 297.592 485.919L296.535 485.267L282.436 476.748L270.439 469.482C274.409 471.643 278.502 473.714 282.684 475.679C283.051 473.944 283.378 472.279 283.684 470.648Z" fill="#0071BC"/>
</g>
</g>
<g opacity="0.25">
<g opacity="0.25">
<path opacity="0.25" d="M676.964 223.216C690.87 281.34 677.374 342.743 638.853 396.467C600.104 450.536 540.878 489.873 472.128 507.273C444.568 514.249 416.537 517.429 388.677 516.739L377.501 512.949L372.091 511.125C373.768 508.886 375.432 506.594 377.078 504.221C377.421 503.761 377.758 503.273 378.068 502.791C389.38 486.315 399.629 466.771 408.732 444.293C416.292 440.74 423.731 436.929 431.076 432.854C561.097 360.662 656.219 211.632 656.219 211.632L676.964 223.216Z" fill="#7150FF"/>
<path opacity="0.25" d="M676.964 223.216C690.87 281.34 677.374 342.743 638.853 396.467C600.104 450.536 540.878 489.873 472.128 507.273C444.568 514.249 416.537 517.429 388.677 516.739L377.501 512.949L372.091 511.125C373.768 508.886 375.432 506.594 377.078 504.221C377.421 503.761 377.758 503.273 378.068 502.791C389.38 486.315 399.629 466.771 408.732 444.293C416.292 440.74 423.731 436.929 431.076 432.854C561.097 360.662 656.219 211.632 656.219 211.632L676.964 223.216Z" fill="#7150FF"/>
<path opacity="0.25" d="M676.964 223.216C690.87 281.34 677.374 342.743 638.853 396.467C600.104 450.536 540.878 489.873 472.128 507.273C444.568 514.249 416.537 517.429 388.677 516.739L377.501 512.949L372.091 511.125C373.768 508.886 375.432 506.594 377.078 504.221C377.421 503.761 377.758 503.273 378.068 502.791C389.38 486.315 399.629 466.771 408.732 444.293C416.292 440.74 423.731 436.929 431.076 432.854C561.097 360.662 656.219 211.632 656.219 211.632L676.964 223.216Z" fill="#7150FF"/>
<path opacity="0.25" d="M676.964 223.216C690.87 281.34 677.374 342.743 638.853 396.467C600.104 450.536 540.878 489.873 472.128 507.273C444.568 514.249 416.537 517.429 388.677 516.739L377.501 512.949L372.091 511.125C373.768 508.886 375.432 506.594 377.078 504.221C377.421 503.761 377.758 503.273 378.068 502.791C389.38 486.315 399.629 466.771 408.732 444.293C416.292 440.74 423.731 436.929 431.076 432.854C561.097 360.662 656.219 211.632 656.219 211.632L676.964 223.216Z" fill="#7150FF"/>
<path opacity="0.25" d="M676.964 223.216C690.87 281.34 677.374 342.743 638.853 396.467C600.104 450.536 540.878 489.873 472.128 507.273C444.568 514.249 416.537 517.429 388.677 516.739L377.501 512.949L372.091 511.125C373.768 508.886 375.432 506.594 377.078 504.221C377.421 503.761 377.758 503.273 378.068 502.791C389.38 486.315 399.629 466.771 408.732 444.293C416.292 440.74 423.731 436.929 431.076 432.854C561.097 360.662 656.219 211.632 656.219 211.632L676.964 223.216Z" fill="#7150FF"/>
<path opacity="0.25" d="M676.964 223.216C690.87 281.34 677.374 342.743 638.853 396.467C600.104 450.536 540.878 489.873 472.128 507.273C444.568 514.249 416.537 517.429 388.677 516.739L377.501 512.949L372.091 511.125C373.768 508.886 375.432 506.594 377.078 504.221C377.421 503.761 377.758 503.273 378.068 502.791C389.38 486.315 399.629 466.771 408.732 444.293C416.292 440.74 423.731 436.929 431.076 432.854C561.097 360.662 656.219 211.632 656.219 211.632L676.964 223.216Z" fill="#7150FF"/>
<path opacity="0.25" d="M676.964 223.216C690.87 281.34 677.374 342.743 638.853 396.467C600.104 450.536 540.878 489.873 472.128 507.273C444.568 514.249 416.537 517.429 388.677 516.739L377.501 512.949L372.091 511.125C373.768 508.886 375.432 506.594 377.078 504.221C377.421 503.761 377.758 503.273 378.068 502.791C389.38 486.315 399.629 466.771 408.732 444.293C416.292 440.74 423.731 436.929 431.076 432.854C561.097 360.662 656.219 211.632 656.219 211.632L676.964 223.216Z" fill="#7150FF"/>
<path opacity="0.25" d="M676.964 223.216C690.87 281.34 677.374 342.743 638.853 396.467C600.104 450.536 540.878 489.873 472.128 507.273C444.568 514.249 416.537 517.429 388.677 516.739L377.501 512.949L372.091 511.125C373.768 508.886 375.432 506.594 377.078 504.221C377.421 503.761 377.758 503.273 378.068 502.791C389.38 486.315 399.629 466.771 408.732 444.293C416.292 440.74 423.731 436.929 431.076 432.854C561.097 360.662 656.219 211.632 656.219 211.632L676.964 223.216Z" fill="#7150FF"/>
<path opacity="0.25" d="M676.964 223.216C690.87 281.34 677.374 342.743 638.853 396.467C600.104 450.536 540.878 489.873 472.128 507.273C444.568 514.249 416.537 517.429 388.677 516.739L377.501 512.949L372.091 511.125C373.768 508.886 375.432 506.594 377.078 504.221C377.421 503.761 377.758 503.273 378.068 502.791C389.38 486.315 399.629 466.771 408.732 444.293C416.292 440.74 423.731 436.929 431.076 432.854C561.097 360.662 656.219 211.632 656.219 211.632L676.964 223.216Z" fill="#7150FF"/>
<path opacity="0.25" d="M676.964 223.216C690.87 281.34 677.374 342.743 638.853 396.467C600.104 450.536 540.878 489.873 472.128 507.273C444.568 514.249 416.537 517.429 388.677 516.739L377.501 512.949L372.091 511.125C373.768 508.886 375.432 506.594 377.078 504.221C377.421 503.761 377.758 503.273 378.068 502.791C389.38 486.315 399.629 466.771 408.732 444.293C416.292 440.74 423.731 436.929 431.076 432.854C561.097 360.662 656.219 211.632 656.219 211.632L676.964 223.216Z" fill="#7150FF"/>
<path opacity="0.25" d="M676.964 223.216C690.87 281.34 677.374 342.743 638.853 396.467C600.104 450.536 540.878 489.873 472.128 507.273C444.568 514.249 416.537 517.429 388.677 516.739L377.501 512.949L372.091 511.125C373.768 508.886 375.432 506.594 377.078 504.221C377.421 503.761 377.758 503.273 378.068 502.791C389.38 486.315 399.629 466.771 408.732 444.293C416.292 440.74 423.731 436.929 431.076 432.854C561.097 360.662 656.219 211.632 656.219 211.632L676.964 223.216Z" fill="#7150FF"/>
<path opacity="0.25" d="M676.964 223.216C690.87 281.34 677.374 342.743 638.853 396.467C600.104 450.536 540.878 489.873 472.128 507.273C444.568 514.249 416.537 517.429 388.677 516.739L377.501 512.949L372.091 511.125C373.768 508.886 375.432 506.594 377.078 504.221C377.421 503.761 377.758 503.273 378.068 502.791C389.38 486.315 399.629 466.771 408.732 444.293C416.292 440.74 423.731 436.929 431.076 432.854C561.097 360.662 656.219 211.632 656.219 211.632L676.964 223.216Z" fill="#7150FF"/>
<path opacity="0.25" d="M676.964 223.216C690.87 281.34 677.374 342.743 638.853 396.467C600.104 450.536 540.878 489.873 472.128 507.273C444.568 514.249 416.537 517.429 388.677 516.739L377.501 512.949L372.091 511.125C373.768 508.886 375.432 506.594 377.078 504.221C377.421 503.761 377.758 503.273 378.068 502.791C389.38 486.315 399.629 466.771 408.732 444.293C416.292 440.74 423.731 436.929 431.076 432.854C561.097 360.662 656.219 211.632 656.219 211.632L676.964 223.216Z" fill="#7150FF"/>
</g>
</g>
<g opacity="0.25">
<g opacity="0.25">
<path opacity="0.25" d="M676.964 223.216C690.87 281.34 677.374 342.743 638.853 396.467C600.104 450.536 540.878 489.873 472.128 507.273C444.568 514.249 416.537 517.429 388.677 516.739L377.501 512.949L372.091 511.125C373.768 508.886 375.432 506.594 377.078 504.221C377.421 503.761 377.758 503.273 378.068 502.791C389.38 486.315 399.629 466.771 408.732 444.293C416.292 440.74 423.731 436.929 431.076 432.854C561.097 360.662 656.219 211.632 656.219 211.632L676.964 223.216Z" fill="#7150FF"/>
<path opacity="0.25" d="M676.964 223.216C690.87 281.34 677.374 342.743 638.853 396.467C600.104 450.536 540.878 489.873 472.128 507.273C444.568 514.249 416.537 517.429 388.677 516.739L377.501 512.949L372.091 511.125C373.768 508.886 375.432 506.594 377.078 504.221C377.421 503.761 377.758 503.273 378.068 502.791C389.38 486.315 399.629 466.771 408.732 444.293C416.292 440.74 423.731 436.929 431.076 432.854C561.097 360.662 656.219 211.632 656.219 211.632L676.964 223.216Z" fill="#7150FF"/>
<path opacity="0.25" d="M676.964 223.216C690.87 281.34 677.374 342.743 638.853 396.467C600.104 450.536 540.878 489.873 472.128 507.273C444.568 514.249 416.537 517.429 388.677 516.739L377.501 512.949L372.091 511.125C373.768 508.886 375.432 506.594 377.078 504.221C377.421 503.761 377.758 503.273 378.068 502.791C389.38 486.315 399.629 466.771 408.732 444.293C416.292 440.74 423.731 436.929 431.076 432.854C561.097 360.662 656.219 211.632 656.219 211.632L676.964 223.216Z" fill="#7150FF"/>
<path opacity="0.25" d="M676.964 223.216C690.87 281.34 677.374 342.743 638.853 396.467C600.104 450.536 540.878 489.873 472.128 507.273C444.568 514.249 416.537 517.429 388.677 516.739L377.501 512.949L372.091 511.125C373.768 508.886 375.432 506.594 377.078 504.221C377.421 503.761 377.758 503.273 378.068 502.791C389.38 486.315 399.629 466.771 408.732 444.293C416.292 440.74 423.731 436.929 431.076 432.854C561.097 360.662 656.219 211.632 656.219 211.632L676.964 223.216Z" fill="#7150FF"/>
<path opacity="0.25" d="M676.964 223.216C690.87 281.34 677.374 342.743 638.853 396.467C600.104 450.536 540.878 489.873 472.128 507.273C444.568 514.249 416.537 517.429 388.677 516.739L377.501 512.949L372.091 511.125C373.768 508.886 375.432 506.594 377.078 504.221C377.421 503.761 377.758 503.273 378.068 502.791C389.38 486.315 399.629 466.771 408.732 444.293C416.292 440.74 423.731 436.929 431.076 432.854C561.097 360.662 656.219 211.632 656.219 211.632L676.964 223.216Z" fill="#7150FF"/>
<path opacity="0.25" d="M676.964 223.216C690.87 281.34 677.374 342.743 638.853 396.467C600.104 450.536 540.878 489.873 472.128 507.273C444.568 514.249 416.537 517.429 388.677 516.739L377.501 512.949L372.091 511.125C373.768 508.886 375.432 506.594 377.078 504.221C377.421 503.761 377.758 503.273 378.068 502.791C389.38 486.315 399.629 466.771 408.732 444.293C416.292 440.74 423.731 436.929 431.076 432.854C561.097 360.662 656.219 211.632 656.219 211.632L676.964 223.216Z" fill="#7150FF"/>
<path opacity="0.25" d="M676.964 223.216C690.87 281.34 677.374 342.743 638.853 396.467C600.104 450.536 540.878 489.873 472.128 507.273C444.568 514.249 416.537 517.429 388.677 516.739L377.501 512.949L372.091 511.125C373.768 508.886 375.432 506.594 377.078 504.221C377.421 503.761 377.758 503.273 378.068 502.791C389.38 486.315 399.629 466.771 408.732 444.293C416.292 440.74 423.731 436.929 431.076 432.854C561.097 360.662 656.219 211.632 656.219 211.632L676.964 223.216Z" fill="#7150FF"/>
<path opacity="0.25" d="M676.964 223.216C690.87 281.34 677.374 342.743 638.853 396.467C600.104 450.536 540.878 489.873 472.128 507.273C444.568 514.249 416.537 517.429 388.677 516.739L377.501 512.949L372.091 511.125C373.768 508.886 375.432 506.594 377.078 504.221C377.421 503.761 377.758 503.273 378.068 502.791C389.38 486.315 399.629 466.771 408.732 444.293C416.292 440.74 423.731 436.929 431.076 432.854C561.097 360.662 656.219 211.632 656.219 211.632L676.964 223.216Z" fill="#7150FF"/>
<path opacity="0.25" d="M676.964 223.216C690.87 281.34 677.374 342.743 638.853 396.467C600.104 450.536 540.878 489.873 472.128 507.273C444.568 514.249 416.537 517.429 388.677 516.739L377.501 512.949L372.091 511.125C373.768 508.886 375.432 506.594 377.078 504.221C377.421 503.761 377.758 503.273 378.068 502.791C389.38 486.315 399.629 466.771 408.732 444.293C416.292 440.74 423.731 436.929 431.076 432.854C561.097 360.662 656.219 211.632 656.219 211.632L676.964 223.216Z" fill="#7150FF"/>
<path opacity="0.25" d="M676.964 223.216C690.87 281.34 677.374 342.743 638.853 396.467C600.104 450.536 540.878 489.873 472.128 507.273C444.568 514.249 416.537 517.429 388.677 516.739L377.501 512.949L372.091 511.125C373.768 508.886 375.432 506.594 377.078 504.221C377.421 503.761 377.758 503.273 378.068 502.791C389.38 486.315 399.629 466.771 408.732 444.293C416.292 440.74 423.731 436.929 431.076 432.854C561.097 360.662 656.219 211.632 656.219 211.632L676.964 223.216Z" fill="#7150FF"/>
<path opacity="0.25" d="M676.964 223.216C690.87 281.34 677.374 342.743 638.853 396.467C600.104 450.536 540.878 489.873 472.128 507.273C444.568 514.249 416.537 517.429 388.677 516.739L377.501 512.949L372.091 511.125C373.768 508.886 375.432 506.594 377.078 504.221C377.421 503.761 377.758 503.273 378.068 502.791C389.38 486.315 399.629 466.771 408.732 444.293C416.292 440.74 423.731 436.929 431.076 432.854C561.097 360.662 656.219 211.632 656.219 211.632L676.964 223.216Z" fill="#7150FF"/>
<path opacity="0.25" d="M676.964 223.216C690.87 281.34 677.374 342.743 638.853 396.467C600.104 450.536 540.878 489.873 472.128 507.273C444.568 514.249 416.537 517.429 388.677 516.739L377.501 512.949L372.091 511.125C373.768 508.886 375.432 506.594 377.078 504.221C377.421 503.761 377.758 503.273 378.068 502.791C389.38 486.315 399.629 466.771 408.732 444.293C416.292 440.74 423.731 436.929 431.076 432.854C561.097 360.662 656.219 211.632 656.219 211.632L676.964 223.216Z" fill="#7150FF"/>
<path opacity="0.25" d="M676.964 223.216C690.87 281.34 677.374 342.743 638.853 396.467C600.104 450.536 540.878 489.873 472.128 507.273C444.568 514.249 416.537 517.429 388.677 516.739L377.501 512.949L372.091 511.125C373.768 508.886 375.432 506.594 377.078 504.221C377.421 503.761 377.758 503.273 378.068 502.791C389.38 486.315 399.629 466.771 408.732 444.293C416.292 440.74 423.731 436.929 431.076 432.854C561.097 360.662 656.219 211.632 656.219 211.632L676.964 223.216Z" fill="#7150FF"/>
</g>
</g>
<path d="M392.124 266.264C395.555 279.818 387.327 293.624 373.771 297.055C360.218 300.485 346.413 292.256 342.982 278.702C339.552 265.148 347.78 251.342 361.333 247.912C363.341 247.404 365.368 247.153 367.326 247.135C362.069 250.473 359.261 256.935 360.867 263.281C362.868 271.185 370.923 275.986 378.827 273.986C385.173 272.38 389.523 266.835 389.956 260.625C390.874 262.354 391.616 264.257 392.124 266.264Z" fill="#07004D"/>
<path d="M15 156.488C35.1486 200.614 91.7568 290.99 157 299.488" stroke="#4B27A5" stroke-width="30" stroke-linejoin="round"/>
<path d="M14 442.488C34.1486 398.671 90.7568 308.927 156 300.488" stroke="#4B27A5" stroke-width="30" stroke-linejoin="round"/>
</g>
<path d="M1045.23 253.575L988.525 434H949.5C947.517 434 945.708 433.358 944.075 432.075C942.558 430.792 941.392 428.633 940.575 425.6L911.175 327.95C910.008 324.217 908.958 320.542 908.025 316.925C907.208 313.192 906.45 309.458 905.75 305.725C904.933 309.458 904.058 313.25 903.125 317.1C902.308 320.833 901.317 324.567 900.15 328.3L870.4 425.6C868.767 431.2 865.267 434 859.9 434H822.8L766.1 253.575H804.6C808.1 253.575 811.017 254.392 813.35 256.025C815.8 257.658 817.433 259.758 818.25 262.325L840.475 351.575C841.875 357.292 843.1 362.833 844.15 368.2C845.2 373.567 846.192 378.875 847.125 384.125C848.525 378.875 849.983 373.567 851.5 368.2C853.133 362.833 854.825 357.292 856.575 351.575L883 261.975C883.817 259.525 885.392 257.483 887.725 255.85C890.058 254.217 892.8 253.4 895.95 253.4H917.3C920.683 253.4 923.542 254.217 925.875 255.85C928.325 257.483 929.958 259.525 930.775 261.975L956.325 351.575C957.958 357.175 959.533 362.717 961.05 368.2C962.567 373.567 963.967 378.992 965.25 384.475C966.183 379.108 967.175 373.742 968.225 368.375C969.392 362.892 970.733 357.292 972.25 351.575L995.525 262.325C996.342 259.758 997.917 257.658 1000.25 256.025C1002.58 254.392 1005.33 253.575 1008.48 253.575H1045.23ZM1115.6 271.25C1118.98 268.217 1122.48 265.475 1126.1 263.025C1129.83 260.458 1133.74 258.3 1137.82 256.55C1142.02 254.683 1146.46 253.283 1151.12 252.35C1155.91 251.3 1161.04 250.775 1166.52 250.775C1176.32 250.775 1185.02 252.467 1192.6 255.85C1200.18 259.233 1206.54 263.958 1211.67 270.025C1216.92 276.092 1220.83 283.325 1223.4 291.725C1226.08 300.125 1227.42 309.342 1227.42 319.375V434H1179.3V319.375C1179.3 309.342 1176.97 301.583 1172.3 296.1C1167.63 290.5 1160.75 287.7 1151.65 287.7C1144.88 287.7 1138.52 289.158 1132.57 292.075C1126.62 294.992 1120.97 299.075 1115.6 304.325V434H1067.3V173.075H1115.6V271.25ZM1360.21 358.575C1348.43 359.158 1338.63 360.208 1330.81 361.725C1322.99 363.125 1316.75 364.992 1312.08 367.325C1307.53 369.658 1304.27 372.342 1302.28 375.375C1300.42 378.292 1299.48 381.5 1299.48 385C1299.48 392 1301.41 396.958 1305.26 399.875C1309.23 402.792 1314.71 404.25 1321.71 404.25C1329.76 404.25 1336.7 402.85 1342.53 400.05C1348.48 397.133 1354.38 392.642 1360.21 386.575V358.575ZM1261.86 278.6C1272.48 269.033 1284.2 261.917 1297.03 257.25C1309.87 252.467 1323.75 250.075 1338.68 250.075C1349.42 250.075 1358.98 251.825 1367.38 255.325C1375.9 258.825 1383.08 263.725 1388.91 270.025C1394.86 276.208 1399.41 283.617 1402.56 292.25C1405.71 300.883 1407.28 310.333 1407.28 320.6V434H1385.23C1380.68 434 1377.18 433.358 1374.73 432.075C1372.4 430.792 1370.48 428.108 1368.96 424.025L1365.11 412.475C1360.56 416.442 1356.13 419.942 1351.81 422.975C1347.61 426.008 1343.23 428.575 1338.68 430.675C1334.13 432.658 1329.23 434.175 1323.98 435.225C1318.85 436.275 1313.08 436.8 1306.66 436.8C1298.73 436.8 1291.49 435.75 1284.96 433.65C1278.43 431.55 1272.77 428.458 1267.98 424.375C1263.32 420.175 1259.7 414.983 1257.13 408.8C1254.57 402.617 1253.28 395.5 1253.28 387.45C1253.28 380.8 1254.98 374.15 1258.36 367.5C1261.74 360.85 1267.52 354.842 1275.68 349.475C1283.97 343.992 1294.93 339.5 1308.58 336C1322.35 332.383 1339.56 330.342 1360.21 329.875V320.6C1360.21 309.283 1357.82 301 1353.03 295.75C1348.25 290.383 1341.37 287.7 1332.38 287.7C1325.73 287.7 1320.19 288.517 1315.76 290.15C1311.33 291.667 1307.42 293.358 1304.03 295.225C1300.77 296.975 1297.68 298.667 1294.76 300.3C1291.84 301.817 1288.46 302.575 1284.61 302.575C1281.23 302.575 1278.37 301.758 1276.03 300.125C1273.82 298.375 1271.95 296.333 1270.43 294L1261.86 278.6ZM1493.64 173.075V434H1445.34V173.075H1493.64ZM1648.3 322.525C1648.3 317.508 1647.6 312.725 1646.2 308.175C1644.92 303.625 1642.82 299.6 1639.9 296.1C1636.99 292.6 1633.31 289.858 1628.88 287.875C1624.44 285.775 1619.14 284.725 1612.95 284.725C1601.4 284.725 1592.36 287.992 1585.83 294.525C1579.29 301.058 1575.04 310.392 1573.05 322.525H1648.3ZM1572.35 351.225C1573.87 368.142 1578.65 380.508 1586.7 388.325C1594.87 396.142 1605.49 400.05 1618.55 400.05C1625.2 400.05 1630.92 399.292 1635.7 397.775C1640.6 396.142 1644.86 394.392 1648.48 392.525C1652.21 390.542 1655.54 388.792 1658.45 387.275C1661.49 385.642 1664.46 384.825 1667.38 384.825C1671.11 384.825 1674.03 386.225 1676.13 389.025L1690.13 406.525C1684.99 412.475 1679.34 417.433 1673.15 421.4C1666.97 425.25 1660.55 428.342 1653.9 430.675C1647.25 432.892 1640.54 434.408 1633.78 435.225C1627.01 436.158 1620.48 436.625 1614.18 436.625C1601.58 436.625 1589.79 434.583 1578.83 430.5C1567.98 426.3 1558.47 420.175 1550.3 412.125C1542.25 403.958 1535.89 393.867 1531.23 381.85C1526.56 369.833 1524.23 355.892 1524.23 340.025C1524.23 327.775 1526.21 316.225 1530.18 305.375C1534.26 294.525 1540.09 285.075 1547.68 277.025C1555.26 268.975 1564.48 262.617 1575.33 257.95C1586.18 253.167 1598.43 250.775 1612.08 250.775C1623.63 250.775 1634.24 252.642 1643.93 256.375C1653.73 259.992 1662.13 265.3 1669.13 272.3C1676.24 279.3 1681.73 287.933 1685.58 298.2C1689.54 308.35 1691.53 319.958 1691.53 333.025C1691.53 336.642 1691.35 339.617 1691 341.95C1690.65 344.283 1690.07 346.15 1689.25 347.55C1688.44 348.95 1687.33 349.942 1685.93 350.525C1684.53 350.992 1682.72 351.225 1680.5 351.225H1572.35Z" fill="#07004D"/>
<path d="M1045.23 253.575L988.525 434H949.5C947.517 434 945.708 433.358 944.075 432.075C942.558 430.792 941.392 428.633 940.575 425.6L911.175 327.95C910.008 324.217 908.958 320.542 908.025 316.925C907.208 313.192 906.45 309.458 905.75 305.725C904.933 309.458 904.058 313.25 903.125 317.1C902.308 320.833 901.317 324.567 900.15 328.3L870.4 425.6C868.767 431.2 865.267 434 859.9 434H822.8L766.1 253.575H804.6C808.1 253.575 811.017 254.392 813.35 256.025C815.8 257.658 817.433 259.758 818.25 262.325L840.475 351.575C841.875 357.292 843.1 362.833 844.15 368.2C845.2 373.567 846.192 378.875 847.125 384.125C848.525 378.875 849.983 373.567 851.5 368.2C853.133 362.833 854.825 357.292 856.575 351.575L883 261.975C883.817 259.525 885.392 257.483 887.725 255.85C890.058 254.217 892.8 253.4 895.95 253.4H917.3C920.683 253.4 923.542 254.217 925.875 255.85C928.325 257.483 929.958 259.525 930.775 261.975L956.325 351.575C957.958 357.175 959.533 362.717 961.05 368.2C962.567 373.567 963.967 378.992 965.25 384.475C966.183 379.108 967.175 373.742 968.225 368.375C969.392 362.892 970.733 357.292 972.25 351.575L995.525 262.325C996.342 259.758 997.917 257.658 1000.25 256.025C1002.58 254.392 1005.33 253.575 1008.48 253.575H1045.23ZM1115.6 271.25C1118.98 268.217 1122.48 265.475 1126.1 263.025C1129.83 260.458 1133.74 258.3 1137.82 256.55C1142.02 254.683 1146.46 253.283 1151.12 252.35C1155.91 251.3 1161.04 250.775 1166.52 250.775C1176.32 250.775 1185.02 252.467 1192.6 255.85C1200.18 259.233 1206.54 263.958 1211.67 270.025C1216.92 276.092 1220.83 283.325 1223.4 291.725C1226.08 300.125 1227.42 309.342 1227.42 319.375V434H1179.3V319.375C1179.3 309.342 1176.97 301.583 1172.3 296.1C1167.63 290.5 1160.75 287.7 1151.65 287.7C1144.88 287.7 1138.52 289.158 1132.57 292.075C1126.62 294.992 1120.97 299.075 1115.6 304.325V434H1067.3V173.075H1115.6V271.25ZM1360.21 358.575C1348.43 359.158 1338.63 360.208 1330.81 361.725C1322.99 363.125 1316.75 364.992 1312.08 367.325C1307.53 369.658 1304.27 372.342 1302.28 375.375C1300.42 378.292 1299.48 381.5 1299.48 385C1299.48 392 1301.41 396.958 1305.26 399.875C1309.23 402.792 1314.71 404.25 1321.71 404.25C1329.76 404.25 1336.7 402.85 1342.53 400.05C1348.48 397.133 1354.38 392.642 1360.21 386.575V358.575ZM1261.86 278.6C1272.48 269.033 1284.2 261.917 1297.03 257.25C1309.87 252.467 1323.75 250.075 1338.68 250.075C1349.42 250.075 1358.98 251.825 1367.38 255.325C1375.9 258.825 1383.08 263.725 1388.91 270.025C1394.86 276.208 1399.41 283.617 1402.56 292.25C1405.71 300.883 1407.28 310.333 1407.28 320.6V434H1385.23C1380.68 434 1377.18 433.358 1374.73 432.075C1372.4 430.792 1370.48 428.108 1368.96 424.025L1365.11 412.475C1360.56 416.442 1356.13 419.942 1351.81 422.975C1347.61 426.008 1343.23 428.575 1338.68 430.675C1334.13 432.658 1329.23 434.175 1323.98 435.225C1318.85 436.275 1313.08 436.8 1306.66 436.8C1298.73 436.8 1291.49 435.75 1284.96 433.65C1278.43 431.55 1272.77 428.458 1267.98 424.375C1263.32 420.175 1259.7 414.983 1257.13 408.8C1254.57 402.617 1253.28 395.5 1253.28 387.45C1253.28 380.8 1254.98 374.15 1258.36 367.5C1261.74 360.85 1267.52 354.842 1275.68 349.475C1283.97 343.992 1294.93 339.5 1308.58 336C1322.35 332.383 1339.56 330.342 1360.21 329.875V320.6C1360.21 309.283 1357.82 301 1353.03 295.75C1348.25 290.383 1341.37 287.7 1332.38 287.7C1325.73 287.7 1320.19 288.517 1315.76 290.15C1311.33 291.667 1307.42 293.358 1304.03 295.225C1300.77 296.975 1297.68 298.667 1294.76 300.3C1291.84 301.817 1288.46 302.575 1284.61 302.575C1281.23 302.575 1278.37 301.758 1276.03 300.125C1273.82 298.375 1271.95 296.333 1270.43 294L1261.86 278.6ZM1493.64 173.075V434H1445.34V173.075H1493.64ZM1648.3 322.525C1648.3 317.508 1647.6 312.725 1646.2 308.175C1644.92 303.625 1642.82 299.6 1639.9 296.1C1636.99 292.6 1633.31 289.858 1628.88 287.875C1624.44 285.775 1619.14 284.725 1612.95 284.725C1601.4 284.725 1592.36 287.992 1585.83 294.525C1579.29 301.058 1575.04 310.392 1573.05 322.525H1648.3ZM1572.35 351.225C1573.87 368.142 1578.65 380.508 1586.7 388.325C1594.87 396.142 1605.49 400.05 1618.55 400.05C1625.2 400.05 1630.92 399.292 1635.7 397.775C1640.6 396.142 1644.86 394.392 1648.48 392.525C1652.21 390.542 1655.54 388.792 1658.45 387.275C1661.49 385.642 1664.46 384.825 1667.38 384.825C1671.11 384.825 1674.03 386.225 1676.13 389.025L1690.13 406.525C1684.99 412.475 1679.34 417.433 1673.15 421.4C1666.97 425.25 1660.55 428.342 1653.9 430.675C1647.25 432.892 1640.54 434.408 1633.78 435.225C1627.01 436.158 1620.48 436.625 1614.18 436.625C1601.58 436.625 1589.79 434.583 1578.83 430.5C1567.98 426.3 1558.47 420.175 1550.3 412.125C1542.25 403.958 1535.89 393.867 1531.23 381.85C1526.56 369.833 1524.23 355.892 1524.23 340.025C1524.23 327.775 1526.21 316.225 1530.18 305.375C1534.26 294.525 1540.09 285.075 1547.68 277.025C1555.26 268.975 1564.48 262.617 1575.33 257.95C1586.18 253.167 1598.43 250.775 1612.08 250.775C1623.63 250.775 1634.24 252.642 1643.93 256.375C1653.73 259.992 1662.13 265.3 1669.13 272.3C1676.24 279.3 1681.73 287.933 1685.58 298.2C1689.54 308.35 1691.53 319.958 1691.53 333.025C1691.53 336.642 1691.35 339.617 1691 341.95C1690.65 344.283 1690.07 346.15 1689.25 347.55C1688.44 348.95 1687.33 349.942 1685.93 350.525C1684.53 350.992 1682.72 351.225 1680.5 351.225H1572.35Z" fill="url(#paint0_linear)"/>
<line x1="500" y1="488.5" x2="1709" y2="488.5" stroke="#07004D" stroke-opacity="0.5" stroke-width="15"/>
<line x1="500" y1="488.5" x2="1709" y2="488.5" stroke="url(#paint1_linear)" stroke-width="15"/>
<defs>
<linearGradient id="paint0_linear" x1="1116.17" y1="371.414" x2="20.923" y2="371.421" gradientUnits="userSpaceOnUse">
<stop stop-color="white" stop-opacity="0"/>
<stop offset="1" stop-color="#4B27A5"/>
</linearGradient>
<linearGradient id="paint1_linear" x1="949" y1="496" x2="1709" y2="496" gradientUnits="userSpaceOnUse">
<stop stop-color="white" stop-opacity="0"/>
<stop offset="1" stop-opacity="0.2"/>
</linearGradient>
<clipPath id="clip0">
<rect width="738.323" height="599.618" fill="white"/>
</clipPath>
</defs>
</svg>
