<svg width="704" height="175" viewBox="0 0 704 175" fill="none" xmlns="http://www.w3.org/2000/svg">
<path d="M47.75 80L66 156L85.5 68C87.5 58.6667 89.6667 52.5 92 49.5C94.5 46.3333 98.25 44.75 103.25 44.75C108.417 44.75 112.167 46.3333 114.5 49.5C117 52.6667 119.25 58.8333 121.25 68L140 156L158.5 80C159.667 75.1667 160.25 71 160.25 67.5V67C160.25 62.5 158.333 60.25 154.5 60.25C153 60.25 150.833 60.5833 148 61.25C145.167 61.75 143 62 141.5 62C135.333 62 132.25 59.25 132.25 53.75C132.25 47.9167 136.333 45 144.5 45C145.667 45 146.917 45.0833 148.25 45.25L158.5 46.5C161.167 46.8333 165.333 47 171 47C175.5 47 179.833 46.75 184 46.25L192.25 45.25C192.917 45.0833 193.833 45 195 45C202.167 45 205.75 47.8333 205.75 53.5C205.75 59 203 61.75 197.5 61.75C195.667 61.75 194.25 61.5833 193.25 61.25C190.583 60.9167 189.083 60.75 188.75 60.75C184.25 60.75 179.583 70 174.75 88.5L157.75 152.75C155.75 160.583 153.417 166.083 150.75 169.25C148.083 172.25 144.417 173.75 139.75 173.75C130.917 173.75 125 166.75 122 152.75L103.25 63.75L83.75 151.25C81.9167 159.583 79.5833 165.5 76.75 169C73.9167 172.333 70.0833 174 65.25 174C57.4167 174 52.1667 168.833 49.5 158.5L25.5 68.5C24 63.1667 21.6667 60.5 18.5 60.5C17.5 60.5 16 60.75 14 61.25C11.3333 61.5833 9.5 61.75 8.5 61.75C3 61.75 0.25 59.0833 0.25 53.75C0.25 47.9167 4 45 11.5 45C12.8333 45 13.75 45.0833 14.25 45.25L25 46.75C27.3333 47.0833 30.4167 47.25 34.25 47.25C38.9167 47.25 44.25 46.9167 50.25 46.25C57.75 45.4167 62.0833 45 63.25 45C70.5833 45 74.25 47.8333 74.25 53.5C74.25 59 71.1667 61.75 65 61.75C63.8333 61.75 61.75 61.5833 58.75 61.25C56.5833 60.5833 54.5 60.25 52.5 60.25C48.1667 60.25 46 62.75 46 67.75C46 71.0833 46.5833 75.1667 47.75 80ZM252.195 8.99999L251.195 57.5C257.862 51.1667 263.945 46.8333 269.445 44.5C274.945 42 281.445 40.75 288.945 40.75C303.279 40.75 314.779 44.8333 323.445 53C332.112 61.1667 336.445 71.9167 336.445 85.25V127C336.445 136.833 336.529 142.25 336.695 143.25C337.362 151.583 339.529 155.75 343.195 155.75C344.529 155.75 346.445 155.417 348.945 154.75C349.945 154.583 351.279 154.5 352.945 154.5C359.112 154.5 362.195 157.25 362.195 162.75C362.195 168.25 358.195 171 350.195 171C348.029 171 344.862 170.75 340.695 170.25C333.695 169.417 328.029 169 323.695 169C319.362 169 316.029 169.167 313.695 169.5C306.695 170.5 302.362 171 300.695 171C297.695 171 295.195 170.167 293.195 168.5C291.195 166.667 290.195 164.417 290.195 161.75C290.195 159.583 291.029 157.75 292.695 156.25C294.529 154.75 296.612 154 298.945 154C300.779 154 302.945 154.417 305.445 155.25C306.945 155.75 308.362 156 309.695 156C314.695 156 317.279 150.583 317.445 139.75C317.445 137.75 317.529 133.833 317.695 128L317.945 117.25V103.75C317.945 86.75 316.279 75.3333 312.945 69.5C308.112 60.8333 299.612 56.5 287.445 56.5C274.279 56.5 264.695 61 258.695 70C254.529 76.1667 252.362 86.0833 252.195 99.75L251.945 117.75C251.945 118.75 251.862 120.417 251.695 122.75C251.695 124.917 251.695 126.5 251.695 127.5C251.695 137 251.779 142.5 251.945 144C252.779 152.167 255.195 156.25 259.195 156.25C260.529 156.25 262.362 156 264.695 155.5C267.195 154.833 269.029 154.5 270.195 154.5C275.529 154.5 278.195 157.083 278.195 162.25C278.195 168.083 274.529 171 267.195 171C264.862 171 261.362 170.75 256.695 170.25C250.362 169.583 244.945 169.25 240.445 169.25C237.612 169.25 233.695 169.5 228.695 170C222.029 170.667 217.779 171 215.945 171C209.112 171 205.695 168 205.695 162C205.695 157 208.862 154.5 215.195 154.5C217.362 154.5 218.945 154.667 219.945 155C222.779 155.5 224.779 155.75 225.945 155.75C228.612 155.75 230.362 153.25 231.195 148.25C232.195 143.083 232.779 132.667 232.945 117L233.195 72.25C233.195 47.25 232.695 31.5 231.695 25C230.695 18.3333 228.362 15 224.695 15C223.529 15 221.779 15.25 219.445 15.75C217.112 16.25 215.279 16.5 213.945 16.5C208.279 16.5 205.445 13.8333 205.445 8.49999C205.445 6.16666 206.445 4.16666 208.445 2.5C210.445 0.833331 212.862 -1.78814e-06 215.695 -1.78814e-06C216.529 -1.78814e-06 219.362 0.249995 224.195 0.749989C227.362 1.08333 230.779 1.25 234.445 1.25C235.945 1.25 238.029 1.08333 240.695 0.749989C243.362 0.41666 245.279 0.249995 246.445 0.249995C250.279 0.249995 252.195 2.99999 252.195 8.49999V8.99999ZM479.625 173.25C465.958 173.25 457.542 167.333 454.375 155.5C445.875 168 432.542 174.25 414.375 174.25C400.875 174.25 390.042 170.917 381.875 164.25C373.875 157.583 369.875 148.667 369.875 137.5C369.875 123.667 375.792 113.5 387.625 107C392.125 104.5 395.958 102.917 399.125 102.25C402.458 101.417 409.042 100.417 418.875 99.25C432.875 97.75 441.958 95.6667 446.125 93C450.458 90.3333 452.625 85.4167 452.625 78.25C452.625 71.4167 450.208 66.0833 445.375 62.25C440.708 58.25 434.125 56.25 425.625 56.25C418.125 56.25 411.125 58.3333 404.625 62.5C402.125 64.1667 400.875 65.9167 400.875 67.75C400.875 68.4167 401.625 69.25 403.125 70.25C405.458 71.9167 406.625 74.75 406.625 78.75C406.625 82.0833 405.375 84.8333 402.875 87C400.542 89.1667 397.542 90.25 393.875 90.25C389.542 90.25 385.875 88.75 382.875 85.75C380.042 82.75 378.625 79.0833 378.625 74.75C378.625 65.4167 383.208 57.4167 392.375 50.75C401.708 44.0833 412.958 40.75 426.125 40.75C456.458 40.75 471.625 55.3333 471.625 84.5V135C471.625 143 471.792 147.75 472.125 149.25C473.125 155.083 475.958 158 480.625 158C486.458 158 489.375 152.667 489.375 142V129.75C489.375 124.417 491.958 121.75 497.125 121.75C502.625 121.75 505.375 125.75 505.375 133.75V135L505.125 149.25C504.792 165.25 496.292 173.25 479.625 173.25ZM451.875 123.5L452.125 105.75C448.458 109.083 444.542 111.417 440.375 112.75C436.375 114.083 429.125 115.25 418.625 116.25C399.625 118.083 390.125 125.083 390.125 137.25C390.125 143.583 392.375 148.583 396.875 152.25C401.542 155.917 407.792 157.75 415.625 157.75C426.792 157.75 435.542 154.75 441.875 148.75C448.375 142.583 451.708 134.167 451.875 123.5ZM552.238 65.5L552.488 143.25C552.655 151.75 554.905 156 559.238 156C560.238 156 562.322 155.583 565.488 154.75C567.488 154.417 568.822 154.25 569.488 154.25C574.988 154.25 577.738 157.083 577.738 162.75C577.738 168.25 574.322 171 567.488 171C564.822 171 560.572 170.667 554.738 170C548.905 169.333 544.405 169 541.238 169C538.572 169 534.572 169.333 529.238 170C523.905 170.667 519.988 171 517.488 171H516.238C509.238 171 505.738 168 505.738 162C505.738 156.833 508.572 154.25 514.238 154.25C514.572 154.25 515.155 154.25 515.988 154.25C516.988 154.417 517.738 154.5 518.238 154.5C522.405 155.167 524.822 155.5 525.488 155.5C528.488 155.5 530.322 154.25 530.988 151.75C531.822 149.083 532.322 142.333 532.488 131.5L532.738 114L533.488 75.25L533.238 30.75C533.072 25.75 532.822 22.4167 532.488 20.75C531.322 16.9167 528.988 15 525.488 15C524.988 15 522.822 15.3333 518.988 16C517.155 16.3333 515.655 16.5 514.488 16.5C508.822 16.5 505.988 13.8333 505.988 8.49999C505.988 2.99999 509.322 0.249995 515.988 0.249995C517.822 0.249995 519.405 0.333327 520.738 0.499992L526.738 1.25C529.405 1.58333 531.655 1.74999 533.488 1.74999C535.155 1.74999 537.655 1.49999 540.988 0.999985C544.322 0.333327 546.822 -1.78814e-06 548.488 -1.78814e-06C552.322 -1.78814e-06 554.238 2.41666 554.238 7.24999C554.238 8.91666 554.155 10.1667 553.988 11C552.822 23.8333 552.238 42 552.238 65.5ZM703.887 96.5C703.887 102.833 703.47 106.75 702.637 108.25C701.803 109.583 699.387 110.25 695.387 110.25H615.887C613.72 110.25 612.303 110.583 611.637 111.25C610.97 111.75 610.637 112.667 610.637 114C610.637 126.5 614.387 136.917 621.887 145.25C629.387 153.583 638.72 157.75 649.887 157.75C657.22 157.75 663.887 155.75 669.887 151.75C676.053 147.75 680.053 142.667 681.887 136.5L684.137 129.25C685.303 125.25 688.053 123.25 692.387 123.25C698.553 123.25 701.637 126.417 701.637 132.75C701.637 143.583 696.137 153.25 685.137 161.75C674.137 170.083 661.637 174.25 647.637 174.25C630.137 174.25 616.22 168.417 605.887 156.75C595.553 144.917 590.387 129.083 590.387 109.25C590.387 88.9167 595.887 72.4167 606.887 59.75C617.887 47.0833 632.22 40.75 649.887 40.75C665.553 40.75 678.47 46 688.637 56.5C698.803 67 703.887 80.3333 703.887 96.5ZM613.137 90C613.137 92.3333 614.97 93.5 618.637 93.5H678.387C681.887 93.5 683.637 92.3333 683.637 90C683.637 81.1667 680.303 73.5 673.637 67C666.97 60.5 659.137 57.25 650.137 57.25C640.803 57.25 632.303 60.6667 624.637 67.5C616.97 74.1667 613.137 81.6667 613.137 90Z" fill="#07004D"/>
<path d="M47.75 80L66 156L85.5 68C87.5 58.6667 89.6667 52.5 92 49.5C94.5 46.3333 98.25 44.75 103.25 44.75C108.417 44.75 112.167 46.3333 114.5 49.5C117 52.6667 119.25 58.8333 121.25 68L140 156L158.5 80C159.667 75.1667 160.25 71 160.25 67.5V67C160.25 62.5 158.333 60.25 154.5 60.25C153 60.25 150.833 60.5833 148 61.25C145.167 61.75 143 62 141.5 62C135.333 62 132.25 59.25 132.25 53.75C132.25 47.9167 136.333 45 144.5 45C145.667 45 146.917 45.0833 148.25 45.25L158.5 46.5C161.167 46.8333 165.333 47 171 47C175.5 47 179.833 46.75 184 46.25L192.25 45.25C192.917 45.0833 193.833 45 195 45C202.167 45 205.75 47.8333 205.75 53.5C205.75 59 203 61.75 197.5 61.75C195.667 61.75 194.25 61.5833 193.25 61.25C190.583 60.9167 189.083 60.75 188.75 60.75C184.25 60.75 179.583 70 174.75 88.5L157.75 152.75C155.75 160.583 153.417 166.083 150.75 169.25C148.083 172.25 144.417 173.75 139.75 173.75C130.917 173.75 125 166.75 122 152.75L103.25 63.75L83.75 151.25C81.9167 159.583 79.5833 165.5 76.75 169C73.9167 172.333 70.0833 174 65.25 174C57.4167 174 52.1667 168.833 49.5 158.5L25.5 68.5C24 63.1667 21.6667 60.5 18.5 60.5C17.5 60.5 16 60.75 14 61.25C11.3333 61.5833 9.5 61.75 8.5 61.75C3 61.75 0.25 59.0833 0.25 53.75C0.25 47.9167 4 45 11.5 45C12.8333 45 13.75 45.0833 14.25 45.25L25 46.75C27.3333 47.0833 30.4167 47.25 34.25 47.25C38.9167 47.25 44.25 46.9167 50.25 46.25C57.75 45.4167 62.0833 45 63.25 45C70.5833 45 74.25 47.8333 74.25 53.5C74.25 59 71.1667 61.75 65 61.75C63.8333 61.75 61.75 61.5833 58.75 61.25C56.5833 60.5833 54.5 60.25 52.5 60.25C48.1667 60.25 46 62.75 46 67.75C46 71.0833 46.5833 75.1667 47.75 80ZM252.195 8.99999L251.195 57.5C257.862 51.1667 263.945 46.8333 269.445 44.5C274.945 42 281.445 40.75 288.945 40.75C303.279 40.75 314.779 44.8333 323.445 53C332.112 61.1667 336.445 71.9167 336.445 85.25V127C336.445 136.833 336.529 142.25 336.695 143.25C337.362 151.583 339.529 155.75 343.195 155.75C344.529 155.75 346.445 155.417 348.945 154.75C349.945 154.583 351.279 154.5 352.945 154.5C359.112 154.5 362.195 157.25 362.195 162.75C362.195 168.25 358.195 171 350.195 171C348.029 171 344.862 170.75 340.695 170.25C333.695 169.417 328.029 169 323.695 169C319.362 169 316.029 169.167 313.695 169.5C306.695 170.5 302.362 171 300.695 171C297.695 171 295.195 170.167 293.195 168.5C291.195 166.667 290.195 164.417 290.195 161.75C290.195 159.583 291.029 157.75 292.695 156.25C294.529 154.75 296.612 154 298.945 154C300.779 154 302.945 154.417 305.445 155.25C306.945 155.75 308.362 156 309.695 156C314.695 156 317.279 150.583 317.445 139.75C317.445 137.75 317.529 133.833 317.695 128L317.945 117.25V103.75C317.945 86.75 316.279 75.3333 312.945 69.5C308.112 60.8333 299.612 56.5 287.445 56.5C274.279 56.5 264.695 61 258.695 70C254.529 76.1667 252.362 86.0833 252.195 99.75L251.945 117.75C251.945 118.75 251.862 120.417 251.695 122.75C251.695 124.917 251.695 126.5 251.695 127.5C251.695 137 251.779 142.5 251.945 144C252.779 152.167 255.195 156.25 259.195 156.25C260.529 156.25 262.362 156 264.695 155.5C267.195 154.833 269.029 154.5 270.195 154.5C275.529 154.5 278.195 157.083 278.195 162.25C278.195 168.083 274.529 171 267.195 171C264.862 171 261.362 170.75 256.695 170.25C250.362 169.583 244.945 169.25 240.445 169.25C237.612 169.25 233.695 169.5 228.695 170C222.029 170.667 217.779 171 215.945 171C209.112 171 205.695 168 205.695 162C205.695 157 208.862 154.5 215.195 154.5C217.362 154.5 218.945 154.667 219.945 155C222.779 155.5 224.779 155.75 225.945 155.75C228.612 155.75 230.362 153.25 231.195 148.25C232.195 143.083 232.779 132.667 232.945 117L233.195 72.25C233.195 47.25 232.695 31.5 231.695 25C230.695 18.3333 228.362 15 224.695 15C223.529 15 221.779 15.25 219.445 15.75C217.112 16.25 215.279 16.5 213.945 16.5C208.279 16.5 205.445 13.8333 205.445 8.49999C205.445 6.16666 206.445 4.16666 208.445 2.5C210.445 0.833331 212.862 -1.78814e-06 215.695 -1.78814e-06C216.529 -1.78814e-06 219.362 0.249995 224.195 0.749989C227.362 1.08333 230.779 1.25 234.445 1.25C235.945 1.25 238.029 1.08333 240.695 0.749989C243.362 0.41666 245.279 0.249995 246.445 0.249995C250.279 0.249995 252.195 2.99999 252.195 8.49999V8.99999ZM479.625 173.25C465.958 173.25 457.542 167.333 454.375 155.5C445.875 168 432.542 174.25 414.375 174.25C400.875 174.25 390.042 170.917 381.875 164.25C373.875 157.583 369.875 148.667 369.875 137.5C369.875 123.667 375.792 113.5 387.625 107C392.125 104.5 395.958 102.917 399.125 102.25C402.458 101.417 409.042 100.417 418.875 99.25C432.875 97.75 441.958 95.6667 446.125 93C450.458 90.3333 452.625 85.4167 452.625 78.25C452.625 71.4167 450.208 66.0833 445.375 62.25C440.708 58.25 434.125 56.25 425.625 56.25C418.125 56.25 411.125 58.3333 404.625 62.5C402.125 64.1667 400.875 65.9167 400.875 67.75C400.875 68.4167 401.625 69.25 403.125 70.25C405.458 71.9167 406.625 74.75 406.625 78.75C406.625 82.0833 405.375 84.8333 402.875 87C400.542 89.1667 397.542 90.25 393.875 90.25C389.542 90.25 385.875 88.75 382.875 85.75C380.042 82.75 378.625 79.0833 378.625 74.75C378.625 65.4167 383.208 57.4167 392.375 50.75C401.708 44.0833 412.958 40.75 426.125 40.75C456.458 40.75 471.625 55.3333 471.625 84.5V135C471.625 143 471.792 147.75 472.125 149.25C473.125 155.083 475.958 158 480.625 158C486.458 158 489.375 152.667 489.375 142V129.75C489.375 124.417 491.958 121.75 497.125 121.75C502.625 121.75 505.375 125.75 505.375 133.75V135L505.125 149.25C504.792 165.25 496.292 173.25 479.625 173.25ZM451.875 123.5L452.125 105.75C448.458 109.083 444.542 111.417 440.375 112.75C436.375 114.083 429.125 115.25 418.625 116.25C399.625 118.083 390.125 125.083 390.125 137.25C390.125 143.583 392.375 148.583 396.875 152.25C401.542 155.917 407.792 157.75 415.625 157.75C426.792 157.75 435.542 154.75 441.875 148.75C448.375 142.583 451.708 134.167 451.875 123.5ZM552.238 65.5L552.488 143.25C552.655 151.75 554.905 156 559.238 156C560.238 156 562.322 155.583 565.488 154.75C567.488 154.417 568.822 154.25 569.488 154.25C574.988 154.25 577.738 157.083 577.738 162.75C577.738 168.25 574.322 171 567.488 171C564.822 171 560.572 170.667 554.738 170C548.905 169.333 544.405 169 541.238 169C538.572 169 534.572 169.333 529.238 170C523.905 170.667 519.988 171 517.488 171H516.238C509.238 171 505.738 168 505.738 162C505.738 156.833 508.572 154.25 514.238 154.25C514.572 154.25 515.155 154.25 515.988 154.25C516.988 154.417 517.738 154.5 518.238 154.5C522.405 155.167 524.822 155.5 525.488 155.5C528.488 155.5 530.322 154.25 530.988 151.75C531.822 149.083 532.322 142.333 532.488 131.5L532.738 114L533.488 75.25L533.238 30.75C533.072 25.75 532.822 22.4167 532.488 20.75C531.322 16.9167 528.988 15 525.488 15C524.988 15 522.822 15.3333 518.988 16C517.155 16.3333 515.655 16.5 514.488 16.5C508.822 16.5 505.988 13.8333 505.988 8.49999C505.988 2.99999 509.322 0.249995 515.988 0.249995C517.822 0.249995 519.405 0.333327 520.738 0.499992L526.738 1.25C529.405 1.58333 531.655 1.74999 533.488 1.74999C535.155 1.74999 537.655 1.49999 540.988 0.999985C544.322 0.333327 546.822 -1.78814e-06 548.488 -1.78814e-06C552.322 -1.78814e-06 554.238 2.41666 554.238 7.24999C554.238 8.91666 554.155 10.1667 553.988 11C552.822 23.8333 552.238 42 552.238 65.5ZM703.887 96.5C703.887 102.833 703.47 106.75 702.637 108.25C701.803 109.583 699.387 110.25 695.387 110.25H615.887C613.72 110.25 612.303 110.583 611.637 111.25C610.97 111.75 610.637 112.667 610.637 114C610.637 126.5 614.387 136.917 621.887 145.25C629.387 153.583 638.72 157.75 649.887 157.75C657.22 157.75 663.887 155.75 669.887 151.75C676.053 147.75 680.053 142.667 681.887 136.5L684.137 129.25C685.303 125.25 688.053 123.25 692.387 123.25C698.553 123.25 701.637 126.417 701.637 132.75C701.637 143.583 696.137 153.25 685.137 161.75C674.137 170.083 661.637 174.25 647.637 174.25C630.137 174.25 616.22 168.417 605.887 156.75C595.553 144.917 590.387 129.083 590.387 109.25C590.387 88.9167 595.887 72.4167 606.887 59.75C617.887 47.0833 632.22 40.75 649.887 40.75C665.553 40.75 678.47 46 688.637 56.5C698.803 67 703.887 80.3333 703.887 96.5ZM613.137 90C613.137 92.3333 614.97 93.5 618.637 93.5H678.387C681.887 93.5 683.637 92.3333 683.637 90C683.637 81.1667 680.303 73.5 673.637 67C666.97 60.5 659.137 57.25 650.137 57.25C640.803 57.25 632.303 60.6667 624.637 67.5C616.97 74.1667 613.137 81.6667 613.137 90Z" fill="url(#paint0_linear)"/>
<defs>
<linearGradient id="paint0_linear" x1="731.749" y1="147.463" x2="-559.459" y2="138.661" gradientUnits="userSpaceOnUse">
<stop stop-color="white" stop-opacity="0"/>
<stop offset="1" stop-color="#4B27A5"/>
</linearGradient>
</defs>
</svg>
