<svg width="2040" height="600" viewBox="0 0 2040 600" fill="none" xmlns="http://www.w3.org/2000/svg">
<g clip-path="url(#clip0)">
<path d="M296.535 485.267C296.966 486.969 296.898 488.858 296.139 490.633C295.076 493.147 292.923 494.871 290.462 495.494C288.758 495.925 286.923 495.843 285.183 495.104C282.771 494.104 280.4 493.034 278.055 491.958C233.906 471.821 198.937 440.987 176.554 402.362C174.249 398.37 175.601 393.251 179.62 390.938C183.579 388.612 188.732 389.985 191.038 393.977C209.087 425.151 236.201 450.866 270.167 469.321L270.439 469.482C274.409 471.642 278.503 473.714 282.683 475.678C285.623 477.063 288.639 478.401 291.667 479.678C294.174 480.712 295.892 482.838 296.535 485.267Z" fill="#07004D"/>
<path d="M676.361 220.721C676.573 221.559 676.779 222.371 676.964 223.216C690.87 281.34 677.373 342.743 638.854 396.467C600.105 450.536 540.878 489.873 472.128 507.274C444.567 514.249 416.536 517.43 388.676 516.739C387.148 516.723 385.613 516.681 384.068 516.611C381.308 516.504 378.928 515.062 377.502 512.949C376.51 511.53 375.95 509.773 376.025 507.912C376.089 506.571 376.464 505.325 377.078 504.221C377.421 503.76 377.757 503.272 378.068 502.79C379.666 500.918 382.085 499.787 384.731 499.895C389.732 500.098 394.726 500.157 399.711 500.074C422.548 499.791 445.464 496.755 468.02 491.045C602.492 457.011 688.672 337.582 660.134 224.828C658.998 220.338 657.713 215.944 656.218 211.633C654.41 206.191 652.344 200.87 650.001 195.709C607.794 101.379 486.915 51.0774 364.506 82.0593C282.098 102.917 214.624 156.744 184.004 225.994C182.143 230.235 177.189 232.151 172.974 230.281C168.726 228.392 166.817 223.466 168.679 219.224C201.397 145.3 273.04 87.9415 360.398 65.831C429.149 48.4301 499.965 54.8837 559.763 83.9796C620.058 113.327 661.473 161.896 676.361 220.721Z" fill="#07004D"/>
<path d="M669.992 200.894C670.741 205.453 667.656 209.745 663.07 210.503C660.749 210.888 658.485 211.26 656.219 211.631C483.183 240.434 478.864 257.931 459.051 338.259C452.871 363.42 445.247 394.244 431.075 432.855C429.813 436.281 428.504 439.749 427.128 443.293C418.928 464.563 409.794 483.508 399.712 500.074C396.164 505.951 392.471 511.492 388.677 516.739C384.519 522.597 380.178 528.071 375.68 533.151C359.259 551.955 340.948 565.8 320.836 574.573C313.951 577.611 307.21 579.863 300.747 581.499C263.748 590.863 235.684 580.038 234.31 579.495L222.921 574.981L231.271 566.018C257.234 538.179 270.929 512.583 278.055 491.957C279.933 486.532 281.355 481.453 282.436 476.748C282.517 476.383 282.603 476.044 282.684 475.679C283.051 473.944 283.378 472.279 283.684 470.648C286.784 452.998 284.812 442.361 284.778 442.11C283.864 437.593 286.714 433.159 291.26 432.24C295.769 431.299 300.174 434.157 301.135 438.632C301.362 439.755 303.759 451.725 300.743 471.078C300.026 475.634 299.011 480.61 297.592 485.919C291.757 507.888 279.159 535.998 252.819 567.01C266.177 569.299 289.083 570.322 314.498 559.084C331.373 551.618 346.969 540.015 361.133 524.343C364.896 520.225 368.531 515.823 372.09 511.124C373.768 508.887 375.433 506.595 377.078 504.221C377.421 503.76 377.758 503.272 378.068 502.791C389.38 486.315 399.629 466.771 408.732 444.293C409.671 441.984 410.578 439.653 411.506 437.289C427.893 394.693 436.157 361.177 442.811 334.253C453.351 291.526 460.306 263.29 489.786 242.302C516.196 223.503 558.631 211.064 650.002 195.709C653.396 195.137 656.846 194.551 660.382 193.973C664.947 193.25 669.24 196.336 669.992 200.894Z" fill="#07004D"/>
<g opacity="0.25">
<g opacity="0.25">
<path opacity="0.25" d="M283.684 470.648C289.396 471.044 295.073 471.19 300.742 471.078C300.026 475.634 299.012 480.61 297.592 485.919L296.535 485.267L282.436 476.748L270.439 469.482C274.409 471.643 278.502 473.714 282.684 475.679C283.051 473.944 283.378 472.279 283.684 470.648Z" fill="#0071BC"/>
</g>
</g>
<g opacity="0.25">
<g opacity="0.25">
<path opacity="0.25" d="M676.964 223.216C690.87 281.34 677.374 342.743 638.853 396.467C600.104 450.536 540.878 489.873 472.128 507.273C444.568 514.249 416.537 517.429 388.677 516.739L377.501 512.949L372.091 511.125C373.768 508.886 375.432 506.594 377.078 504.221C377.421 503.761 377.758 503.273 378.068 502.791C389.38 486.315 399.629 466.771 408.732 444.293C416.292 440.74 423.731 436.929 431.076 432.854C561.097 360.662 656.219 211.632 656.219 211.632L676.964 223.216Z" fill="#7150FF"/>
<path opacity="0.25" d="M676.964 223.216C690.87 281.34 677.374 342.743 638.853 396.467C600.104 450.536 540.878 489.873 472.128 507.273C444.568 514.249 416.537 517.429 388.677 516.739L377.501 512.949L372.091 511.125C373.768 508.886 375.432 506.594 377.078 504.221C377.421 503.761 377.758 503.273 378.068 502.791C389.38 486.315 399.629 466.771 408.732 444.293C416.292 440.74 423.731 436.929 431.076 432.854C561.097 360.662 656.219 211.632 656.219 211.632L676.964 223.216Z" fill="#7150FF"/>
<path opacity="0.25" d="M676.964 223.216C690.87 281.34 677.374 342.743 638.853 396.467C600.104 450.536 540.878 489.873 472.128 507.273C444.568 514.249 416.537 517.429 388.677 516.739L377.501 512.949L372.091 511.125C373.768 508.886 375.432 506.594 377.078 504.221C377.421 503.761 377.758 503.273 378.068 502.791C389.38 486.315 399.629 466.771 408.732 444.293C416.292 440.74 423.731 436.929 431.076 432.854C561.097 360.662 656.219 211.632 656.219 211.632L676.964 223.216Z" fill="#7150FF"/>
<path opacity="0.25" d="M676.964 223.216C690.87 281.34 677.374 342.743 638.853 396.467C600.104 450.536 540.878 489.873 472.128 507.273C444.568 514.249 416.537 517.429 388.677 516.739L377.501 512.949L372.091 511.125C373.768 508.886 375.432 506.594 377.078 504.221C377.421 503.761 377.758 503.273 378.068 502.791C389.38 486.315 399.629 466.771 408.732 444.293C416.292 440.74 423.731 436.929 431.076 432.854C561.097 360.662 656.219 211.632 656.219 211.632L676.964 223.216Z" fill="#7150FF"/>
<path opacity="0.25" d="M676.964 223.216C690.87 281.34 677.374 342.743 638.853 396.467C600.104 450.536 540.878 489.873 472.128 507.273C444.568 514.249 416.537 517.429 388.677 516.739L377.501 512.949L372.091 511.125C373.768 508.886 375.432 506.594 377.078 504.221C377.421 503.761 377.758 503.273 378.068 502.791C389.38 486.315 399.629 466.771 408.732 444.293C416.292 440.74 423.731 436.929 431.076 432.854C561.097 360.662 656.219 211.632 656.219 211.632L676.964 223.216Z" fill="#7150FF"/>
<path opacity="0.25" d="M676.964 223.216C690.87 281.34 677.374 342.743 638.853 396.467C600.104 450.536 540.878 489.873 472.128 507.273C444.568 514.249 416.537 517.429 388.677 516.739L377.501 512.949L372.091 511.125C373.768 508.886 375.432 506.594 377.078 504.221C377.421 503.761 377.758 503.273 378.068 502.791C389.38 486.315 399.629 466.771 408.732 444.293C416.292 440.74 423.731 436.929 431.076 432.854C561.097 360.662 656.219 211.632 656.219 211.632L676.964 223.216Z" fill="#7150FF"/>
<path opacity="0.25" d="M676.964 223.216C690.87 281.34 677.374 342.743 638.853 396.467C600.104 450.536 540.878 489.873 472.128 507.273C444.568 514.249 416.537 517.429 388.677 516.739L377.501 512.949L372.091 511.125C373.768 508.886 375.432 506.594 377.078 504.221C377.421 503.761 377.758 503.273 378.068 502.791C389.38 486.315 399.629 466.771 408.732 444.293C416.292 440.74 423.731 436.929 431.076 432.854C561.097 360.662 656.219 211.632 656.219 211.632L676.964 223.216Z" fill="#7150FF"/>
<path opacity="0.25" d="M676.964 223.216C690.87 281.34 677.374 342.743 638.853 396.467C600.104 450.536 540.878 489.873 472.128 507.273C444.568 514.249 416.537 517.429 388.677 516.739L377.501 512.949L372.091 511.125C373.768 508.886 375.432 506.594 377.078 504.221C377.421 503.761 377.758 503.273 378.068 502.791C389.38 486.315 399.629 466.771 408.732 444.293C416.292 440.74 423.731 436.929 431.076 432.854C561.097 360.662 656.219 211.632 656.219 211.632L676.964 223.216Z" fill="#7150FF"/>
<path opacity="0.25" d="M676.964 223.216C690.87 281.34 677.374 342.743 638.853 396.467C600.104 450.536 540.878 489.873 472.128 507.273C444.568 514.249 416.537 517.429 388.677 516.739L377.501 512.949L372.091 511.125C373.768 508.886 375.432 506.594 377.078 504.221C377.421 503.761 377.758 503.273 378.068 502.791C389.38 486.315 399.629 466.771 408.732 444.293C416.292 440.74 423.731 436.929 431.076 432.854C561.097 360.662 656.219 211.632 656.219 211.632L676.964 223.216Z" fill="#7150FF"/>
<path opacity="0.25" d="M676.964 223.216C690.87 281.34 677.374 342.743 638.853 396.467C600.104 450.536 540.878 489.873 472.128 507.273C444.568 514.249 416.537 517.429 388.677 516.739L377.501 512.949L372.091 511.125C373.768 508.886 375.432 506.594 377.078 504.221C377.421 503.761 377.758 503.273 378.068 502.791C389.38 486.315 399.629 466.771 408.732 444.293C416.292 440.74 423.731 436.929 431.076 432.854C561.097 360.662 656.219 211.632 656.219 211.632L676.964 223.216Z" fill="#7150FF"/>
<path opacity="0.25" d="M676.964 223.216C690.87 281.34 677.374 342.743 638.853 396.467C600.104 450.536 540.878 489.873 472.128 507.273C444.568 514.249 416.537 517.429 388.677 516.739L377.501 512.949L372.091 511.125C373.768 508.886 375.432 506.594 377.078 504.221C377.421 503.761 377.758 503.273 378.068 502.791C389.38 486.315 399.629 466.771 408.732 444.293C416.292 440.74 423.731 436.929 431.076 432.854C561.097 360.662 656.219 211.632 656.219 211.632L676.964 223.216Z" fill="#7150FF"/>
<path opacity="0.25" d="M676.964 223.216C690.87 281.34 677.374 342.743 638.853 396.467C600.104 450.536 540.878 489.873 472.128 507.273C444.568 514.249 416.537 517.429 388.677 516.739L377.501 512.949L372.091 511.125C373.768 508.886 375.432 506.594 377.078 504.221C377.421 503.761 377.758 503.273 378.068 502.791C389.38 486.315 399.629 466.771 408.732 444.293C416.292 440.74 423.731 436.929 431.076 432.854C561.097 360.662 656.219 211.632 656.219 211.632L676.964 223.216Z" fill="#7150FF"/>
<path opacity="0.25" d="M676.964 223.216C690.87 281.34 677.374 342.743 638.853 396.467C600.104 450.536 540.878 489.873 472.128 507.273C444.568 514.249 416.537 517.429 388.677 516.739L377.501 512.949L372.091 511.125C373.768 508.886 375.432 506.594 377.078 504.221C377.421 503.761 377.758 503.273 378.068 502.791C389.38 486.315 399.629 466.771 408.732 444.293C416.292 440.74 423.731 436.929 431.076 432.854C561.097 360.662 656.219 211.632 656.219 211.632L676.964 223.216Z" fill="#7150FF"/>
</g>
</g>
<g opacity="0.25">
<g opacity="0.25">
<path opacity="0.25" d="M676.964 223.216C690.87 281.34 677.374 342.743 638.853 396.467C600.104 450.536 540.878 489.873 472.128 507.273C444.568 514.249 416.537 517.429 388.677 516.739L377.501 512.949L372.091 511.125C373.768 508.886 375.432 506.594 377.078 504.221C377.421 503.761 377.758 503.273 378.068 502.791C389.38 486.315 399.629 466.771 408.732 444.293C416.292 440.74 423.731 436.929 431.076 432.854C561.097 360.662 656.219 211.632 656.219 211.632L676.964 223.216Z" fill="#7150FF"/>
<path opacity="0.25" d="M676.964 223.216C690.87 281.34 677.374 342.743 638.853 396.467C600.104 450.536 540.878 489.873 472.128 507.273C444.568 514.249 416.537 517.429 388.677 516.739L377.501 512.949L372.091 511.125C373.768 508.886 375.432 506.594 377.078 504.221C377.421 503.761 377.758 503.273 378.068 502.791C389.38 486.315 399.629 466.771 408.732 444.293C416.292 440.74 423.731 436.929 431.076 432.854C561.097 360.662 656.219 211.632 656.219 211.632L676.964 223.216Z" fill="#7150FF"/>
<path opacity="0.25" d="M676.964 223.216C690.87 281.34 677.374 342.743 638.853 396.467C600.104 450.536 540.878 489.873 472.128 507.273C444.568 514.249 416.537 517.429 388.677 516.739L377.501 512.949L372.091 511.125C373.768 508.886 375.432 506.594 377.078 504.221C377.421 503.761 377.758 503.273 378.068 502.791C389.38 486.315 399.629 466.771 408.732 444.293C416.292 440.74 423.731 436.929 431.076 432.854C561.097 360.662 656.219 211.632 656.219 211.632L676.964 223.216Z" fill="#7150FF"/>
<path opacity="0.25" d="M676.964 223.216C690.87 281.34 677.374 342.743 638.853 396.467C600.104 450.536 540.878 489.873 472.128 507.273C444.568 514.249 416.537 517.429 388.677 516.739L377.501 512.949L372.091 511.125C373.768 508.886 375.432 506.594 377.078 504.221C377.421 503.761 377.758 503.273 378.068 502.791C389.38 486.315 399.629 466.771 408.732 444.293C416.292 440.74 423.731 436.929 431.076 432.854C561.097 360.662 656.219 211.632 656.219 211.632L676.964 223.216Z" fill="#7150FF"/>
<path opacity="0.25" d="M676.964 223.216C690.87 281.34 677.374 342.743 638.853 396.467C600.104 450.536 540.878 489.873 472.128 507.273C444.568 514.249 416.537 517.429 388.677 516.739L377.501 512.949L372.091 511.125C373.768 508.886 375.432 506.594 377.078 504.221C377.421 503.761 377.758 503.273 378.068 502.791C389.38 486.315 399.629 466.771 408.732 444.293C416.292 440.74 423.731 436.929 431.076 432.854C561.097 360.662 656.219 211.632 656.219 211.632L676.964 223.216Z" fill="#7150FF"/>
<path opacity="0.25" d="M676.964 223.216C690.87 281.34 677.374 342.743 638.853 396.467C600.104 450.536 540.878 489.873 472.128 507.273C444.568 514.249 416.537 517.429 388.677 516.739L377.501 512.949L372.091 511.125C373.768 508.886 375.432 506.594 377.078 504.221C377.421 503.761 377.758 503.273 378.068 502.791C389.38 486.315 399.629 466.771 408.732 444.293C416.292 440.74 423.731 436.929 431.076 432.854C561.097 360.662 656.219 211.632 656.219 211.632L676.964 223.216Z" fill="#7150FF"/>
<path opacity="0.25" d="M676.964 223.216C690.87 281.34 677.374 342.743 638.853 396.467C600.104 450.536 540.878 489.873 472.128 507.273C444.568 514.249 416.537 517.429 388.677 516.739L377.501 512.949L372.091 511.125C373.768 508.886 375.432 506.594 377.078 504.221C377.421 503.761 377.758 503.273 378.068 502.791C389.38 486.315 399.629 466.771 408.732 444.293C416.292 440.74 423.731 436.929 431.076 432.854C561.097 360.662 656.219 211.632 656.219 211.632L676.964 223.216Z" fill="#7150FF"/>
<path opacity="0.25" d="M676.964 223.216C690.87 281.34 677.374 342.743 638.853 396.467C600.104 450.536 540.878 489.873 472.128 507.273C444.568 514.249 416.537 517.429 388.677 516.739L377.501 512.949L372.091 511.125C373.768 508.886 375.432 506.594 377.078 504.221C377.421 503.761 377.758 503.273 378.068 502.791C389.38 486.315 399.629 466.771 408.732 444.293C416.292 440.74 423.731 436.929 431.076 432.854C561.097 360.662 656.219 211.632 656.219 211.632L676.964 223.216Z" fill="#7150FF"/>
<path opacity="0.25" d="M676.964 223.216C690.87 281.34 677.374 342.743 638.853 396.467C600.104 450.536 540.878 489.873 472.128 507.273C444.568 514.249 416.537 517.429 388.677 516.739L377.501 512.949L372.091 511.125C373.768 508.886 375.432 506.594 377.078 504.221C377.421 503.761 377.758 503.273 378.068 502.791C389.38 486.315 399.629 466.771 408.732 444.293C416.292 440.74 423.731 436.929 431.076 432.854C561.097 360.662 656.219 211.632 656.219 211.632L676.964 223.216Z" fill="#7150FF"/>
<path opacity="0.25" d="M676.964 223.216C690.87 281.34 677.374 342.743 638.853 396.467C600.104 450.536 540.878 489.873 472.128 507.273C444.568 514.249 416.537 517.429 388.677 516.739L377.501 512.949L372.091 511.125C373.768 508.886 375.432 506.594 377.078 504.221C377.421 503.761 377.758 503.273 378.068 502.791C389.38 486.315 399.629 466.771 408.732 444.293C416.292 440.74 423.731 436.929 431.076 432.854C561.097 360.662 656.219 211.632 656.219 211.632L676.964 223.216Z" fill="#7150FF"/>
<path opacity="0.25" d="M676.964 223.216C690.87 281.34 677.374 342.743 638.853 396.467C600.104 450.536 540.878 489.873 472.128 507.273C444.568 514.249 416.537 517.429 388.677 516.739L377.501 512.949L372.091 511.125C373.768 508.886 375.432 506.594 377.078 504.221C377.421 503.761 377.758 503.273 378.068 502.791C389.38 486.315 399.629 466.771 408.732 444.293C416.292 440.74 423.731 436.929 431.076 432.854C561.097 360.662 656.219 211.632 656.219 211.632L676.964 223.216Z" fill="#7150FF"/>
<path opacity="0.25" d="M676.964 223.216C690.87 281.34 677.374 342.743 638.853 396.467C600.104 450.536 540.878 489.873 472.128 507.273C444.568 514.249 416.537 517.429 388.677 516.739L377.501 512.949L372.091 511.125C373.768 508.886 375.432 506.594 377.078 504.221C377.421 503.761 377.758 503.273 378.068 502.791C389.38 486.315 399.629 466.771 408.732 444.293C416.292 440.74 423.731 436.929 431.076 432.854C561.097 360.662 656.219 211.632 656.219 211.632L676.964 223.216Z" fill="#7150FF"/>
<path opacity="0.25" d="M676.964 223.216C690.87 281.34 677.374 342.743 638.853 396.467C600.104 450.536 540.878 489.873 472.128 507.273C444.568 514.249 416.537 517.429 388.677 516.739L377.501 512.949L372.091 511.125C373.768 508.886 375.432 506.594 377.078 504.221C377.421 503.761 377.758 503.273 378.068 502.791C389.38 486.315 399.629 466.771 408.732 444.293C416.292 440.74 423.731 436.929 431.076 432.854C561.097 360.662 656.219 211.632 656.219 211.632L676.964 223.216Z" fill="#7150FF"/>
</g>
</g>
<path d="M392.124 266.264C395.555 279.818 387.327 293.624 373.771 297.055C360.218 300.485 346.413 292.256 342.982 278.702C339.552 265.148 347.78 251.342 361.333 247.912C363.341 247.404 365.368 247.153 367.326 247.135C362.069 250.473 359.261 256.935 360.867 263.281C362.868 271.185 370.923 275.986 378.827 273.986C385.173 272.38 389.523 266.835 389.956 260.625C390.874 262.354 391.616 264.257 392.124 266.264Z" fill="#07004D"/>
<path d="M15 156.488C35.1486 200.614 91.7568 290.99 157 299.488" stroke="#4B27A5" stroke-width="30" stroke-linejoin="round"/>
<path d="M14 442.488C34.1486 398.671 90.7568 308.927 156 300.488" stroke="#4B27A5" stroke-width="30" stroke-linejoin="round"/>
</g>
<path d="M767.906 239.656H831.969V273.25H822.594L857.945 402.352L906.383 239.656H936.852L983.141 401.961L1020.05 273.25H1008.34V239.656H1072.4V273.25H1055.02L999.547 445.125H965.953L920.055 283.602L874.352 445.125H840.367L785.289 273.25H767.906V239.656ZM1106.58 138.094H1170.64V261.922H1171.81C1175.46 258.276 1179.62 254.891 1184.31 251.766C1189.13 248.51 1194.14 245.711 1199.35 243.367C1204.56 241.023 1209.96 239.201 1215.56 237.898C1221.16 236.596 1227.02 235.945 1233.14 235.945C1243.95 235.945 1253.71 237.443 1262.44 240.438C1271.16 243.432 1278.58 247.99 1284.7 254.109C1290.82 260.229 1295.51 268.107 1298.77 277.742C1302.15 287.247 1303.84 298.51 1303.84 311.531V408.406H1334.31V442H1238.22V408.406H1265.95V316.023C1265.95 300.529 1261.98 288.81 1254.04 280.867C1246.23 272.794 1234.96 268.758 1220.25 268.758C1211.92 268.758 1203.45 270.776 1194.86 274.812C1186.27 278.719 1178.19 283.667 1170.64 289.656V408.406H1199.94V442H1103.84V408.406H1134.31V171.688H1106.58V138.094Z" fill="#07004D"/>
<path d="M767.906 239.656H831.969V273.25H822.594L857.945 402.352L906.383 239.656H936.852L983.141 401.961L1020.05 273.25H1008.34V239.656H1072.4V273.25H1055.02L999.547 445.125H965.953L920.055 283.602L874.352 445.125H840.367L785.289 273.25H767.906V239.656ZM1106.58 138.094H1170.64V261.922H1171.81C1175.46 258.276 1179.62 254.891 1184.31 251.766C1189.13 248.51 1194.14 245.711 1199.35 243.367C1204.56 241.023 1209.96 239.201 1215.56 237.898C1221.16 236.596 1227.02 235.945 1233.14 235.945C1243.95 235.945 1253.71 237.443 1262.44 240.438C1271.16 243.432 1278.58 247.99 1284.7 254.109C1290.82 260.229 1295.51 268.107 1298.77 277.742C1302.15 287.247 1303.84 298.51 1303.84 311.531V408.406H1334.31V442H1238.22V408.406H1265.95V316.023C1265.95 300.529 1261.98 288.81 1254.04 280.867C1246.23 272.794 1234.96 268.758 1220.25 268.758C1211.92 268.758 1203.45 270.776 1194.86 274.812C1186.27 278.719 1178.19 283.667 1170.64 289.656V408.406H1199.94V442H1103.84V408.406H1134.31V171.688H1106.58V138.094Z" fill="url(#paint0_linear)"/>
<path d="M1487.24 423.25C1479.56 430.411 1471.03 436.271 1461.66 440.828C1452.41 445.385 1441.86 447.664 1430.02 447.664C1420.12 447.664 1411.01 446.102 1402.67 442.977C1394.47 439.852 1387.37 435.62 1381.38 430.281C1375.39 424.812 1370.71 418.497 1367.32 411.336C1364.07 404.174 1362.44 396.557 1362.44 388.484C1362.44 379.891 1363.67 372.273 1366.15 365.633C1368.75 358.992 1372.14 353.263 1376.3 348.445C1380.6 343.497 1385.55 339.396 1391.15 336.141C1396.88 332.755 1402.8 330.086 1408.92 328.133C1415.17 326.049 1421.49 324.617 1427.87 323.836C1434.38 322.924 1440.56 322.469 1446.42 322.469C1455.8 322.469 1463.67 322.794 1470.05 323.445C1476.43 323.966 1482.23 324.747 1487.44 325.789L1487.63 309.188C1487.63 302.026 1486.59 295.841 1484.51 290.633C1482.42 285.294 1479.49 280.932 1475.72 277.547C1471.94 274.031 1467.39 271.427 1462.05 269.734C1456.84 268.042 1450.98 267.195 1444.47 267.195C1438.35 267.195 1432.49 267.651 1426.89 268.562C1421.29 269.344 1416.02 270.451 1411.07 271.883C1406.25 273.185 1401.76 274.747 1397.59 276.57C1393.56 278.263 1390.11 280.086 1387.24 282.039L1375.33 256.844C1380.15 253.719 1385.42 250.854 1391.15 248.25C1396.88 245.516 1402.87 243.237 1409.12 241.414C1415.5 239.461 1421.94 237.964 1428.45 236.922C1435.09 235.75 1441.6 235.164 1447.98 235.164C1459.7 235.164 1470.25 236.596 1479.62 239.461C1489 242.195 1496.94 246.492 1503.45 252.352C1509.96 258.211 1514.98 265.698 1518.49 274.812C1522.01 283.797 1523.77 294.604 1523.77 307.234L1523.57 408.406H1546.03V442H1487.24V423.25ZM1438.02 417.195C1442.84 417.195 1447.66 416.609 1452.48 415.438C1457.29 414.266 1461.85 412.703 1466.15 410.75C1470.45 408.667 1474.42 406.323 1478.06 403.719C1481.71 400.984 1484.77 398.185 1487.24 395.32L1487.44 349.617H1445.25C1438.22 349.617 1431.77 350.398 1425.91 351.961C1420.18 353.523 1415.17 355.802 1410.88 358.797C1406.71 361.792 1403.45 365.503 1401.11 369.93C1398.77 374.357 1397.59 379.435 1397.59 385.164C1397.59 390.503 1398.57 395.19 1400.52 399.227C1402.48 403.133 1405.21 406.453 1408.73 409.188C1412.37 411.792 1416.67 413.81 1421.62 415.242C1426.57 416.544 1432.03 417.195 1438.02 417.195ZM1585.48 138.094H1651.11V408.406H1681.58V442H1585.48V408.406H1614.78V171.688H1585.48V138.094ZM1751.5 345.516C1751.5 351.245 1751.89 356.518 1752.67 361.336C1753.58 366.023 1754.82 370.516 1756.38 374.812C1761.2 387.833 1768.88 397.664 1779.43 404.305C1790.11 410.815 1802.15 414.07 1815.56 414.07C1826.11 414.07 1836.33 412.638 1846.23 409.773C1856.25 406.779 1866.73 402.156 1877.67 395.906L1892.32 420.711C1879.04 429.826 1865.69 436.596 1852.28 441.023C1838.87 445.451 1824.94 447.664 1810.48 447.664C1796.81 447.664 1784.12 445.385 1772.4 440.828C1760.81 436.271 1750.78 429.5 1742.32 420.516C1733.99 411.531 1727.41 400.333 1722.59 386.922C1717.91 373.51 1715.56 357.885 1715.56 340.047C1715.56 325.594 1717.58 311.987 1721.62 299.227C1725.65 286.336 1731.64 275.138 1739.59 265.633C1747.66 255.997 1757.62 248.38 1769.47 242.781C1781.32 237.182 1795.12 234.383 1810.88 234.383C1826.11 234.383 1838.8 236.727 1848.96 241.414C1859.25 245.971 1867.58 252.091 1873.96 259.773C1880.47 267.326 1885.35 275.984 1888.61 285.75C1891.99 295.516 1894.34 305.477 1895.64 315.633C1896.29 320.581 1896.68 325.594 1896.81 330.672C1897.07 335.75 1897.2 340.698 1897.2 345.516H1751.5ZM1808.34 264.852C1799.87 264.852 1792.45 266.089 1786.07 268.562C1779.82 270.906 1774.48 274.357 1770.05 278.914C1765.63 283.341 1762.05 288.81 1759.31 295.32C1756.71 301.831 1754.76 309.122 1753.45 317.195H1858.34C1857.82 309.643 1856.58 302.677 1854.62 296.297C1852.8 289.917 1849.94 284.383 1846.03 279.695C1842.12 275.008 1837.11 271.362 1830.99 268.758C1824.87 266.154 1817.32 264.852 1808.34 264.852Z" fill="#EFEEF8"/>
<path d="M1487.24 423.25C1479.56 430.411 1471.03 436.271 1461.66 440.828C1452.41 445.385 1441.86 447.664 1430.02 447.664C1420.12 447.664 1411.01 446.102 1402.67 442.977C1394.47 439.852 1387.37 435.62 1381.38 430.281C1375.39 424.812 1370.71 418.497 1367.32 411.336C1364.07 404.174 1362.44 396.557 1362.44 388.484C1362.44 379.891 1363.67 372.273 1366.15 365.633C1368.75 358.992 1372.14 353.263 1376.3 348.445C1380.6 343.497 1385.55 339.396 1391.15 336.141C1396.88 332.755 1402.8 330.086 1408.92 328.133C1415.17 326.049 1421.49 324.617 1427.87 323.836C1434.38 322.924 1440.56 322.469 1446.42 322.469C1455.8 322.469 1463.67 322.794 1470.05 323.445C1476.43 323.966 1482.23 324.747 1487.44 325.789L1487.63 309.188C1487.63 302.026 1486.59 295.841 1484.51 290.633C1482.42 285.294 1479.49 280.932 1475.72 277.547C1471.94 274.031 1467.39 271.427 1462.05 269.734C1456.84 268.042 1450.98 267.195 1444.47 267.195C1438.35 267.195 1432.49 267.651 1426.89 268.562C1421.29 269.344 1416.02 270.451 1411.07 271.883C1406.25 273.185 1401.76 274.747 1397.59 276.57C1393.56 278.263 1390.11 280.086 1387.24 282.039L1375.33 256.844C1380.15 253.719 1385.42 250.854 1391.15 248.25C1396.88 245.516 1402.87 243.237 1409.12 241.414C1415.5 239.461 1421.94 237.964 1428.45 236.922C1435.09 235.75 1441.6 235.164 1447.98 235.164C1459.7 235.164 1470.25 236.596 1479.62 239.461C1489 242.195 1496.94 246.492 1503.45 252.352C1509.96 258.211 1514.98 265.698 1518.49 274.812C1522.01 283.797 1523.77 294.604 1523.77 307.234L1523.57 408.406H1546.03V442H1487.24V423.25ZM1438.02 417.195C1442.84 417.195 1447.66 416.609 1452.48 415.438C1457.29 414.266 1461.85 412.703 1466.15 410.75C1470.45 408.667 1474.42 406.323 1478.06 403.719C1481.71 400.984 1484.77 398.185 1487.24 395.32L1487.44 349.617H1445.25C1438.22 349.617 1431.77 350.398 1425.91 351.961C1420.18 353.523 1415.17 355.802 1410.88 358.797C1406.71 361.792 1403.45 365.503 1401.11 369.93C1398.77 374.357 1397.59 379.435 1397.59 385.164C1397.59 390.503 1398.57 395.19 1400.52 399.227C1402.48 403.133 1405.21 406.453 1408.73 409.188C1412.37 411.792 1416.67 413.81 1421.62 415.242C1426.57 416.544 1432.03 417.195 1438.02 417.195ZM1585.48 138.094H1651.11V408.406H1681.58V442H1585.48V408.406H1614.78V171.688H1585.48V138.094ZM1751.5 345.516C1751.5 351.245 1751.89 356.518 1752.67 361.336C1753.58 366.023 1754.82 370.516 1756.38 374.812C1761.2 387.833 1768.88 397.664 1779.43 404.305C1790.11 410.815 1802.15 414.07 1815.56 414.07C1826.11 414.07 1836.33 412.638 1846.23 409.773C1856.25 406.779 1866.73 402.156 1877.67 395.906L1892.32 420.711C1879.04 429.826 1865.69 436.596 1852.28 441.023C1838.87 445.451 1824.94 447.664 1810.48 447.664C1796.81 447.664 1784.12 445.385 1772.4 440.828C1760.81 436.271 1750.78 429.5 1742.32 420.516C1733.99 411.531 1727.41 400.333 1722.59 386.922C1717.91 373.51 1715.56 357.885 1715.56 340.047C1715.56 325.594 1717.58 311.987 1721.62 299.227C1725.65 286.336 1731.64 275.138 1739.59 265.633C1747.66 255.997 1757.62 248.38 1769.47 242.781C1781.32 237.182 1795.12 234.383 1810.88 234.383C1826.11 234.383 1838.8 236.727 1848.96 241.414C1859.25 245.971 1867.58 252.091 1873.96 259.773C1880.47 267.326 1885.35 275.984 1888.61 285.75C1891.99 295.516 1894.34 305.477 1895.64 315.633C1896.29 320.581 1896.68 325.594 1896.81 330.672C1897.07 335.75 1897.2 340.698 1897.2 345.516H1751.5ZM1808.34 264.852C1799.87 264.852 1792.45 266.089 1786.07 268.562C1779.82 270.906 1774.48 274.357 1770.05 278.914C1765.63 283.341 1762.05 288.81 1759.31 295.32C1756.71 301.831 1754.76 309.122 1753.45 317.195H1858.34C1857.82 309.643 1856.58 302.677 1854.62 296.297C1852.8 289.917 1849.94 284.383 1846.03 279.695C1842.12 275.008 1837.11 271.362 1830.99 268.758C1824.87 266.154 1817.32 264.852 1808.34 264.852Z" fill="url(#paint1_linear)"/>
<defs>
<linearGradient id="paint0_linear" x1="1958.74" y1="399.787" x2="-158.124" y2="385.948" gradientUnits="userSpaceOnUse">
<stop stop-color="white" stop-opacity="0"/>
<stop offset="1" stop-color="#4B27A5"/>
</linearGradient>
<linearGradient id="paint1_linear" x1="1958.74" y1="399.787" x2="-158.124" y2="385.948" gradientUnits="userSpaceOnUse">
<stop stop-color="white" stop-opacity="0"/>
<stop offset="1" stop-color="#4B27A5"/>
</linearGradient>
<clipPath id="clip0">
<rect width="738.323" height="599.618" fill="white"/>
</clipPath>
</defs>
</svg>
