<svg width="1672" height="564" viewBox="0 0 1672 564" fill="none" xmlns="http://www.w3.org/2000/svg">
<g clip-path="url(#clip0)">
<line x1="1672" y1="463" x2="472" y2="463" stroke="#07004D" stroke-width="18"/>
<g clip-path="url(#clip1)">
<path d="M296.535 449.267C296.966 450.969 296.898 452.858 296.139 454.633C295.076 457.147 292.923 458.871 290.462 459.494C288.758 459.925 286.923 459.843 285.183 459.104C282.771 458.104 280.4 457.034 278.055 455.958C233.906 435.821 198.937 404.987 176.554 366.362C174.249 362.37 175.601 357.251 179.62 354.938C183.579 352.612 188.732 353.985 191.038 357.977C209.087 389.151 236.201 414.866 270.167 433.321L270.439 433.482C274.409 435.642 278.503 437.714 282.683 439.678C285.623 441.063 288.639 442.401 291.667 443.678C294.174 444.712 295.892 446.838 296.535 449.267Z" fill="#07004D"/>
<path d="M676.361 184.721C676.573 185.559 676.779 186.371 676.964 187.216C690.87 245.34 677.373 306.743 638.854 360.467C600.105 414.536 540.878 453.873 472.128 471.274C444.567 478.249 416.536 481.43 388.676 480.739C387.148 480.723 385.613 480.681 384.068 480.611C381.308 480.504 378.928 479.062 377.502 476.949C376.51 475.53 375.95 473.773 376.025 471.912C376.089 470.571 376.464 469.325 377.078 468.221C377.421 467.76 377.757 467.272 378.068 466.79C379.666 464.918 382.085 463.787 384.731 463.895C389.732 464.098 394.726 464.157 399.711 464.074C422.548 463.791 445.464 460.755 468.02 455.045C602.492 421.011 688.672 301.582 660.134 188.828C658.998 184.338 657.713 179.944 656.218 175.633C654.41 170.191 652.344 164.87 650.001 159.709C607.794 65.3785 486.915 15.0774 364.506 46.0593C282.098 66.9168 214.624 120.744 184.004 189.994C182.143 194.235 177.189 196.151 172.974 194.281C168.726 192.392 166.817 187.466 168.679 183.224C201.397 109.3 273.04 51.9415 360.398 29.831C429.149 12.4301 499.965 18.8837 559.763 47.9796C620.058 77.3267 661.473 125.896 676.361 184.721Z" fill="#07004D"/>
<path d="M669.992 164.894C670.741 169.453 667.656 173.745 663.07 174.503C660.749 174.888 658.485 175.26 656.219 175.631C483.183 204.434 478.864 221.931 459.051 302.259C452.871 327.42 445.247 358.244 431.075 396.855C429.813 400.281 428.504 403.749 427.128 407.293C418.928 428.563 409.794 447.508 399.712 464.074C396.164 469.951 392.471 475.492 388.677 480.739C384.519 486.597 380.178 492.071 375.68 497.151C359.259 515.955 340.948 529.8 320.836 538.573C313.951 541.611 307.21 543.863 300.747 545.499C263.748 554.863 235.684 544.038 234.31 543.495L222.921 538.981L231.271 530.018C257.234 502.179 270.929 476.583 278.055 455.957C279.933 450.532 281.355 445.453 282.436 440.748C282.517 440.383 282.603 440.044 282.684 439.679C283.051 437.944 283.378 436.279 283.684 434.648C286.784 416.998 284.812 406.361 284.778 406.11C283.864 401.593 286.714 397.159 291.26 396.24C295.769 395.299 300.174 398.157 301.135 402.632C301.362 403.755 303.759 415.725 300.743 435.078C300.026 439.634 299.011 444.61 297.592 449.919C291.757 471.888 279.159 499.998 252.819 531.01C266.177 533.299 289.083 534.322 314.498 523.084C331.373 515.618 346.969 504.015 361.133 488.343C364.896 484.225 368.531 479.823 372.09 475.124C373.768 472.887 375.433 470.595 377.078 468.221C377.421 467.76 377.758 467.272 378.068 466.791C389.38 450.315 399.629 430.771 408.732 408.293C409.671 405.984 410.578 403.653 411.506 401.289C427.893 358.693 436.157 325.177 442.811 298.253C453.351 255.526 460.306 227.29 489.786 206.302C516.196 187.503 558.631 175.064 650.002 159.709C653.396 159.137 656.846 158.551 660.382 157.973C664.947 157.25 669.24 160.336 669.992 164.894Z" fill="#07004D"/>
<g opacity="0.25">
<g opacity="0.25">
<path opacity="0.25" d="M283.684 434.648C289.396 435.044 295.073 435.19 300.742 435.078C300.026 439.634 299.012 444.61 297.592 449.919L296.535 449.267L282.436 440.748L270.439 433.482C274.409 435.643 278.502 437.714 282.684 439.679C283.051 437.944 283.378 436.279 283.684 434.648Z" fill="#0071BC"/>
</g>
</g>
<g opacity="0.25">
<g opacity="0.25">
<path opacity="0.25" d="M676.964 187.216C690.87 245.34 677.374 306.743 638.853 360.467C600.104 414.536 540.878 453.873 472.128 471.273C444.568 478.249 416.537 481.429 388.677 480.739L377.501 476.949L372.091 475.125C373.768 472.886 375.432 470.594 377.078 468.221C377.421 467.761 377.758 467.273 378.068 466.791C389.38 450.315 399.629 430.771 408.732 408.293C416.292 404.74 423.731 400.929 431.076 396.854C561.097 324.662 656.219 175.632 656.219 175.632L676.964 187.216Z" fill="#7150FF"/>
<path opacity="0.25" d="M676.964 187.216C690.87 245.34 677.374 306.743 638.853 360.467C600.104 414.536 540.878 453.873 472.128 471.273C444.568 478.249 416.537 481.429 388.677 480.739L377.501 476.949L372.091 475.125C373.768 472.886 375.432 470.594 377.078 468.221C377.421 467.761 377.758 467.273 378.068 466.791C389.38 450.315 399.629 430.771 408.732 408.293C416.292 404.74 423.731 400.929 431.076 396.854C561.097 324.662 656.219 175.632 656.219 175.632L676.964 187.216Z" fill="#7150FF"/>
<path opacity="0.25" d="M676.964 187.216C690.87 245.34 677.374 306.743 638.853 360.467C600.104 414.536 540.878 453.873 472.128 471.273C444.568 478.249 416.537 481.429 388.677 480.739L377.501 476.949L372.091 475.125C373.768 472.886 375.432 470.594 377.078 468.221C377.421 467.761 377.758 467.273 378.068 466.791C389.38 450.315 399.629 430.771 408.732 408.293C416.292 404.74 423.731 400.929 431.076 396.854C561.097 324.662 656.219 175.632 656.219 175.632L676.964 187.216Z" fill="#7150FF"/>
<path opacity="0.25" d="M676.964 187.216C690.87 245.34 677.374 306.743 638.853 360.467C600.104 414.536 540.878 453.873 472.128 471.273C444.568 478.249 416.537 481.429 388.677 480.739L377.501 476.949L372.091 475.125C373.768 472.886 375.432 470.594 377.078 468.221C377.421 467.761 377.758 467.273 378.068 466.791C389.38 450.315 399.629 430.771 408.732 408.293C416.292 404.74 423.731 400.929 431.076 396.854C561.097 324.662 656.219 175.632 656.219 175.632L676.964 187.216Z" fill="#7150FF"/>
<path opacity="0.25" d="M676.964 187.216C690.87 245.34 677.374 306.743 638.853 360.467C600.104 414.536 540.878 453.873 472.128 471.273C444.568 478.249 416.537 481.429 388.677 480.739L377.501 476.949L372.091 475.125C373.768 472.886 375.432 470.594 377.078 468.221C377.421 467.761 377.758 467.273 378.068 466.791C389.38 450.315 399.629 430.771 408.732 408.293C416.292 404.74 423.731 400.929 431.076 396.854C561.097 324.662 656.219 175.632 656.219 175.632L676.964 187.216Z" fill="#7150FF"/>
<path opacity="0.25" d="M676.964 187.216C690.87 245.34 677.374 306.743 638.853 360.467C600.104 414.536 540.878 453.873 472.128 471.273C444.568 478.249 416.537 481.429 388.677 480.739L377.501 476.949L372.091 475.125C373.768 472.886 375.432 470.594 377.078 468.221C377.421 467.761 377.758 467.273 378.068 466.791C389.38 450.315 399.629 430.771 408.732 408.293C416.292 404.74 423.731 400.929 431.076 396.854C561.097 324.662 656.219 175.632 656.219 175.632L676.964 187.216Z" fill="#7150FF"/>
<path opacity="0.25" d="M676.964 187.216C690.87 245.34 677.374 306.743 638.853 360.467C600.104 414.536 540.878 453.873 472.128 471.273C444.568 478.249 416.537 481.429 388.677 480.739L377.501 476.949L372.091 475.125C373.768 472.886 375.432 470.594 377.078 468.221C377.421 467.761 377.758 467.273 378.068 466.791C389.38 450.315 399.629 430.771 408.732 408.293C416.292 404.74 423.731 400.929 431.076 396.854C561.097 324.662 656.219 175.632 656.219 175.632L676.964 187.216Z" fill="#7150FF"/>
<path opacity="0.25" d="M676.964 187.216C690.87 245.34 677.374 306.743 638.853 360.467C600.104 414.536 540.878 453.873 472.128 471.273C444.568 478.249 416.537 481.429 388.677 480.739L377.501 476.949L372.091 475.125C373.768 472.886 375.432 470.594 377.078 468.221C377.421 467.761 377.758 467.273 378.068 466.791C389.38 450.315 399.629 430.771 408.732 408.293C416.292 404.74 423.731 400.929 431.076 396.854C561.097 324.662 656.219 175.632 656.219 175.632L676.964 187.216Z" fill="#7150FF"/>
<path opacity="0.25" d="M676.964 187.216C690.87 245.34 677.374 306.743 638.853 360.467C600.104 414.536 540.878 453.873 472.128 471.273C444.568 478.249 416.537 481.429 388.677 480.739L377.501 476.949L372.091 475.125C373.768 472.886 375.432 470.594 377.078 468.221C377.421 467.761 377.758 467.273 378.068 466.791C389.38 450.315 399.629 430.771 408.732 408.293C416.292 404.74 423.731 400.929 431.076 396.854C561.097 324.662 656.219 175.632 656.219 175.632L676.964 187.216Z" fill="#7150FF"/>
<path opacity="0.25" d="M676.964 187.216C690.87 245.34 677.374 306.743 638.853 360.467C600.104 414.536 540.878 453.873 472.128 471.273C444.568 478.249 416.537 481.429 388.677 480.739L377.501 476.949L372.091 475.125C373.768 472.886 375.432 470.594 377.078 468.221C377.421 467.761 377.758 467.273 378.068 466.791C389.38 450.315 399.629 430.771 408.732 408.293C416.292 404.74 423.731 400.929 431.076 396.854C561.097 324.662 656.219 175.632 656.219 175.632L676.964 187.216Z" fill="#7150FF"/>
<path opacity="0.25" d="M676.964 187.216C690.87 245.34 677.374 306.743 638.853 360.467C600.104 414.536 540.878 453.873 472.128 471.273C444.568 478.249 416.537 481.429 388.677 480.739L377.501 476.949L372.091 475.125C373.768 472.886 375.432 470.594 377.078 468.221C377.421 467.761 377.758 467.273 378.068 466.791C389.38 450.315 399.629 430.771 408.732 408.293C416.292 404.74 423.731 400.929 431.076 396.854C561.097 324.662 656.219 175.632 656.219 175.632L676.964 187.216Z" fill="#7150FF"/>
<path opacity="0.25" d="M676.964 187.216C690.87 245.34 677.374 306.743 638.853 360.467C600.104 414.536 540.878 453.873 472.128 471.273C444.568 478.249 416.537 481.429 388.677 480.739L377.501 476.949L372.091 475.125C373.768 472.886 375.432 470.594 377.078 468.221C377.421 467.761 377.758 467.273 378.068 466.791C389.38 450.315 399.629 430.771 408.732 408.293C416.292 404.74 423.731 400.929 431.076 396.854C561.097 324.662 656.219 175.632 656.219 175.632L676.964 187.216Z" fill="#7150FF"/>
<path opacity="0.25" d="M676.964 187.216C690.87 245.34 677.374 306.743 638.853 360.467C600.104 414.536 540.878 453.873 472.128 471.273C444.568 478.249 416.537 481.429 388.677 480.739L377.501 476.949L372.091 475.125C373.768 472.886 375.432 470.594 377.078 468.221C377.421 467.761 377.758 467.273 378.068 466.791C389.38 450.315 399.629 430.771 408.732 408.293C416.292 404.74 423.731 400.929 431.076 396.854C561.097 324.662 656.219 175.632 656.219 175.632L676.964 187.216Z" fill="#7150FF"/>
</g>
</g>
<g opacity="0.25">
<g opacity="0.25">
<path opacity="0.25" d="M676.964 187.216C690.87 245.34 677.374 306.743 638.853 360.467C600.104 414.536 540.878 453.873 472.128 471.273C444.568 478.249 416.537 481.429 388.677 480.739L377.501 476.949L372.091 475.125C373.768 472.886 375.432 470.594 377.078 468.221C377.421 467.761 377.758 467.273 378.068 466.791C389.38 450.315 399.629 430.771 408.732 408.293C416.292 404.74 423.731 400.929 431.076 396.854C561.097 324.662 656.219 175.632 656.219 175.632L676.964 187.216Z" fill="#7150FF"/>
<path opacity="0.25" d="M676.964 187.216C690.87 245.34 677.374 306.743 638.853 360.467C600.104 414.536 540.878 453.873 472.128 471.273C444.568 478.249 416.537 481.429 388.677 480.739L377.501 476.949L372.091 475.125C373.768 472.886 375.432 470.594 377.078 468.221C377.421 467.761 377.758 467.273 378.068 466.791C389.38 450.315 399.629 430.771 408.732 408.293C416.292 404.74 423.731 400.929 431.076 396.854C561.097 324.662 656.219 175.632 656.219 175.632L676.964 187.216Z" fill="#7150FF"/>
<path opacity="0.25" d="M676.964 187.216C690.87 245.34 677.374 306.743 638.853 360.467C600.104 414.536 540.878 453.873 472.128 471.273C444.568 478.249 416.537 481.429 388.677 480.739L377.501 476.949L372.091 475.125C373.768 472.886 375.432 470.594 377.078 468.221C377.421 467.761 377.758 467.273 378.068 466.791C389.38 450.315 399.629 430.771 408.732 408.293C416.292 404.74 423.731 400.929 431.076 396.854C561.097 324.662 656.219 175.632 656.219 175.632L676.964 187.216Z" fill="#7150FF"/>
<path opacity="0.25" d="M676.964 187.216C690.87 245.34 677.374 306.743 638.853 360.467C600.104 414.536 540.878 453.873 472.128 471.273C444.568 478.249 416.537 481.429 388.677 480.739L377.501 476.949L372.091 475.125C373.768 472.886 375.432 470.594 377.078 468.221C377.421 467.761 377.758 467.273 378.068 466.791C389.38 450.315 399.629 430.771 408.732 408.293C416.292 404.74 423.731 400.929 431.076 396.854C561.097 324.662 656.219 175.632 656.219 175.632L676.964 187.216Z" fill="#7150FF"/>
<path opacity="0.25" d="M676.964 187.216C690.87 245.34 677.374 306.743 638.853 360.467C600.104 414.536 540.878 453.873 472.128 471.273C444.568 478.249 416.537 481.429 388.677 480.739L377.501 476.949L372.091 475.125C373.768 472.886 375.432 470.594 377.078 468.221C377.421 467.761 377.758 467.273 378.068 466.791C389.38 450.315 399.629 430.771 408.732 408.293C416.292 404.74 423.731 400.929 431.076 396.854C561.097 324.662 656.219 175.632 656.219 175.632L676.964 187.216Z" fill="#7150FF"/>
<path opacity="0.25" d="M676.964 187.216C690.87 245.34 677.374 306.743 638.853 360.467C600.104 414.536 540.878 453.873 472.128 471.273C444.568 478.249 416.537 481.429 388.677 480.739L377.501 476.949L372.091 475.125C373.768 472.886 375.432 470.594 377.078 468.221C377.421 467.761 377.758 467.273 378.068 466.791C389.38 450.315 399.629 430.771 408.732 408.293C416.292 404.74 423.731 400.929 431.076 396.854C561.097 324.662 656.219 175.632 656.219 175.632L676.964 187.216Z" fill="#7150FF"/>
<path opacity="0.25" d="M676.964 187.216C690.87 245.34 677.374 306.743 638.853 360.467C600.104 414.536 540.878 453.873 472.128 471.273C444.568 478.249 416.537 481.429 388.677 480.739L377.501 476.949L372.091 475.125C373.768 472.886 375.432 470.594 377.078 468.221C377.421 467.761 377.758 467.273 378.068 466.791C389.38 450.315 399.629 430.771 408.732 408.293C416.292 404.74 423.731 400.929 431.076 396.854C561.097 324.662 656.219 175.632 656.219 175.632L676.964 187.216Z" fill="#7150FF"/>
<path opacity="0.25" d="M676.964 187.216C690.87 245.34 677.374 306.743 638.853 360.467C600.104 414.536 540.878 453.873 472.128 471.273C444.568 478.249 416.537 481.429 388.677 480.739L377.501 476.949L372.091 475.125C373.768 472.886 375.432 470.594 377.078 468.221C377.421 467.761 377.758 467.273 378.068 466.791C389.38 450.315 399.629 430.771 408.732 408.293C416.292 404.74 423.731 400.929 431.076 396.854C561.097 324.662 656.219 175.632 656.219 175.632L676.964 187.216Z" fill="#7150FF"/>
<path opacity="0.25" d="M676.964 187.216C690.87 245.34 677.374 306.743 638.853 360.467C600.104 414.536 540.878 453.873 472.128 471.273C444.568 478.249 416.537 481.429 388.677 480.739L377.501 476.949L372.091 475.125C373.768 472.886 375.432 470.594 377.078 468.221C377.421 467.761 377.758 467.273 378.068 466.791C389.38 450.315 399.629 430.771 408.732 408.293C416.292 404.74 423.731 400.929 431.076 396.854C561.097 324.662 656.219 175.632 656.219 175.632L676.964 187.216Z" fill="#7150FF"/>
<path opacity="0.25" d="M676.964 187.216C690.87 245.34 677.374 306.743 638.853 360.467C600.104 414.536 540.878 453.873 472.128 471.273C444.568 478.249 416.537 481.429 388.677 480.739L377.501 476.949L372.091 475.125C373.768 472.886 375.432 470.594 377.078 468.221C377.421 467.761 377.758 467.273 378.068 466.791C389.38 450.315 399.629 430.771 408.732 408.293C416.292 404.74 423.731 400.929 431.076 396.854C561.097 324.662 656.219 175.632 656.219 175.632L676.964 187.216Z" fill="#7150FF"/>
<path opacity="0.25" d="M676.964 187.216C690.87 245.34 677.374 306.743 638.853 360.467C600.104 414.536 540.878 453.873 472.128 471.273C444.568 478.249 416.537 481.429 388.677 480.739L377.501 476.949L372.091 475.125C373.768 472.886 375.432 470.594 377.078 468.221C377.421 467.761 377.758 467.273 378.068 466.791C389.38 450.315 399.629 430.771 408.732 408.293C416.292 404.74 423.731 400.929 431.076 396.854C561.097 324.662 656.219 175.632 656.219 175.632L676.964 187.216Z" fill="#7150FF"/>
<path opacity="0.25" d="M676.964 187.216C690.87 245.34 677.374 306.743 638.853 360.467C600.104 414.536 540.878 453.873 472.128 471.273C444.568 478.249 416.537 481.429 388.677 480.739L377.501 476.949L372.091 475.125C373.768 472.886 375.432 470.594 377.078 468.221C377.421 467.761 377.758 467.273 378.068 466.791C389.38 450.315 399.629 430.771 408.732 408.293C416.292 404.74 423.731 400.929 431.076 396.854C561.097 324.662 656.219 175.632 656.219 175.632L676.964 187.216Z" fill="#7150FF"/>
<path opacity="0.25" d="M676.964 187.216C690.87 245.34 677.374 306.743 638.853 360.467C600.104 414.536 540.878 453.873 472.128 471.273C444.568 478.249 416.537 481.429 388.677 480.739L377.501 476.949L372.091 475.125C373.768 472.886 375.432 470.594 377.078 468.221C377.421 467.761 377.758 467.273 378.068 466.791C389.38 450.315 399.629 430.771 408.732 408.293C416.292 404.74 423.731 400.929 431.076 396.854C561.097 324.662 656.219 175.632 656.219 175.632L676.964 187.216Z" fill="#7150FF"/>
</g>
</g>
<path d="M392.124 230.264C395.555 243.818 387.327 257.624 373.771 261.055C360.218 264.485 346.413 256.256 342.982 242.702C339.552 229.148 347.78 215.342 361.333 211.912C363.341 211.404 365.368 211.153 367.326 211.135C362.069 214.473 359.261 220.935 360.867 227.281C362.868 235.185 370.923 239.986 378.827 237.986C385.173 236.38 389.523 230.835 389.956 224.625C390.874 226.354 391.616 228.257 392.124 230.264Z" fill="#07004D"/>
<path d="M15 120.488C35.1486 164.614 91.7568 254.99 157 263.488" stroke="#4B27A5" stroke-width="30" stroke-linejoin="round"/>
<path d="M14 406.488C34.1486 362.671 90.7568 272.927 156 264.488" stroke="#4B27A5" stroke-width="30" stroke-linejoin="round"/>
</g>
<path d="M799.055 157.93C799.055 154.902 800.064 152.38 802.082 150.361C804.302 148.141 806.926 147.031 809.953 147.031H820.246C823.273 147.031 825.695 148.04 827.512 150.059C829.53 152.077 830.64 154.701 830.842 157.93L835.988 310.508L864.143 254.199C866.363 249.355 870.197 246.934 875.646 246.934H884.123C889.572 246.934 893.407 249.355 895.627 254.199L923.781 310.508L928.928 157.627C929.13 154.398 930.139 151.875 931.955 150.059C933.973 148.04 936.496 147.031 939.523 147.031H949.816C952.844 147.031 955.367 148.141 957.385 150.361C959.605 152.38 960.715 154.902 960.715 157.93L954.66 355.918C954.66 359.147 953.651 361.771 951.633 363.789C949.615 365.605 946.89 366.514 943.459 366.514H938.615C928.928 366.514 922.066 362.275 918.029 353.799L879.885 277.51L841.74 353.799C837.906 362.275 831.044 366.514 821.154 366.514H816.311C812.88 366.514 810.155 365.605 808.137 363.789C806.118 361.771 805.109 359.147 805.109 355.918L799.055 157.93ZM1112.99 147.031C1116.02 147.031 1118.54 148.04 1120.56 150.059C1122.58 151.875 1123.59 154.398 1123.59 157.627V354.404C1123.59 357.432 1122.58 359.954 1120.56 361.973C1118.74 363.991 1116.22 365 1112.99 365H1102.39C1099.37 365 1096.84 363.991 1094.83 361.973C1092.81 359.954 1091.8 357.432 1091.8 354.404V264.189H1016.42V354.404C1016.42 357.432 1015.41 359.954 1013.39 361.973C1011.57 363.991 1009.05 365 1005.82 365H995.227C992.199 365 989.676 363.991 987.658 361.973C985.64 359.954 984.631 357.432 984.631 354.404V157.627C984.631 154.6 985.64 152.077 987.658 150.059C989.676 148.04 992.199 147.031 995.227 147.031H1005.82C1009.05 147.031 1011.57 148.04 1013.39 150.059C1015.41 151.875 1016.42 154.398 1016.42 157.627V234.824H1091.8V157.627C1091.8 154.398 1092.81 151.875 1094.83 150.059C1096.84 148.04 1099.37 147.031 1102.39 147.031H1112.99ZM1152.95 365C1149.72 365 1147.2 364.193 1145.38 362.578C1143.77 360.762 1142.96 358.441 1142.96 355.615C1142.96 354.404 1143.06 353.496 1143.26 352.891L1188.07 173.066C1190.49 164.186 1195.33 157.122 1202.6 151.875C1209.87 146.628 1218.44 144.004 1228.33 144.004C1238.42 144.004 1247 146.628 1254.06 151.875C1261.33 157.122 1266.07 164.287 1268.29 173.369L1313.1 352.588C1313.3 353.395 1313.4 354.505 1313.4 355.918C1313.4 358.542 1312.49 360.762 1310.68 362.578C1309.06 364.193 1306.74 365 1303.71 365H1292.81C1286.76 365 1282.93 361.973 1281.31 355.918L1267.08 298.398H1189.58L1175.05 355.918C1174.45 358.743 1173.13 360.964 1171.12 362.578C1169.1 364.193 1166.57 365 1163.55 365H1152.95ZM1259.82 269.336L1237.11 178.818C1236.71 177.204 1235.7 175.892 1234.08 174.883C1232.47 173.672 1230.55 173.066 1228.33 173.066C1226.11 173.066 1224.19 173.672 1222.58 174.883C1220.97 175.892 1219.96 177.204 1219.55 178.818L1196.85 269.336H1259.82ZM1475.36 335.635C1478.39 335.635 1480.91 336.644 1482.93 338.662C1484.95 340.68 1485.96 343.203 1485.96 346.23V354.404C1485.96 357.432 1484.95 359.954 1482.93 361.973C1480.91 363.991 1478.39 365 1475.36 365H1348.52C1345.49 365 1342.97 363.991 1340.95 361.973C1338.93 359.954 1337.92 357.432 1337.92 354.404V157.627C1337.92 154.6 1338.93 152.077 1340.95 150.059C1342.97 148.04 1345.49 147.031 1348.52 147.031H1359.11C1362.34 147.031 1364.87 148.04 1366.68 150.059C1368.7 151.875 1369.71 154.398 1369.71 157.627V335.635H1475.36ZM1637.93 335.635C1640.96 335.635 1643.48 336.644 1645.5 338.662C1647.52 340.68 1648.53 343.203 1648.53 346.23V354.404C1648.53 357.432 1647.52 359.954 1645.5 361.973C1643.48 363.991 1640.96 365 1637.93 365H1522.59C1519.56 365 1517.04 363.991 1515.02 361.973C1513 359.954 1511.99 357.432 1511.99 354.404V157.627C1511.99 154.6 1513 152.077 1515.02 150.059C1517.04 148.04 1519.56 147.031 1522.59 147.031H1631.27C1634.3 147.031 1636.82 148.04 1638.84 150.059C1640.86 151.875 1641.87 154.398 1641.87 157.627V165.498C1641.87 168.727 1640.86 171.351 1638.84 173.369C1636.82 175.186 1634.3 176.094 1631.27 176.094H1543.78V236.943H1624.91C1627.94 236.943 1630.46 237.952 1632.48 239.971C1634.5 241.989 1635.51 244.512 1635.51 247.539V255.713C1635.51 258.74 1634.5 261.263 1632.48 263.281C1630.46 265.299 1627.94 266.309 1624.91 266.309H1543.78V335.635H1637.93Z" fill="#07004D"/>
</g>
<defs>
<clipPath id="clip0">
<rect width="1672" height="564" fill="white"/>
</clipPath>
<clipPath id="clip1">
<rect width="738.323" height="599.618" fill="white" transform="translate(0 -36)"/>
</clipPath>
</defs>
</svg>
