<svg width="1647" height="600" viewBox="0 0 1647 600" fill="none" xmlns="http://www.w3.org/2000/svg">
<g clip-path="url(#clip0)">
<path d="M296.535 485.267C296.966 486.969 296.898 488.858 296.139 490.633C295.076 493.147 292.923 494.871 290.462 495.494C288.758 495.925 286.923 495.843 285.183 495.104C282.771 494.104 280.4 493.034 278.055 491.958C233.906 471.821 198.937 440.987 176.554 402.362C174.249 398.37 175.601 393.251 179.62 390.938C183.579 388.612 188.732 389.985 191.038 393.977C209.087 425.151 236.201 450.866 270.167 469.321L270.439 469.482C274.409 471.642 278.503 473.714 282.683 475.678C285.623 477.063 288.639 478.401 291.667 479.678C294.174 480.712 295.892 482.838 296.535 485.267Z" fill="#07004D"/>
<path d="M676.361 220.721C676.573 221.559 676.779 222.371 676.964 223.216C690.87 281.34 677.373 342.743 638.854 396.467C600.105 450.536 540.878 489.873 472.128 507.274C444.567 514.249 416.536 517.43 388.676 516.739C387.148 516.723 385.613 516.681 384.068 516.611C381.308 516.504 378.928 515.062 377.502 512.949C376.51 511.53 375.95 509.773 376.025 507.912C376.089 506.571 376.464 505.325 377.078 504.221C377.421 503.76 377.757 503.272 378.068 502.79C379.666 500.918 382.085 499.787 384.731 499.895C389.732 500.098 394.726 500.157 399.711 500.074C422.548 499.791 445.464 496.755 468.02 491.045C602.492 457.011 688.672 337.582 660.134 224.828C658.998 220.338 657.713 215.944 656.218 211.633C654.41 206.191 652.344 200.87 650.001 195.709C607.794 101.379 486.915 51.0774 364.506 82.0593C282.098 102.917 214.624 156.744 184.004 225.994C182.143 230.235 177.189 232.151 172.974 230.281C168.726 228.392 166.817 223.466 168.679 219.224C201.397 145.3 273.04 87.9415 360.398 65.831C429.149 48.4301 499.965 54.8837 559.763 83.9796C620.058 113.327 661.473 161.896 676.361 220.721Z" fill="#07004D"/>
<path d="M669.992 200.894C670.741 205.453 667.656 209.745 663.07 210.503C660.749 210.888 658.485 211.26 656.219 211.631C483.183 240.434 478.864 257.931 459.051 338.259C452.871 363.42 445.247 394.244 431.075 432.855C429.813 436.281 428.504 439.749 427.128 443.293C418.928 464.563 409.794 483.508 399.712 500.074C396.164 505.951 392.471 511.492 388.677 516.739C384.519 522.597 380.178 528.071 375.68 533.151C359.259 551.955 340.948 565.8 320.836 574.573C313.951 577.611 307.21 579.863 300.747 581.499C263.748 590.863 235.684 580.038 234.31 579.495L222.921 574.981L231.271 566.018C257.234 538.179 270.929 512.583 278.055 491.957C279.933 486.532 281.355 481.453 282.436 476.748C282.517 476.383 282.603 476.044 282.684 475.679C283.051 473.944 283.378 472.279 283.684 470.648C286.784 452.998 284.812 442.361 284.778 442.11C283.864 437.593 286.714 433.159 291.26 432.24C295.769 431.299 300.174 434.157 301.135 438.632C301.362 439.755 303.759 451.725 300.743 471.078C300.026 475.634 299.011 480.61 297.592 485.919C291.757 507.888 279.159 535.998 252.819 567.01C266.177 569.299 289.083 570.322 314.498 559.084C331.373 551.618 346.969 540.015 361.133 524.343C364.896 520.225 368.531 515.823 372.09 511.124C373.768 508.887 375.433 506.595 377.078 504.221C377.421 503.76 377.758 503.272 378.068 502.791C389.38 486.315 399.629 466.771 408.732 444.293C409.671 441.984 410.578 439.653 411.506 437.289C427.893 394.693 436.157 361.177 442.811 334.253C453.351 291.526 460.306 263.29 489.786 242.302C516.196 223.503 558.631 211.064 650.002 195.709C653.396 195.137 656.846 194.551 660.382 193.973C664.947 193.25 669.24 196.336 669.992 200.894Z" fill="#07004D"/>
<g opacity="0.25">
<g opacity="0.25">
<path opacity="0.25" d="M283.684 470.648C289.396 471.044 295.073 471.19 300.742 471.078C300.026 475.634 299.012 480.61 297.592 485.919L296.535 485.267L282.436 476.748L270.439 469.482C274.409 471.643 278.502 473.714 282.684 475.679C283.051 473.944 283.378 472.279 283.684 470.648Z" fill="#0071BC"/>
</g>
</g>
<g opacity="0.25">
<g opacity="0.25">
<path opacity="0.25" d="M676.964 223.216C690.87 281.34 677.374 342.743 638.853 396.467C600.104 450.536 540.878 489.873 472.128 507.273C444.568 514.249 416.537 517.429 388.677 516.739L377.501 512.949L372.091 511.125C373.768 508.886 375.432 506.594 377.078 504.221C377.421 503.761 377.758 503.273 378.068 502.791C389.38 486.315 399.629 466.771 408.732 444.293C416.292 440.74 423.731 436.929 431.076 432.854C561.097 360.662 656.219 211.632 656.219 211.632L676.964 223.216Z" fill="#7150FF"/>
<path opacity="0.25" d="M676.964 223.216C690.87 281.34 677.374 342.743 638.853 396.467C600.104 450.536 540.878 489.873 472.128 507.273C444.568 514.249 416.537 517.429 388.677 516.739L377.501 512.949L372.091 511.125C373.768 508.886 375.432 506.594 377.078 504.221C377.421 503.761 377.758 503.273 378.068 502.791C389.38 486.315 399.629 466.771 408.732 444.293C416.292 440.74 423.731 436.929 431.076 432.854C561.097 360.662 656.219 211.632 656.219 211.632L676.964 223.216Z" fill="#7150FF"/>
<path opacity="0.25" d="M676.964 223.216C690.87 281.34 677.374 342.743 638.853 396.467C600.104 450.536 540.878 489.873 472.128 507.273C444.568 514.249 416.537 517.429 388.677 516.739L377.501 512.949L372.091 511.125C373.768 508.886 375.432 506.594 377.078 504.221C377.421 503.761 377.758 503.273 378.068 502.791C389.38 486.315 399.629 466.771 408.732 444.293C416.292 440.74 423.731 436.929 431.076 432.854C561.097 360.662 656.219 211.632 656.219 211.632L676.964 223.216Z" fill="#7150FF"/>
<path opacity="0.25" d="M676.964 223.216C690.87 281.34 677.374 342.743 638.853 396.467C600.104 450.536 540.878 489.873 472.128 507.273C444.568 514.249 416.537 517.429 388.677 516.739L377.501 512.949L372.091 511.125C373.768 508.886 375.432 506.594 377.078 504.221C377.421 503.761 377.758 503.273 378.068 502.791C389.38 486.315 399.629 466.771 408.732 444.293C416.292 440.74 423.731 436.929 431.076 432.854C561.097 360.662 656.219 211.632 656.219 211.632L676.964 223.216Z" fill="#7150FF"/>
<path opacity="0.25" d="M676.964 223.216C690.87 281.34 677.374 342.743 638.853 396.467C600.104 450.536 540.878 489.873 472.128 507.273C444.568 514.249 416.537 517.429 388.677 516.739L377.501 512.949L372.091 511.125C373.768 508.886 375.432 506.594 377.078 504.221C377.421 503.761 377.758 503.273 378.068 502.791C389.38 486.315 399.629 466.771 408.732 444.293C416.292 440.74 423.731 436.929 431.076 432.854C561.097 360.662 656.219 211.632 656.219 211.632L676.964 223.216Z" fill="#7150FF"/>
<path opacity="0.25" d="M676.964 223.216C690.87 281.34 677.374 342.743 638.853 396.467C600.104 450.536 540.878 489.873 472.128 507.273C444.568 514.249 416.537 517.429 388.677 516.739L377.501 512.949L372.091 511.125C373.768 508.886 375.432 506.594 377.078 504.221C377.421 503.761 377.758 503.273 378.068 502.791C389.38 486.315 399.629 466.771 408.732 444.293C416.292 440.74 423.731 436.929 431.076 432.854C561.097 360.662 656.219 211.632 656.219 211.632L676.964 223.216Z" fill="#7150FF"/>
<path opacity="0.25" d="M676.964 223.216C690.87 281.34 677.374 342.743 638.853 396.467C600.104 450.536 540.878 489.873 472.128 507.273C444.568 514.249 416.537 517.429 388.677 516.739L377.501 512.949L372.091 511.125C373.768 508.886 375.432 506.594 377.078 504.221C377.421 503.761 377.758 503.273 378.068 502.791C389.38 486.315 399.629 466.771 408.732 444.293C416.292 440.74 423.731 436.929 431.076 432.854C561.097 360.662 656.219 211.632 656.219 211.632L676.964 223.216Z" fill="#7150FF"/>
<path opacity="0.25" d="M676.964 223.216C690.87 281.34 677.374 342.743 638.853 396.467C600.104 450.536 540.878 489.873 472.128 507.273C444.568 514.249 416.537 517.429 388.677 516.739L377.501 512.949L372.091 511.125C373.768 508.886 375.432 506.594 377.078 504.221C377.421 503.761 377.758 503.273 378.068 502.791C389.38 486.315 399.629 466.771 408.732 444.293C416.292 440.74 423.731 436.929 431.076 432.854C561.097 360.662 656.219 211.632 656.219 211.632L676.964 223.216Z" fill="#7150FF"/>
<path opacity="0.25" d="M676.964 223.216C690.87 281.34 677.374 342.743 638.853 396.467C600.104 450.536 540.878 489.873 472.128 507.273C444.568 514.249 416.537 517.429 388.677 516.739L377.501 512.949L372.091 511.125C373.768 508.886 375.432 506.594 377.078 504.221C377.421 503.761 377.758 503.273 378.068 502.791C389.38 486.315 399.629 466.771 408.732 444.293C416.292 440.74 423.731 436.929 431.076 432.854C561.097 360.662 656.219 211.632 656.219 211.632L676.964 223.216Z" fill="#7150FF"/>
<path opacity="0.25" d="M676.964 223.216C690.87 281.34 677.374 342.743 638.853 396.467C600.104 450.536 540.878 489.873 472.128 507.273C444.568 514.249 416.537 517.429 388.677 516.739L377.501 512.949L372.091 511.125C373.768 508.886 375.432 506.594 377.078 504.221C377.421 503.761 377.758 503.273 378.068 502.791C389.38 486.315 399.629 466.771 408.732 444.293C416.292 440.74 423.731 436.929 431.076 432.854C561.097 360.662 656.219 211.632 656.219 211.632L676.964 223.216Z" fill="#7150FF"/>
<path opacity="0.25" d="M676.964 223.216C690.87 281.34 677.374 342.743 638.853 396.467C600.104 450.536 540.878 489.873 472.128 507.273C444.568 514.249 416.537 517.429 388.677 516.739L377.501 512.949L372.091 511.125C373.768 508.886 375.432 506.594 377.078 504.221C377.421 503.761 377.758 503.273 378.068 502.791C389.38 486.315 399.629 466.771 408.732 444.293C416.292 440.74 423.731 436.929 431.076 432.854C561.097 360.662 656.219 211.632 656.219 211.632L676.964 223.216Z" fill="#7150FF"/>
<path opacity="0.25" d="M676.964 223.216C690.87 281.34 677.374 342.743 638.853 396.467C600.104 450.536 540.878 489.873 472.128 507.273C444.568 514.249 416.537 517.429 388.677 516.739L377.501 512.949L372.091 511.125C373.768 508.886 375.432 506.594 377.078 504.221C377.421 503.761 377.758 503.273 378.068 502.791C389.38 486.315 399.629 466.771 408.732 444.293C416.292 440.74 423.731 436.929 431.076 432.854C561.097 360.662 656.219 211.632 656.219 211.632L676.964 223.216Z" fill="#7150FF"/>
<path opacity="0.25" d="M676.964 223.216C690.87 281.34 677.374 342.743 638.853 396.467C600.104 450.536 540.878 489.873 472.128 507.273C444.568 514.249 416.537 517.429 388.677 516.739L377.501 512.949L372.091 511.125C373.768 508.886 375.432 506.594 377.078 504.221C377.421 503.761 377.758 503.273 378.068 502.791C389.38 486.315 399.629 466.771 408.732 444.293C416.292 440.74 423.731 436.929 431.076 432.854C561.097 360.662 656.219 211.632 656.219 211.632L676.964 223.216Z" fill="#7150FF"/>
</g>
</g>
<g opacity="0.25">
<g opacity="0.25">
<path opacity="0.25" d="M676.964 223.216C690.87 281.34 677.374 342.743 638.853 396.467C600.104 450.536 540.878 489.873 472.128 507.273C444.568 514.249 416.537 517.429 388.677 516.739L377.501 512.949L372.091 511.125C373.768 508.886 375.432 506.594 377.078 504.221C377.421 503.761 377.758 503.273 378.068 502.791C389.38 486.315 399.629 466.771 408.732 444.293C416.292 440.74 423.731 436.929 431.076 432.854C561.097 360.662 656.219 211.632 656.219 211.632L676.964 223.216Z" fill="#7150FF"/>
<path opacity="0.25" d="M676.964 223.216C690.87 281.34 677.374 342.743 638.853 396.467C600.104 450.536 540.878 489.873 472.128 507.273C444.568 514.249 416.537 517.429 388.677 516.739L377.501 512.949L372.091 511.125C373.768 508.886 375.432 506.594 377.078 504.221C377.421 503.761 377.758 503.273 378.068 502.791C389.38 486.315 399.629 466.771 408.732 444.293C416.292 440.74 423.731 436.929 431.076 432.854C561.097 360.662 656.219 211.632 656.219 211.632L676.964 223.216Z" fill="#7150FF"/>
<path opacity="0.25" d="M676.964 223.216C690.87 281.34 677.374 342.743 638.853 396.467C600.104 450.536 540.878 489.873 472.128 507.273C444.568 514.249 416.537 517.429 388.677 516.739L377.501 512.949L372.091 511.125C373.768 508.886 375.432 506.594 377.078 504.221C377.421 503.761 377.758 503.273 378.068 502.791C389.38 486.315 399.629 466.771 408.732 444.293C416.292 440.74 423.731 436.929 431.076 432.854C561.097 360.662 656.219 211.632 656.219 211.632L676.964 223.216Z" fill="#7150FF"/>
<path opacity="0.25" d="M676.964 223.216C690.87 281.34 677.374 342.743 638.853 396.467C600.104 450.536 540.878 489.873 472.128 507.273C444.568 514.249 416.537 517.429 388.677 516.739L377.501 512.949L372.091 511.125C373.768 508.886 375.432 506.594 377.078 504.221C377.421 503.761 377.758 503.273 378.068 502.791C389.38 486.315 399.629 466.771 408.732 444.293C416.292 440.74 423.731 436.929 431.076 432.854C561.097 360.662 656.219 211.632 656.219 211.632L676.964 223.216Z" fill="#7150FF"/>
<path opacity="0.25" d="M676.964 223.216C690.87 281.34 677.374 342.743 638.853 396.467C600.104 450.536 540.878 489.873 472.128 507.273C444.568 514.249 416.537 517.429 388.677 516.739L377.501 512.949L372.091 511.125C373.768 508.886 375.432 506.594 377.078 504.221C377.421 503.761 377.758 503.273 378.068 502.791C389.38 486.315 399.629 466.771 408.732 444.293C416.292 440.74 423.731 436.929 431.076 432.854C561.097 360.662 656.219 211.632 656.219 211.632L676.964 223.216Z" fill="#7150FF"/>
<path opacity="0.25" d="M676.964 223.216C690.87 281.34 677.374 342.743 638.853 396.467C600.104 450.536 540.878 489.873 472.128 507.273C444.568 514.249 416.537 517.429 388.677 516.739L377.501 512.949L372.091 511.125C373.768 508.886 375.432 506.594 377.078 504.221C377.421 503.761 377.758 503.273 378.068 502.791C389.38 486.315 399.629 466.771 408.732 444.293C416.292 440.74 423.731 436.929 431.076 432.854C561.097 360.662 656.219 211.632 656.219 211.632L676.964 223.216Z" fill="#7150FF"/>
<path opacity="0.25" d="M676.964 223.216C690.87 281.34 677.374 342.743 638.853 396.467C600.104 450.536 540.878 489.873 472.128 507.273C444.568 514.249 416.537 517.429 388.677 516.739L377.501 512.949L372.091 511.125C373.768 508.886 375.432 506.594 377.078 504.221C377.421 503.761 377.758 503.273 378.068 502.791C389.38 486.315 399.629 466.771 408.732 444.293C416.292 440.74 423.731 436.929 431.076 432.854C561.097 360.662 656.219 211.632 656.219 211.632L676.964 223.216Z" fill="#7150FF"/>
<path opacity="0.25" d="M676.964 223.216C690.87 281.34 677.374 342.743 638.853 396.467C600.104 450.536 540.878 489.873 472.128 507.273C444.568 514.249 416.537 517.429 388.677 516.739L377.501 512.949L372.091 511.125C373.768 508.886 375.432 506.594 377.078 504.221C377.421 503.761 377.758 503.273 378.068 502.791C389.38 486.315 399.629 466.771 408.732 444.293C416.292 440.74 423.731 436.929 431.076 432.854C561.097 360.662 656.219 211.632 656.219 211.632L676.964 223.216Z" fill="#7150FF"/>
<path opacity="0.25" d="M676.964 223.216C690.87 281.34 677.374 342.743 638.853 396.467C600.104 450.536 540.878 489.873 472.128 507.273C444.568 514.249 416.537 517.429 388.677 516.739L377.501 512.949L372.091 511.125C373.768 508.886 375.432 506.594 377.078 504.221C377.421 503.761 377.758 503.273 378.068 502.791C389.38 486.315 399.629 466.771 408.732 444.293C416.292 440.74 423.731 436.929 431.076 432.854C561.097 360.662 656.219 211.632 656.219 211.632L676.964 223.216Z" fill="#7150FF"/>
<path opacity="0.25" d="M676.964 223.216C690.87 281.34 677.374 342.743 638.853 396.467C600.104 450.536 540.878 489.873 472.128 507.273C444.568 514.249 416.537 517.429 388.677 516.739L377.501 512.949L372.091 511.125C373.768 508.886 375.432 506.594 377.078 504.221C377.421 503.761 377.758 503.273 378.068 502.791C389.38 486.315 399.629 466.771 408.732 444.293C416.292 440.74 423.731 436.929 431.076 432.854C561.097 360.662 656.219 211.632 656.219 211.632L676.964 223.216Z" fill="#7150FF"/>
<path opacity="0.25" d="M676.964 223.216C690.87 281.34 677.374 342.743 638.853 396.467C600.104 450.536 540.878 489.873 472.128 507.273C444.568 514.249 416.537 517.429 388.677 516.739L377.501 512.949L372.091 511.125C373.768 508.886 375.432 506.594 377.078 504.221C377.421 503.761 377.758 503.273 378.068 502.791C389.38 486.315 399.629 466.771 408.732 444.293C416.292 440.74 423.731 436.929 431.076 432.854C561.097 360.662 656.219 211.632 656.219 211.632L676.964 223.216Z" fill="#7150FF"/>
<path opacity="0.25" d="M676.964 223.216C690.87 281.34 677.374 342.743 638.853 396.467C600.104 450.536 540.878 489.873 472.128 507.273C444.568 514.249 416.537 517.429 388.677 516.739L377.501 512.949L372.091 511.125C373.768 508.886 375.432 506.594 377.078 504.221C377.421 503.761 377.758 503.273 378.068 502.791C389.38 486.315 399.629 466.771 408.732 444.293C416.292 440.74 423.731 436.929 431.076 432.854C561.097 360.662 656.219 211.632 656.219 211.632L676.964 223.216Z" fill="#7150FF"/>
<path opacity="0.25" d="M676.964 223.216C690.87 281.34 677.374 342.743 638.853 396.467C600.104 450.536 540.878 489.873 472.128 507.273C444.568 514.249 416.537 517.429 388.677 516.739L377.501 512.949L372.091 511.125C373.768 508.886 375.432 506.594 377.078 504.221C377.421 503.761 377.758 503.273 378.068 502.791C389.38 486.315 399.629 466.771 408.732 444.293C416.292 440.74 423.731 436.929 431.076 432.854C561.097 360.662 656.219 211.632 656.219 211.632L676.964 223.216Z" fill="#7150FF"/>
</g>
</g>
<path d="M392.124 266.264C395.555 279.818 387.327 293.624 373.771 297.055C360.218 300.485 346.413 292.256 342.982 278.702C339.552 265.148 347.78 251.342 361.333 247.912C363.341 247.404 365.368 247.153 367.326 247.135C362.069 250.473 359.261 256.935 360.867 263.281C362.868 271.185 370.923 275.986 378.827 273.986C385.173 272.38 389.523 266.835 389.956 260.625C390.874 262.354 391.616 264.257 392.124 266.264Z" fill="#07004D"/>
<path d="M15 156.488C35.1486 200.614 91.7568 290.99 157 299.488" stroke="#4B27A5" stroke-width="30" stroke-linejoin="round"/>
<path d="M14 442.488C34.1486 398.671 90.7568 308.927 156 300.488" stroke="#4B27A5" stroke-width="30" stroke-linejoin="round"/>
</g>
<path d="M819.781 432C816.227 431.727 813.766 427.01 812.398 417.85L775.279 151.248C775.006 149.881 774.869 147.967 774.869 145.506C774.869 139.9 775.963 137.098 778.15 137.098H805.016C806.656 137.098 808.16 138.396 809.527 140.994C810.895 143.592 811.852 147.078 812.398 151.453L835.162 346.072L862.848 152.068C863.395 147.83 864.352 144.617 865.719 142.43C867.223 140.105 868.795 138.943 870.436 138.943H892.584C896.139 139.354 898.531 143.729 899.762 152.068L929.088 350.174L952.057 151.248C952.604 147.01 953.492 143.592 954.723 140.994C956.09 138.396 957.594 137.098 959.234 137.098H982.408C984.596 137.098 985.689 139.9 985.689 145.506C985.689 147.283 985.484 149.197 985.074 151.248L948.775 417.85C947.408 427.01 945.084 431.727 941.803 432H916.783C913.229 431.727 910.768 426.941 909.4 417.645L878.639 226.307L848.902 417.85C847.809 426.6 845.621 431.316 842.34 432H819.781ZM1024.86 432C1022.95 432 1021.58 431.453 1020.76 430.359C1019.94 429.129 1019.53 426.463 1019.53 422.361V146.736C1019.53 142.635 1019.94 140.037 1020.76 138.943C1021.58 137.713 1022.95 137.098 1024.86 137.098H1054.6C1056.51 137.098 1057.88 137.713 1058.7 138.943C1059.52 140.037 1059.93 142.635 1059.93 146.736V255.838C1059.93 257.068 1060.13 258.162 1060.54 259.119C1061.09 260.076 1061.57 260.555 1061.98 260.555H1123.5C1123.91 260.555 1124.39 260.076 1124.94 259.119C1125.48 258.025 1125.76 256.863 1125.76 255.633V146.736C1125.76 142.771 1126.17 140.174 1126.99 138.943C1127.95 137.713 1129.31 137.098 1131.09 137.098H1161.24C1163.01 137.098 1164.31 137.713 1165.13 138.943C1165.95 140.037 1166.36 142.635 1166.36 146.736V422.361C1166.36 426.463 1165.95 429.129 1165.13 430.359C1164.31 431.453 1163.01 432 1161.24 432H1131.09C1129.86 432 1128.9 431.863 1128.22 431.59C1127.54 431.18 1126.92 430.223 1126.37 428.719C1125.83 427.215 1125.55 425.096 1125.55 422.361V297.059C1125.55 294.188 1124.8 292.752 1123.3 292.752H1062.39C1061.02 292.752 1060.34 294.188 1060.34 297.059V422.361C1060.34 426.326 1059.86 428.924 1058.9 430.154C1058.08 431.385 1056.78 432 1055.01 432H1024.86Z" fill="#07004D"/>
<path d="M819.781 432C816.227 431.727 813.766 427.01 812.398 417.85L775.279 151.248C775.006 149.881 774.869 147.967 774.869 145.506C774.869 139.9 775.963 137.098 778.15 137.098H805.016C806.656 137.098 808.16 138.396 809.527 140.994C810.895 143.592 811.852 147.078 812.398 151.453L835.162 346.072L862.848 152.068C863.395 147.83 864.352 144.617 865.719 142.43C867.223 140.105 868.795 138.943 870.436 138.943H892.584C896.139 139.354 898.531 143.729 899.762 152.068L929.088 350.174L952.057 151.248C952.604 147.01 953.492 143.592 954.723 140.994C956.09 138.396 957.594 137.098 959.234 137.098H982.408C984.596 137.098 985.689 139.9 985.689 145.506C985.689 147.283 985.484 149.197 985.074 151.248L948.775 417.85C947.408 427.01 945.084 431.727 941.803 432H916.783C913.229 431.727 910.768 426.941 909.4 417.645L878.639 226.307L848.902 417.85C847.809 426.6 845.621 431.316 842.34 432H819.781ZM1024.86 432C1022.95 432 1021.58 431.453 1020.76 430.359C1019.94 429.129 1019.53 426.463 1019.53 422.361V146.736C1019.53 142.635 1019.94 140.037 1020.76 138.943C1021.58 137.713 1022.95 137.098 1024.86 137.098H1054.6C1056.51 137.098 1057.88 137.713 1058.7 138.943C1059.52 140.037 1059.93 142.635 1059.93 146.736V255.838C1059.93 257.068 1060.13 258.162 1060.54 259.119C1061.09 260.076 1061.57 260.555 1061.98 260.555H1123.5C1123.91 260.555 1124.39 260.076 1124.94 259.119C1125.48 258.025 1125.76 256.863 1125.76 255.633V146.736C1125.76 142.771 1126.17 140.174 1126.99 138.943C1127.95 137.713 1129.31 137.098 1131.09 137.098H1161.24C1163.01 137.098 1164.31 137.713 1165.13 138.943C1165.95 140.037 1166.36 142.635 1166.36 146.736V422.361C1166.36 426.463 1165.95 429.129 1165.13 430.359C1164.31 431.453 1163.01 432 1161.24 432H1131.09C1129.86 432 1128.9 431.863 1128.22 431.59C1127.54 431.18 1126.92 430.223 1126.37 428.719C1125.83 427.215 1125.55 425.096 1125.55 422.361V297.059C1125.55 294.188 1124.8 292.752 1123.3 292.752H1062.39C1061.02 292.752 1060.34 294.188 1060.34 297.059V422.361C1060.34 426.326 1059.86 428.924 1058.9 430.154C1058.08 431.385 1056.78 432 1055.01 432H1024.86Z" fill="url(#paint0_linear)"/>
<path d="M1204.1 432C1202.05 432 1201.02 430.018 1201.02 426.053V422.566C1201.02 420.789 1201.09 419.627 1201.23 419.08L1247.37 147.352C1248.46 140.789 1250.99 137.371 1254.96 137.098H1296.59C1300.42 137.371 1302.88 140.789 1303.97 147.352L1349.29 419.08C1349.29 419.49 1349.36 420.242 1349.5 421.336C1349.77 422.43 1349.91 423.387 1349.91 424.207C1350.04 425.027 1350.11 425.711 1350.11 426.258C1350.11 430.086 1348.95 432 1346.63 432H1312.79C1309.51 432 1307.39 429.197 1306.43 423.592L1298.84 371.297C1298.43 368.289 1297.68 366.785 1296.59 366.785H1246.96C1246 366.785 1245.25 368.357 1244.7 371.502L1236.09 423.387C1235.54 426.805 1234.86 429.129 1234.04 430.359C1233.22 431.453 1231.99 432 1230.35 432H1204.1ZM1252.91 341.15H1294.74C1295.7 341.15 1296.18 339.92 1296.18 337.459C1296.18 336.639 1296.04 336.023 1295.77 335.613L1275.46 177.498C1275.33 176.541 1275.12 176.062 1274.85 176.062C1274.44 176.062 1274.17 176.473 1274.03 177.293L1250.04 335.408C1249.9 336.365 1249.83 336.98 1249.83 337.254C1249.83 339.852 1250.86 341.15 1252.91 341.15ZM1387.64 432C1385.87 432 1384.57 431.453 1383.75 430.359C1382.93 429.129 1382.52 426.463 1382.52 422.361V146.736C1382.52 142.635 1382.93 140.037 1383.75 138.943C1384.57 137.713 1385.87 137.098 1387.64 137.098H1417.79C1419.57 137.098 1420.87 137.713 1421.69 138.943C1422.51 140.037 1422.92 142.635 1422.92 146.736V394.881C1422.92 397.889 1423.87 399.393 1425.79 399.393H1479.11C1480.88 399.393 1482.18 399.871 1483 400.828C1483.82 401.785 1484.23 403.973 1484.23 407.391V423.797C1484.23 427.215 1483.82 429.471 1483 430.564C1482.18 431.521 1480.88 432 1479.11 432H1387.64ZM1521.35 432C1519.58 432 1518.28 431.521 1517.46 430.564C1516.64 429.471 1516.23 427.078 1516.23 423.387V145.711C1516.23 142.156 1516.64 139.832 1517.46 138.738C1518.28 137.645 1519.58 137.098 1521.35 137.098H1629.22C1630.32 137.098 1631.21 137.234 1631.89 137.508C1632.57 137.781 1633.12 138.533 1633.53 139.764C1634.08 140.994 1634.35 142.84 1634.35 145.301V161.502C1634.35 164.92 1633.94 167.176 1633.12 168.27C1632.3 169.227 1631 169.705 1629.22 169.705H1559.09C1557.45 169.705 1556.63 171.961 1556.63 176.473V259.324C1556.63 260.555 1556.83 261.785 1557.24 263.016C1557.79 264.246 1558.27 264.861 1558.68 264.861H1615.07C1618.49 264.861 1620.2 268.006 1620.2 274.295V290.086C1620.2 296.375 1618.49 299.52 1615.07 299.52H1558.88C1558.34 299.52 1557.79 300.203 1557.24 301.57C1556.83 302.938 1556.63 304.305 1556.63 305.672V399.393H1629.84C1631.07 399.393 1632.03 399.529 1632.71 399.803C1633.39 400.076 1633.94 400.828 1634.35 402.059C1634.9 403.289 1635.17 405.135 1635.17 407.596V423.797C1635.17 427.215 1634.69 429.471 1633.74 430.564C1632.92 431.521 1631.62 432 1629.84 432H1521.35Z" fill="#F3F2F5"/>
<path d="M1204.1 432C1202.05 432 1201.02 430.018 1201.02 426.053V422.566C1201.02 420.789 1201.09 419.627 1201.23 419.08L1247.37 147.352C1248.46 140.789 1250.99 137.371 1254.96 137.098H1296.59C1300.42 137.371 1302.88 140.789 1303.97 147.352L1349.29 419.08C1349.29 419.49 1349.36 420.242 1349.5 421.336C1349.77 422.43 1349.91 423.387 1349.91 424.207C1350.04 425.027 1350.11 425.711 1350.11 426.258C1350.11 430.086 1348.95 432 1346.63 432H1312.79C1309.51 432 1307.39 429.197 1306.43 423.592L1298.84 371.297C1298.43 368.289 1297.68 366.785 1296.59 366.785H1246.96C1246 366.785 1245.25 368.357 1244.7 371.502L1236.09 423.387C1235.54 426.805 1234.86 429.129 1234.04 430.359C1233.22 431.453 1231.99 432 1230.35 432H1204.1ZM1252.91 341.15H1294.74C1295.7 341.15 1296.18 339.92 1296.18 337.459C1296.18 336.639 1296.04 336.023 1295.77 335.613L1275.46 177.498C1275.33 176.541 1275.12 176.062 1274.85 176.062C1274.44 176.062 1274.17 176.473 1274.03 177.293L1250.04 335.408C1249.9 336.365 1249.83 336.98 1249.83 337.254C1249.83 339.852 1250.86 341.15 1252.91 341.15ZM1387.64 432C1385.87 432 1384.57 431.453 1383.75 430.359C1382.93 429.129 1382.52 426.463 1382.52 422.361V146.736C1382.52 142.635 1382.93 140.037 1383.75 138.943C1384.57 137.713 1385.87 137.098 1387.64 137.098H1417.79C1419.57 137.098 1420.87 137.713 1421.69 138.943C1422.51 140.037 1422.92 142.635 1422.92 146.736V394.881C1422.92 397.889 1423.87 399.393 1425.79 399.393H1479.11C1480.88 399.393 1482.18 399.871 1483 400.828C1483.82 401.785 1484.23 403.973 1484.23 407.391V423.797C1484.23 427.215 1483.82 429.471 1483 430.564C1482.18 431.521 1480.88 432 1479.11 432H1387.64ZM1521.35 432C1519.58 432 1518.28 431.521 1517.46 430.564C1516.64 429.471 1516.23 427.078 1516.23 423.387V145.711C1516.23 142.156 1516.64 139.832 1517.46 138.738C1518.28 137.645 1519.58 137.098 1521.35 137.098H1629.22C1630.32 137.098 1631.21 137.234 1631.89 137.508C1632.57 137.781 1633.12 138.533 1633.53 139.764C1634.08 140.994 1634.35 142.84 1634.35 145.301V161.502C1634.35 164.92 1633.94 167.176 1633.12 168.27C1632.3 169.227 1631 169.705 1629.22 169.705H1559.09C1557.45 169.705 1556.63 171.961 1556.63 176.473V259.324C1556.63 260.555 1556.83 261.785 1557.24 263.016C1557.79 264.246 1558.27 264.861 1558.68 264.861H1615.07C1618.49 264.861 1620.2 268.006 1620.2 274.295V290.086C1620.2 296.375 1618.49 299.52 1615.07 299.52H1558.88C1558.34 299.52 1557.79 300.203 1557.24 301.57C1556.83 302.938 1556.63 304.305 1556.63 305.672V399.393H1629.84C1631.07 399.393 1632.03 399.529 1632.71 399.803C1633.39 400.076 1633.94 400.828 1634.35 402.059C1634.9 403.289 1635.17 405.135 1635.17 407.596V423.797C1635.17 427.215 1634.69 429.471 1633.74 430.564C1632.92 431.521 1631.62 432 1629.84 432H1521.35Z" fill="url(#paint1_linear)"/>
<defs>
<linearGradient id="paint0_linear" x1="1670.32" y1="413.661" x2="64.4467" y2="406.66" gradientUnits="userSpaceOnUse">
<stop stop-color="white" stop-opacity="0"/>
<stop offset="1" stop-color="#4B27A5"/>
</linearGradient>
<linearGradient id="paint1_linear" x1="1670.32" y1="413.661" x2="64.4467" y2="406.66" gradientUnits="userSpaceOnUse">
<stop stop-color="white" stop-opacity="0"/>
<stop offset="1" stop-color="#4B27A5"/>
</linearGradient>
<clipPath id="clip0">
<rect width="738.323" height="599.618" fill="white"/>
</clipPath>
</defs>
</svg>
