<svg width="1672" height="564" viewBox="0 0 1672 564" fill="none" xmlns="http://www.w3.org/2000/svg">
<g clip-path="url(#clip0)">
<line x1="1672" y1="463" x2="472" y2="463" stroke="#07004D" stroke-width="18"/>
<g clip-path="url(#clip1)">
<path d="M296.535 449.267C296.966 450.969 296.898 452.858 296.139 454.633C295.076 457.147 292.923 458.871 290.462 459.494C288.758 459.925 286.923 459.843 285.183 459.104C282.771 458.104 280.4 457.034 278.055 455.958C233.906 435.821 198.937 404.987 176.554 366.362C174.249 362.37 175.601 357.251 179.62 354.938C183.579 352.612 188.732 353.985 191.038 357.977C209.087 389.151 236.201 414.866 270.167 433.321L270.439 433.482C274.409 435.642 278.503 437.714 282.683 439.678C285.623 441.063 288.639 442.401 291.667 443.678C294.174 444.712 295.892 446.838 296.535 449.267Z" fill="#07004D"/>
<path d="M676.361 184.721C676.573 185.559 676.779 186.371 676.964 187.216C690.87 245.34 677.373 306.743 638.854 360.467C600.105 414.536 540.878 453.873 472.128 471.274C444.567 478.249 416.536 481.43 388.676 480.739C387.148 480.723 385.613 480.681 384.068 480.611C381.308 480.504 378.928 479.062 377.502 476.949C376.51 475.53 375.95 473.773 376.025 471.912C376.089 470.571 376.464 469.325 377.078 468.221C377.421 467.76 377.757 467.272 378.068 466.79C379.666 464.918 382.085 463.787 384.731 463.895C389.732 464.098 394.726 464.157 399.711 464.074C422.548 463.791 445.464 460.755 468.02 455.045C602.492 421.011 688.672 301.582 660.134 188.828C658.998 184.338 657.713 179.944 656.218 175.633C654.41 170.191 652.344 164.87 650.001 159.709C607.794 65.3785 486.915 15.0774 364.506 46.0593C282.098 66.9168 214.624 120.744 184.004 189.994C182.143 194.235 177.189 196.151 172.974 194.281C168.726 192.392 166.817 187.466 168.679 183.224C201.397 109.3 273.04 51.9415 360.398 29.831C429.149 12.4301 499.965 18.8837 559.763 47.9796C620.058 77.3267 661.473 125.896 676.361 184.721Z" fill="#07004D"/>
<path d="M669.992 164.894C670.741 169.453 667.656 173.745 663.07 174.503C660.749 174.888 658.485 175.26 656.219 175.631C483.183 204.434 478.864 221.931 459.051 302.259C452.871 327.42 445.247 358.244 431.075 396.855C429.813 400.281 428.504 403.749 427.128 407.293C418.928 428.563 409.794 447.508 399.712 464.074C396.164 469.951 392.471 475.492 388.677 480.739C384.519 486.597 380.178 492.071 375.68 497.151C359.259 515.955 340.948 529.8 320.836 538.573C313.951 541.611 307.21 543.863 300.747 545.499C263.748 554.863 235.684 544.038 234.31 543.495L222.921 538.981L231.271 530.018C257.234 502.179 270.929 476.583 278.055 455.957C279.933 450.532 281.355 445.453 282.436 440.748C282.517 440.383 282.603 440.044 282.684 439.679C283.051 437.944 283.378 436.279 283.684 434.648C286.784 416.998 284.812 406.361 284.778 406.11C283.864 401.593 286.714 397.159 291.26 396.24C295.769 395.299 300.174 398.157 301.135 402.632C301.362 403.755 303.759 415.725 300.743 435.078C300.026 439.634 299.011 444.61 297.592 449.919C291.757 471.888 279.159 499.998 252.819 531.01C266.177 533.299 289.083 534.322 314.498 523.084C331.373 515.618 346.969 504.015 361.133 488.343C364.896 484.225 368.531 479.823 372.09 475.124C373.768 472.887 375.433 470.595 377.078 468.221C377.421 467.76 377.758 467.272 378.068 466.791C389.38 450.315 399.629 430.771 408.732 408.293C409.671 405.984 410.578 403.653 411.506 401.289C427.893 358.693 436.157 325.177 442.811 298.253C453.351 255.526 460.306 227.29 489.786 206.302C516.196 187.503 558.631 175.064 650.002 159.709C653.396 159.137 656.846 158.551 660.382 157.973C664.947 157.25 669.24 160.336 669.992 164.894Z" fill="#07004D"/>
<g opacity="0.25">
<g opacity="0.25">
<path opacity="0.25" d="M283.684 434.648C289.396 435.044 295.073 435.19 300.742 435.078C300.026 439.634 299.012 444.61 297.592 449.919L296.535 449.267L282.436 440.748L270.439 433.482C274.409 435.643 278.502 437.714 282.684 439.679C283.051 437.944 283.378 436.279 283.684 434.648Z" fill="#0071BC"/>
</g>
</g>
<g opacity="0.25">
<g opacity="0.25">
<path opacity="0.25" d="M676.964 187.216C690.87 245.34 677.374 306.743 638.853 360.467C600.104 414.536 540.878 453.873 472.128 471.273C444.568 478.249 416.537 481.429 388.677 480.739L377.501 476.949L372.091 475.125C373.768 472.886 375.432 470.594 377.078 468.221C377.421 467.761 377.758 467.273 378.068 466.791C389.38 450.315 399.629 430.771 408.732 408.293C416.292 404.74 423.731 400.929 431.076 396.854C561.097 324.662 656.219 175.632 656.219 175.632L676.964 187.216Z" fill="#7150FF"/>
<path opacity="0.25" d="M676.964 187.216C690.87 245.34 677.374 306.743 638.853 360.467C600.104 414.536 540.878 453.873 472.128 471.273C444.568 478.249 416.537 481.429 388.677 480.739L377.501 476.949L372.091 475.125C373.768 472.886 375.432 470.594 377.078 468.221C377.421 467.761 377.758 467.273 378.068 466.791C389.38 450.315 399.629 430.771 408.732 408.293C416.292 404.74 423.731 400.929 431.076 396.854C561.097 324.662 656.219 175.632 656.219 175.632L676.964 187.216Z" fill="#7150FF"/>
<path opacity="0.25" d="M676.964 187.216C690.87 245.34 677.374 306.743 638.853 360.467C600.104 414.536 540.878 453.873 472.128 471.273C444.568 478.249 416.537 481.429 388.677 480.739L377.501 476.949L372.091 475.125C373.768 472.886 375.432 470.594 377.078 468.221C377.421 467.761 377.758 467.273 378.068 466.791C389.38 450.315 399.629 430.771 408.732 408.293C416.292 404.74 423.731 400.929 431.076 396.854C561.097 324.662 656.219 175.632 656.219 175.632L676.964 187.216Z" fill="#7150FF"/>
<path opacity="0.25" d="M676.964 187.216C690.87 245.34 677.374 306.743 638.853 360.467C600.104 414.536 540.878 453.873 472.128 471.273C444.568 478.249 416.537 481.429 388.677 480.739L377.501 476.949L372.091 475.125C373.768 472.886 375.432 470.594 377.078 468.221C377.421 467.761 377.758 467.273 378.068 466.791C389.38 450.315 399.629 430.771 408.732 408.293C416.292 404.74 423.731 400.929 431.076 396.854C561.097 324.662 656.219 175.632 656.219 175.632L676.964 187.216Z" fill="#7150FF"/>
<path opacity="0.25" d="M676.964 187.216C690.87 245.34 677.374 306.743 638.853 360.467C600.104 414.536 540.878 453.873 472.128 471.273C444.568 478.249 416.537 481.429 388.677 480.739L377.501 476.949L372.091 475.125C373.768 472.886 375.432 470.594 377.078 468.221C377.421 467.761 377.758 467.273 378.068 466.791C389.38 450.315 399.629 430.771 408.732 408.293C416.292 404.74 423.731 400.929 431.076 396.854C561.097 324.662 656.219 175.632 656.219 175.632L676.964 187.216Z" fill="#7150FF"/>
<path opacity="0.25" d="M676.964 187.216C690.87 245.34 677.374 306.743 638.853 360.467C600.104 414.536 540.878 453.873 472.128 471.273C444.568 478.249 416.537 481.429 388.677 480.739L377.501 476.949L372.091 475.125C373.768 472.886 375.432 470.594 377.078 468.221C377.421 467.761 377.758 467.273 378.068 466.791C389.38 450.315 399.629 430.771 408.732 408.293C416.292 404.74 423.731 400.929 431.076 396.854C561.097 324.662 656.219 175.632 656.219 175.632L676.964 187.216Z" fill="#7150FF"/>
<path opacity="0.25" d="M676.964 187.216C690.87 245.34 677.374 306.743 638.853 360.467C600.104 414.536 540.878 453.873 472.128 471.273C444.568 478.249 416.537 481.429 388.677 480.739L377.501 476.949L372.091 475.125C373.768 472.886 375.432 470.594 377.078 468.221C377.421 467.761 377.758 467.273 378.068 466.791C389.38 450.315 399.629 430.771 408.732 408.293C416.292 404.74 423.731 400.929 431.076 396.854C561.097 324.662 656.219 175.632 656.219 175.632L676.964 187.216Z" fill="#7150FF"/>
<path opacity="0.25" d="M676.964 187.216C690.87 245.34 677.374 306.743 638.853 360.467C600.104 414.536 540.878 453.873 472.128 471.273C444.568 478.249 416.537 481.429 388.677 480.739L377.501 476.949L372.091 475.125C373.768 472.886 375.432 470.594 377.078 468.221C377.421 467.761 377.758 467.273 378.068 466.791C389.38 450.315 399.629 430.771 408.732 408.293C416.292 404.74 423.731 400.929 431.076 396.854C561.097 324.662 656.219 175.632 656.219 175.632L676.964 187.216Z" fill="#7150FF"/>
<path opacity="0.25" d="M676.964 187.216C690.87 245.34 677.374 306.743 638.853 360.467C600.104 414.536 540.878 453.873 472.128 471.273C444.568 478.249 416.537 481.429 388.677 480.739L377.501 476.949L372.091 475.125C373.768 472.886 375.432 470.594 377.078 468.221C377.421 467.761 377.758 467.273 378.068 466.791C389.38 450.315 399.629 430.771 408.732 408.293C416.292 404.74 423.731 400.929 431.076 396.854C561.097 324.662 656.219 175.632 656.219 175.632L676.964 187.216Z" fill="#7150FF"/>
<path opacity="0.25" d="M676.964 187.216C690.87 245.34 677.374 306.743 638.853 360.467C600.104 414.536 540.878 453.873 472.128 471.273C444.568 478.249 416.537 481.429 388.677 480.739L377.501 476.949L372.091 475.125C373.768 472.886 375.432 470.594 377.078 468.221C377.421 467.761 377.758 467.273 378.068 466.791C389.38 450.315 399.629 430.771 408.732 408.293C416.292 404.74 423.731 400.929 431.076 396.854C561.097 324.662 656.219 175.632 656.219 175.632L676.964 187.216Z" fill="#7150FF"/>
<path opacity="0.25" d="M676.964 187.216C690.87 245.34 677.374 306.743 638.853 360.467C600.104 414.536 540.878 453.873 472.128 471.273C444.568 478.249 416.537 481.429 388.677 480.739L377.501 476.949L372.091 475.125C373.768 472.886 375.432 470.594 377.078 468.221C377.421 467.761 377.758 467.273 378.068 466.791C389.38 450.315 399.629 430.771 408.732 408.293C416.292 404.74 423.731 400.929 431.076 396.854C561.097 324.662 656.219 175.632 656.219 175.632L676.964 187.216Z" fill="#7150FF"/>
<path opacity="0.25" d="M676.964 187.216C690.87 245.34 677.374 306.743 638.853 360.467C600.104 414.536 540.878 453.873 472.128 471.273C444.568 478.249 416.537 481.429 388.677 480.739L377.501 476.949L372.091 475.125C373.768 472.886 375.432 470.594 377.078 468.221C377.421 467.761 377.758 467.273 378.068 466.791C389.38 450.315 399.629 430.771 408.732 408.293C416.292 404.74 423.731 400.929 431.076 396.854C561.097 324.662 656.219 175.632 656.219 175.632L676.964 187.216Z" fill="#7150FF"/>
<path opacity="0.25" d="M676.964 187.216C690.87 245.34 677.374 306.743 638.853 360.467C600.104 414.536 540.878 453.873 472.128 471.273C444.568 478.249 416.537 481.429 388.677 480.739L377.501 476.949L372.091 475.125C373.768 472.886 375.432 470.594 377.078 468.221C377.421 467.761 377.758 467.273 378.068 466.791C389.38 450.315 399.629 430.771 408.732 408.293C416.292 404.74 423.731 400.929 431.076 396.854C561.097 324.662 656.219 175.632 656.219 175.632L676.964 187.216Z" fill="#7150FF"/>
</g>
</g>
<g opacity="0.25">
<g opacity="0.25">
<path opacity="0.25" d="M676.964 187.216C690.87 245.34 677.374 306.743 638.853 360.467C600.104 414.536 540.878 453.873 472.128 471.273C444.568 478.249 416.537 481.429 388.677 480.739L377.501 476.949L372.091 475.125C373.768 472.886 375.432 470.594 377.078 468.221C377.421 467.761 377.758 467.273 378.068 466.791C389.38 450.315 399.629 430.771 408.732 408.293C416.292 404.74 423.731 400.929 431.076 396.854C561.097 324.662 656.219 175.632 656.219 175.632L676.964 187.216Z" fill="#7150FF"/>
<path opacity="0.25" d="M676.964 187.216C690.87 245.34 677.374 306.743 638.853 360.467C600.104 414.536 540.878 453.873 472.128 471.273C444.568 478.249 416.537 481.429 388.677 480.739L377.501 476.949L372.091 475.125C373.768 472.886 375.432 470.594 377.078 468.221C377.421 467.761 377.758 467.273 378.068 466.791C389.38 450.315 399.629 430.771 408.732 408.293C416.292 404.74 423.731 400.929 431.076 396.854C561.097 324.662 656.219 175.632 656.219 175.632L676.964 187.216Z" fill="#7150FF"/>
<path opacity="0.25" d="M676.964 187.216C690.87 245.34 677.374 306.743 638.853 360.467C600.104 414.536 540.878 453.873 472.128 471.273C444.568 478.249 416.537 481.429 388.677 480.739L377.501 476.949L372.091 475.125C373.768 472.886 375.432 470.594 377.078 468.221C377.421 467.761 377.758 467.273 378.068 466.791C389.38 450.315 399.629 430.771 408.732 408.293C416.292 404.74 423.731 400.929 431.076 396.854C561.097 324.662 656.219 175.632 656.219 175.632L676.964 187.216Z" fill="#7150FF"/>
<path opacity="0.25" d="M676.964 187.216C690.87 245.34 677.374 306.743 638.853 360.467C600.104 414.536 540.878 453.873 472.128 471.273C444.568 478.249 416.537 481.429 388.677 480.739L377.501 476.949L372.091 475.125C373.768 472.886 375.432 470.594 377.078 468.221C377.421 467.761 377.758 467.273 378.068 466.791C389.38 450.315 399.629 430.771 408.732 408.293C416.292 404.74 423.731 400.929 431.076 396.854C561.097 324.662 656.219 175.632 656.219 175.632L676.964 187.216Z" fill="#7150FF"/>
<path opacity="0.25" d="M676.964 187.216C690.87 245.34 677.374 306.743 638.853 360.467C600.104 414.536 540.878 453.873 472.128 471.273C444.568 478.249 416.537 481.429 388.677 480.739L377.501 476.949L372.091 475.125C373.768 472.886 375.432 470.594 377.078 468.221C377.421 467.761 377.758 467.273 378.068 466.791C389.38 450.315 399.629 430.771 408.732 408.293C416.292 404.74 423.731 400.929 431.076 396.854C561.097 324.662 656.219 175.632 656.219 175.632L676.964 187.216Z" fill="#7150FF"/>
<path opacity="0.25" d="M676.964 187.216C690.87 245.34 677.374 306.743 638.853 360.467C600.104 414.536 540.878 453.873 472.128 471.273C444.568 478.249 416.537 481.429 388.677 480.739L377.501 476.949L372.091 475.125C373.768 472.886 375.432 470.594 377.078 468.221C377.421 467.761 377.758 467.273 378.068 466.791C389.38 450.315 399.629 430.771 408.732 408.293C416.292 404.74 423.731 400.929 431.076 396.854C561.097 324.662 656.219 175.632 656.219 175.632L676.964 187.216Z" fill="#7150FF"/>
<path opacity="0.25" d="M676.964 187.216C690.87 245.34 677.374 306.743 638.853 360.467C600.104 414.536 540.878 453.873 472.128 471.273C444.568 478.249 416.537 481.429 388.677 480.739L377.501 476.949L372.091 475.125C373.768 472.886 375.432 470.594 377.078 468.221C377.421 467.761 377.758 467.273 378.068 466.791C389.38 450.315 399.629 430.771 408.732 408.293C416.292 404.74 423.731 400.929 431.076 396.854C561.097 324.662 656.219 175.632 656.219 175.632L676.964 187.216Z" fill="#7150FF"/>
<path opacity="0.25" d="M676.964 187.216C690.87 245.34 677.374 306.743 638.853 360.467C600.104 414.536 540.878 453.873 472.128 471.273C444.568 478.249 416.537 481.429 388.677 480.739L377.501 476.949L372.091 475.125C373.768 472.886 375.432 470.594 377.078 468.221C377.421 467.761 377.758 467.273 378.068 466.791C389.38 450.315 399.629 430.771 408.732 408.293C416.292 404.74 423.731 400.929 431.076 396.854C561.097 324.662 656.219 175.632 656.219 175.632L676.964 187.216Z" fill="#7150FF"/>
<path opacity="0.25" d="M676.964 187.216C690.87 245.34 677.374 306.743 638.853 360.467C600.104 414.536 540.878 453.873 472.128 471.273C444.568 478.249 416.537 481.429 388.677 480.739L377.501 476.949L372.091 475.125C373.768 472.886 375.432 470.594 377.078 468.221C377.421 467.761 377.758 467.273 378.068 466.791C389.38 450.315 399.629 430.771 408.732 408.293C416.292 404.74 423.731 400.929 431.076 396.854C561.097 324.662 656.219 175.632 656.219 175.632L676.964 187.216Z" fill="#7150FF"/>
<path opacity="0.25" d="M676.964 187.216C690.87 245.34 677.374 306.743 638.853 360.467C600.104 414.536 540.878 453.873 472.128 471.273C444.568 478.249 416.537 481.429 388.677 480.739L377.501 476.949L372.091 475.125C373.768 472.886 375.432 470.594 377.078 468.221C377.421 467.761 377.758 467.273 378.068 466.791C389.38 450.315 399.629 430.771 408.732 408.293C416.292 404.74 423.731 400.929 431.076 396.854C561.097 324.662 656.219 175.632 656.219 175.632L676.964 187.216Z" fill="#7150FF"/>
<path opacity="0.25" d="M676.964 187.216C690.87 245.34 677.374 306.743 638.853 360.467C600.104 414.536 540.878 453.873 472.128 471.273C444.568 478.249 416.537 481.429 388.677 480.739L377.501 476.949L372.091 475.125C373.768 472.886 375.432 470.594 377.078 468.221C377.421 467.761 377.758 467.273 378.068 466.791C389.38 450.315 399.629 430.771 408.732 408.293C416.292 404.74 423.731 400.929 431.076 396.854C561.097 324.662 656.219 175.632 656.219 175.632L676.964 187.216Z" fill="#7150FF"/>
<path opacity="0.25" d="M676.964 187.216C690.87 245.34 677.374 306.743 638.853 360.467C600.104 414.536 540.878 453.873 472.128 471.273C444.568 478.249 416.537 481.429 388.677 480.739L377.501 476.949L372.091 475.125C373.768 472.886 375.432 470.594 377.078 468.221C377.421 467.761 377.758 467.273 378.068 466.791C389.38 450.315 399.629 430.771 408.732 408.293C416.292 404.74 423.731 400.929 431.076 396.854C561.097 324.662 656.219 175.632 656.219 175.632L676.964 187.216Z" fill="#7150FF"/>
<path opacity="0.25" d="M676.964 187.216C690.87 245.34 677.374 306.743 638.853 360.467C600.104 414.536 540.878 453.873 472.128 471.273C444.568 478.249 416.537 481.429 388.677 480.739L377.501 476.949L372.091 475.125C373.768 472.886 375.432 470.594 377.078 468.221C377.421 467.761 377.758 467.273 378.068 466.791C389.38 450.315 399.629 430.771 408.732 408.293C416.292 404.74 423.731 400.929 431.076 396.854C561.097 324.662 656.219 175.632 656.219 175.632L676.964 187.216Z" fill="#7150FF"/>
</g>
</g>
<path d="M392.124 230.264C395.555 243.818 387.327 257.624 373.771 261.055C360.218 264.485 346.413 256.256 342.982 242.702C339.552 229.148 347.78 215.342 361.333 211.912C363.341 211.404 365.368 211.153 367.326 211.135C362.069 214.473 359.261 220.935 360.867 227.281C362.868 235.185 370.923 239.986 378.827 237.986C385.173 236.38 389.523 230.835 389.956 224.625C390.874 226.354 391.616 228.257 392.124 230.264Z" fill="#07004D"/>
<path d="M15 120.488C35.1486 164.614 91.7568 254.99 157 263.488" stroke="#4B27A5" stroke-width="30" stroke-linejoin="round"/>
<path d="M14 406.488C34.1486 362.671 90.7568 272.927 156 264.488" stroke="#4B27A5" stroke-width="30" stroke-linejoin="round"/>
</g>
<path d="M954.963 355.918C954.963 359.147 953.954 361.771 951.936 363.789C949.917 365.605 947.193 366.514 943.762 366.514H938.918C929.23 366.514 922.368 362.275 918.332 353.799L880.188 277.51L842.043 353.799C838.208 362.275 831.346 366.514 821.457 366.514H816.613C813.182 366.514 810.458 365.605 808.439 363.789C806.623 361.973 805.614 359.349 805.412 355.918L799.357 218.779C799.156 215.55 800.064 212.926 802.082 210.908C804.302 208.688 807.027 207.578 810.256 207.578H820.549C823.576 207.578 825.998 208.587 827.814 210.605C829.833 212.422 830.943 214.945 831.145 218.174L835.988 311.113L864.445 254.199C866.665 249.355 870.5 246.934 875.949 246.934H884.426C890.077 246.934 893.911 249.355 895.93 254.199L924.387 311.113L929.23 218.174C929.432 214.945 930.441 212.422 932.258 210.605C934.276 208.587 936.799 207.578 939.826 207.578H950.119C953.146 207.578 955.669 208.688 957.688 210.908C959.908 212.926 961.018 215.449 961.018 218.477L954.963 355.918ZM1021.56 205.762C1032.87 204.954 1042.76 204.551 1051.23 204.551C1074.44 204.551 1091.4 209.596 1102.09 219.688C1112.99 229.779 1118.44 246.126 1118.44 268.73V354.404C1118.44 357.432 1117.43 359.954 1115.41 361.973C1113.6 363.991 1111.07 365 1107.84 365H1097.25C1094.22 365 1091.7 363.991 1089.68 361.973C1087.66 359.954 1086.65 357.432 1086.65 354.404V268.73C1086.65 255.612 1083.93 246.53 1078.48 241.484C1073.23 236.237 1064.15 233.613 1051.23 233.613C1042.55 233.613 1032.66 234.017 1021.56 234.824V354.404C1021.56 357.432 1020.56 359.954 1018.54 361.973C1016.72 363.991 1014.2 365 1010.97 365H1000.37C997.346 365 994.823 363.991 992.805 361.973C990.786 359.954 989.777 357.432 989.777 354.404V142.188C989.777 139.16 990.786 136.637 992.805 134.619C994.823 132.601 997.346 131.592 1000.37 131.592L1010.97 131.895C1014 131.895 1016.52 132.904 1018.54 134.922C1020.56 136.94 1021.56 139.463 1021.56 142.49V205.762ZM1286.46 353.193C1286.46 356.221 1285.55 358.743 1283.73 360.762C1281.92 362.78 1279.49 363.991 1276.47 364.395C1256.49 366.816 1240.14 368.027 1227.42 368.027C1206.43 368.027 1190.19 364.092 1178.68 356.221C1167.38 348.148 1161.63 336.543 1161.43 321.406C1161.43 306.068 1167.18 294.463 1178.68 286.592C1190.19 278.519 1206.74 274.482 1228.33 274.482H1254.67V265.4C1254.67 254.098 1252.35 246.025 1247.71 241.182C1243.07 236.136 1235.19 233.613 1224.09 233.613C1212.79 233.613 1201.79 234.521 1191.1 236.338C1188.07 236.742 1185.24 236.237 1182.62 234.824C1180.2 233.411 1178.78 231.191 1178.38 228.164L1177.47 219.99C1177.07 216.963 1177.57 214.339 1178.99 212.119C1180.4 209.899 1182.62 208.486 1185.65 207.881C1197.76 205.661 1210.57 204.551 1224.09 204.551C1245.69 204.551 1261.43 209.495 1271.32 219.385C1281.41 229.072 1286.46 244.411 1286.46 265.4V353.193ZM1228.33 303.848C1216.63 303.848 1207.85 305.361 1201.99 308.389C1196.34 311.416 1193.52 315.755 1193.52 321.406C1193.52 333.314 1205.43 339.268 1229.24 339.268C1236.1 339.268 1244.58 338.763 1254.67 337.754V303.848H1228.33ZM1467.49 351.377C1468.1 352.588 1468.4 353.9 1468.4 355.312C1468.4 357.533 1467.69 359.551 1466.28 361.367C1464.87 363.184 1462.85 364.395 1460.23 365C1451.75 367.018 1442.67 368.027 1432.98 368.027C1415.22 368.027 1402 363.789 1393.32 355.312C1384.64 346.836 1380.3 333.919 1380.3 316.562V160.957H1349.43C1346.4 160.957 1343.88 159.948 1341.86 157.93C1339.84 155.911 1338.83 153.389 1338.83 150.361V142.49C1338.83 139.261 1339.84 136.738 1341.86 134.922C1343.88 132.904 1346.4 131.895 1349.43 131.895H1401.5C1404.52 131.895 1407.05 132.904 1409.06 134.922C1411.08 136.738 1412.09 139.261 1412.09 142.49V316.562C1412.09 324.635 1413.61 330.286 1416.63 333.516C1419.66 336.745 1425.11 338.46 1432.98 338.662C1440.04 338.662 1446.4 337.956 1452.05 336.543C1455.08 336.139 1457.7 336.543 1459.92 337.754C1462.35 338.965 1464.06 340.882 1465.07 343.506L1465.37 343.809L1467.79 351.68L1467.49 351.377ZM1640.66 344.717C1641.26 346.533 1641.56 348.148 1641.56 349.561C1641.56 353.799 1639.45 356.826 1635.21 358.643C1620.27 364.899 1604.73 368.027 1588.59 368.027C1564.57 368.027 1545.8 360.863 1532.28 346.533C1518.76 332.002 1511.99 311.921 1511.99 286.289C1511.99 270.345 1514.72 256.217 1520.17 243.906C1525.82 231.393 1533.59 221.706 1543.48 214.844C1553.57 207.982 1564.97 204.551 1577.69 204.551C1589.6 204.551 1600.29 207.578 1609.78 213.633C1619.46 219.688 1627.03 228.164 1632.48 239.062C1637.93 249.759 1640.66 261.969 1640.66 275.693V282.656C1640.66 285.885 1639.65 288.509 1637.63 290.527C1635.81 292.344 1633.29 293.252 1630.06 293.252H1544.08C1546.3 323.324 1561.14 338.359 1588.59 338.359C1599.08 338.359 1610.89 336.139 1624.01 331.699C1625.62 331.094 1627.24 330.791 1628.85 330.791C1632.89 330.791 1635.81 333.011 1637.63 337.451L1640.66 344.717ZM1577.99 233.613C1570.12 233.613 1563.26 236.439 1557.4 242.09C1551.75 247.741 1548.12 255.007 1546.51 263.887H1608.87C1607.86 255.007 1604.43 247.741 1598.58 242.09C1592.93 236.439 1586.06 233.613 1577.99 233.613Z" fill="#07004D"/>
</g>
<defs>
<clipPath id="clip0">
<rect width="1672" height="564" fill="white"/>
</clipPath>
<clipPath id="clip1">
<rect width="738.323" height="599.618" fill="white" transform="translate(0 -36)"/>
</clipPath>
</defs>
</svg>
