<svg width="1672" height="564" viewBox="0 0 1672 564" fill="none" xmlns="http://www.w3.org/2000/svg">
<g clip-path="url(#clip0)">
<g clip-path="url(#clip1)">
<path d="M296.535 449.267C296.966 450.969 296.898 452.858 296.139 454.633C295.076 457.147 292.923 458.871 290.462 459.494C288.758 459.925 286.923 459.843 285.183 459.104C282.771 458.104 280.4 457.034 278.055 455.958C233.906 435.821 198.937 404.987 176.554 366.362C174.249 362.37 175.601 357.251 179.62 354.938C183.579 352.612 188.732 353.985 191.038 357.977C209.087 389.151 236.201 414.866 270.167 433.321L270.439 433.482C274.409 435.642 278.503 437.714 282.683 439.678C285.623 441.063 288.639 442.401 291.667 443.678C294.174 444.712 295.892 446.838 296.535 449.267Z" fill="#07004D"/>
<path d="M676.361 184.721C676.573 185.559 676.779 186.371 676.964 187.216C690.87 245.34 677.373 306.743 638.854 360.467C600.105 414.536 540.878 453.873 472.128 471.274C444.567 478.249 416.536 481.43 388.676 480.739C387.148 480.723 385.613 480.681 384.068 480.611C381.308 480.504 378.928 479.062 377.502 476.949C376.51 475.53 375.95 473.773 376.025 471.912C376.089 470.571 376.464 469.325 377.078 468.221C377.421 467.76 377.757 467.272 378.068 466.79C379.666 464.918 382.085 463.787 384.731 463.895C389.732 464.098 394.726 464.157 399.711 464.074C422.548 463.791 445.464 460.755 468.02 455.045C602.492 421.011 688.672 301.582 660.134 188.828C658.998 184.338 657.713 179.944 656.218 175.633C654.41 170.191 652.344 164.87 650.001 159.709C607.794 65.3785 486.915 15.0774 364.506 46.0593C282.098 66.9168 214.624 120.744 184.004 189.994C182.143 194.235 177.189 196.151 172.974 194.281C168.726 192.392 166.817 187.466 168.679 183.224C201.397 109.3 273.04 51.9415 360.398 29.831C429.149 12.4301 499.965 18.8837 559.763 47.9796C620.058 77.3267 661.473 125.896 676.361 184.721Z" fill="#07004D"/>
<path d="M669.992 164.894C670.741 169.453 667.656 173.745 663.07 174.503C660.749 174.888 658.485 175.26 656.219 175.631C483.183 204.434 478.864 221.931 459.051 302.259C452.871 327.42 445.247 358.244 431.075 396.855C429.813 400.281 428.504 403.749 427.128 407.293C418.928 428.563 409.794 447.508 399.712 464.074C396.164 469.951 392.471 475.492 388.677 480.739C384.519 486.597 380.178 492.071 375.68 497.151C359.259 515.955 340.948 529.8 320.836 538.573C313.951 541.611 307.21 543.863 300.747 545.499C263.748 554.863 235.684 544.038 234.31 543.495L222.921 538.981L231.271 530.018C257.234 502.179 270.929 476.583 278.055 455.957C279.933 450.532 281.355 445.453 282.436 440.748C282.517 440.383 282.603 440.044 282.684 439.679C283.051 437.944 283.378 436.279 283.684 434.648C286.784 416.998 284.812 406.361 284.778 406.11C283.864 401.593 286.714 397.159 291.26 396.24C295.769 395.299 300.174 398.157 301.135 402.632C301.362 403.755 303.759 415.725 300.743 435.078C300.026 439.634 299.011 444.61 297.592 449.919C291.757 471.888 279.159 499.998 252.819 531.01C266.177 533.299 289.083 534.322 314.498 523.084C331.373 515.618 346.969 504.015 361.133 488.343C364.896 484.225 368.531 479.823 372.09 475.124C373.768 472.887 375.433 470.595 377.078 468.221C377.421 467.76 377.758 467.272 378.068 466.791C389.38 450.315 399.629 430.771 408.732 408.293C409.671 405.984 410.578 403.653 411.506 401.289C427.893 358.693 436.157 325.177 442.811 298.253C453.351 255.526 460.306 227.29 489.786 206.302C516.196 187.503 558.631 175.064 650.002 159.709C653.396 159.137 656.846 158.551 660.382 157.973C664.947 157.25 669.24 160.336 669.992 164.894Z" fill="#07004D"/>
<g opacity="0.25">
<g opacity="0.25">
<path opacity="0.25" d="M283.684 434.648C289.396 435.044 295.073 435.19 300.742 435.078C300.026 439.634 299.012 444.61 297.592 449.919L296.535 449.267L282.436 440.748L270.439 433.482C274.409 435.643 278.502 437.714 282.684 439.679C283.051 437.944 283.378 436.279 283.684 434.648Z" fill="#0071BC"/>
</g>
</g>
<g opacity="0.25">
<g opacity="0.25">
<path opacity="0.25" d="M676.964 187.216C690.87 245.34 677.374 306.743 638.853 360.467C600.104 414.536 540.878 453.873 472.128 471.273C444.568 478.249 416.537 481.429 388.677 480.739L377.501 476.949L372.091 475.125C373.768 472.886 375.432 470.594 377.078 468.221C377.421 467.761 377.758 467.273 378.068 466.791C389.38 450.315 399.629 430.771 408.732 408.293C416.292 404.74 423.731 400.929 431.076 396.854C561.097 324.662 656.219 175.632 656.219 175.632L676.964 187.216Z" fill="#7150FF"/>
<path opacity="0.25" d="M676.964 187.216C690.87 245.34 677.374 306.743 638.853 360.467C600.104 414.536 540.878 453.873 472.128 471.273C444.568 478.249 416.537 481.429 388.677 480.739L377.501 476.949L372.091 475.125C373.768 472.886 375.432 470.594 377.078 468.221C377.421 467.761 377.758 467.273 378.068 466.791C389.38 450.315 399.629 430.771 408.732 408.293C416.292 404.74 423.731 400.929 431.076 396.854C561.097 324.662 656.219 175.632 656.219 175.632L676.964 187.216Z" fill="#7150FF"/>
<path opacity="0.25" d="M676.964 187.216C690.87 245.34 677.374 306.743 638.853 360.467C600.104 414.536 540.878 453.873 472.128 471.273C444.568 478.249 416.537 481.429 388.677 480.739L377.501 476.949L372.091 475.125C373.768 472.886 375.432 470.594 377.078 468.221C377.421 467.761 377.758 467.273 378.068 466.791C389.38 450.315 399.629 430.771 408.732 408.293C416.292 404.74 423.731 400.929 431.076 396.854C561.097 324.662 656.219 175.632 656.219 175.632L676.964 187.216Z" fill="#7150FF"/>
<path opacity="0.25" d="M676.964 187.216C690.87 245.34 677.374 306.743 638.853 360.467C600.104 414.536 540.878 453.873 472.128 471.273C444.568 478.249 416.537 481.429 388.677 480.739L377.501 476.949L372.091 475.125C373.768 472.886 375.432 470.594 377.078 468.221C377.421 467.761 377.758 467.273 378.068 466.791C389.38 450.315 399.629 430.771 408.732 408.293C416.292 404.74 423.731 400.929 431.076 396.854C561.097 324.662 656.219 175.632 656.219 175.632L676.964 187.216Z" fill="#7150FF"/>
<path opacity="0.25" d="M676.964 187.216C690.87 245.34 677.374 306.743 638.853 360.467C600.104 414.536 540.878 453.873 472.128 471.273C444.568 478.249 416.537 481.429 388.677 480.739L377.501 476.949L372.091 475.125C373.768 472.886 375.432 470.594 377.078 468.221C377.421 467.761 377.758 467.273 378.068 466.791C389.38 450.315 399.629 430.771 408.732 408.293C416.292 404.74 423.731 400.929 431.076 396.854C561.097 324.662 656.219 175.632 656.219 175.632L676.964 187.216Z" fill="#7150FF"/>
<path opacity="0.25" d="M676.964 187.216C690.87 245.34 677.374 306.743 638.853 360.467C600.104 414.536 540.878 453.873 472.128 471.273C444.568 478.249 416.537 481.429 388.677 480.739L377.501 476.949L372.091 475.125C373.768 472.886 375.432 470.594 377.078 468.221C377.421 467.761 377.758 467.273 378.068 466.791C389.38 450.315 399.629 430.771 408.732 408.293C416.292 404.74 423.731 400.929 431.076 396.854C561.097 324.662 656.219 175.632 656.219 175.632L676.964 187.216Z" fill="#7150FF"/>
<path opacity="0.25" d="M676.964 187.216C690.87 245.34 677.374 306.743 638.853 360.467C600.104 414.536 540.878 453.873 472.128 471.273C444.568 478.249 416.537 481.429 388.677 480.739L377.501 476.949L372.091 475.125C373.768 472.886 375.432 470.594 377.078 468.221C377.421 467.761 377.758 467.273 378.068 466.791C389.38 450.315 399.629 430.771 408.732 408.293C416.292 404.74 423.731 400.929 431.076 396.854C561.097 324.662 656.219 175.632 656.219 175.632L676.964 187.216Z" fill="#7150FF"/>
<path opacity="0.25" d="M676.964 187.216C690.87 245.34 677.374 306.743 638.853 360.467C600.104 414.536 540.878 453.873 472.128 471.273C444.568 478.249 416.537 481.429 388.677 480.739L377.501 476.949L372.091 475.125C373.768 472.886 375.432 470.594 377.078 468.221C377.421 467.761 377.758 467.273 378.068 466.791C389.38 450.315 399.629 430.771 408.732 408.293C416.292 404.74 423.731 400.929 431.076 396.854C561.097 324.662 656.219 175.632 656.219 175.632L676.964 187.216Z" fill="#7150FF"/>
<path opacity="0.25" d="M676.964 187.216C690.87 245.34 677.374 306.743 638.853 360.467C600.104 414.536 540.878 453.873 472.128 471.273C444.568 478.249 416.537 481.429 388.677 480.739L377.501 476.949L372.091 475.125C373.768 472.886 375.432 470.594 377.078 468.221C377.421 467.761 377.758 467.273 378.068 466.791C389.38 450.315 399.629 430.771 408.732 408.293C416.292 404.74 423.731 400.929 431.076 396.854C561.097 324.662 656.219 175.632 656.219 175.632L676.964 187.216Z" fill="#7150FF"/>
<path opacity="0.25" d="M676.964 187.216C690.87 245.34 677.374 306.743 638.853 360.467C600.104 414.536 540.878 453.873 472.128 471.273C444.568 478.249 416.537 481.429 388.677 480.739L377.501 476.949L372.091 475.125C373.768 472.886 375.432 470.594 377.078 468.221C377.421 467.761 377.758 467.273 378.068 466.791C389.38 450.315 399.629 430.771 408.732 408.293C416.292 404.74 423.731 400.929 431.076 396.854C561.097 324.662 656.219 175.632 656.219 175.632L676.964 187.216Z" fill="#7150FF"/>
<path opacity="0.25" d="M676.964 187.216C690.87 245.34 677.374 306.743 638.853 360.467C600.104 414.536 540.878 453.873 472.128 471.273C444.568 478.249 416.537 481.429 388.677 480.739L377.501 476.949L372.091 475.125C373.768 472.886 375.432 470.594 377.078 468.221C377.421 467.761 377.758 467.273 378.068 466.791C389.38 450.315 399.629 430.771 408.732 408.293C416.292 404.74 423.731 400.929 431.076 396.854C561.097 324.662 656.219 175.632 656.219 175.632L676.964 187.216Z" fill="#7150FF"/>
<path opacity="0.25" d="M676.964 187.216C690.87 245.34 677.374 306.743 638.853 360.467C600.104 414.536 540.878 453.873 472.128 471.273C444.568 478.249 416.537 481.429 388.677 480.739L377.501 476.949L372.091 475.125C373.768 472.886 375.432 470.594 377.078 468.221C377.421 467.761 377.758 467.273 378.068 466.791C389.38 450.315 399.629 430.771 408.732 408.293C416.292 404.74 423.731 400.929 431.076 396.854C561.097 324.662 656.219 175.632 656.219 175.632L676.964 187.216Z" fill="#7150FF"/>
<path opacity="0.25" d="M676.964 187.216C690.87 245.34 677.374 306.743 638.853 360.467C600.104 414.536 540.878 453.873 472.128 471.273C444.568 478.249 416.537 481.429 388.677 480.739L377.501 476.949L372.091 475.125C373.768 472.886 375.432 470.594 377.078 468.221C377.421 467.761 377.758 467.273 378.068 466.791C389.38 450.315 399.629 430.771 408.732 408.293C416.292 404.74 423.731 400.929 431.076 396.854C561.097 324.662 656.219 175.632 656.219 175.632L676.964 187.216Z" fill="#7150FF"/>
</g>
</g>
<g opacity="0.25">
<g opacity="0.25">
<path opacity="0.25" d="M676.964 187.216C690.87 245.34 677.374 306.743 638.853 360.467C600.104 414.536 540.878 453.873 472.128 471.273C444.568 478.249 416.537 481.429 388.677 480.739L377.501 476.949L372.091 475.125C373.768 472.886 375.432 470.594 377.078 468.221C377.421 467.761 377.758 467.273 378.068 466.791C389.38 450.315 399.629 430.771 408.732 408.293C416.292 404.74 423.731 400.929 431.076 396.854C561.097 324.662 656.219 175.632 656.219 175.632L676.964 187.216Z" fill="#7150FF"/>
<path opacity="0.25" d="M676.964 187.216C690.87 245.34 677.374 306.743 638.853 360.467C600.104 414.536 540.878 453.873 472.128 471.273C444.568 478.249 416.537 481.429 388.677 480.739L377.501 476.949L372.091 475.125C373.768 472.886 375.432 470.594 377.078 468.221C377.421 467.761 377.758 467.273 378.068 466.791C389.38 450.315 399.629 430.771 408.732 408.293C416.292 404.74 423.731 400.929 431.076 396.854C561.097 324.662 656.219 175.632 656.219 175.632L676.964 187.216Z" fill="#7150FF"/>
<path opacity="0.25" d="M676.964 187.216C690.87 245.34 677.374 306.743 638.853 360.467C600.104 414.536 540.878 453.873 472.128 471.273C444.568 478.249 416.537 481.429 388.677 480.739L377.501 476.949L372.091 475.125C373.768 472.886 375.432 470.594 377.078 468.221C377.421 467.761 377.758 467.273 378.068 466.791C389.38 450.315 399.629 430.771 408.732 408.293C416.292 404.74 423.731 400.929 431.076 396.854C561.097 324.662 656.219 175.632 656.219 175.632L676.964 187.216Z" fill="#7150FF"/>
<path opacity="0.25" d="M676.964 187.216C690.87 245.34 677.374 306.743 638.853 360.467C600.104 414.536 540.878 453.873 472.128 471.273C444.568 478.249 416.537 481.429 388.677 480.739L377.501 476.949L372.091 475.125C373.768 472.886 375.432 470.594 377.078 468.221C377.421 467.761 377.758 467.273 378.068 466.791C389.38 450.315 399.629 430.771 408.732 408.293C416.292 404.74 423.731 400.929 431.076 396.854C561.097 324.662 656.219 175.632 656.219 175.632L676.964 187.216Z" fill="#7150FF"/>
<path opacity="0.25" d="M676.964 187.216C690.87 245.34 677.374 306.743 638.853 360.467C600.104 414.536 540.878 453.873 472.128 471.273C444.568 478.249 416.537 481.429 388.677 480.739L377.501 476.949L372.091 475.125C373.768 472.886 375.432 470.594 377.078 468.221C377.421 467.761 377.758 467.273 378.068 466.791C389.38 450.315 399.629 430.771 408.732 408.293C416.292 404.74 423.731 400.929 431.076 396.854C561.097 324.662 656.219 175.632 656.219 175.632L676.964 187.216Z" fill="#7150FF"/>
<path opacity="0.25" d="M676.964 187.216C690.87 245.34 677.374 306.743 638.853 360.467C600.104 414.536 540.878 453.873 472.128 471.273C444.568 478.249 416.537 481.429 388.677 480.739L377.501 476.949L372.091 475.125C373.768 472.886 375.432 470.594 377.078 468.221C377.421 467.761 377.758 467.273 378.068 466.791C389.38 450.315 399.629 430.771 408.732 408.293C416.292 404.74 423.731 400.929 431.076 396.854C561.097 324.662 656.219 175.632 656.219 175.632L676.964 187.216Z" fill="#7150FF"/>
<path opacity="0.25" d="M676.964 187.216C690.87 245.34 677.374 306.743 638.853 360.467C600.104 414.536 540.878 453.873 472.128 471.273C444.568 478.249 416.537 481.429 388.677 480.739L377.501 476.949L372.091 475.125C373.768 472.886 375.432 470.594 377.078 468.221C377.421 467.761 377.758 467.273 378.068 466.791C389.38 450.315 399.629 430.771 408.732 408.293C416.292 404.74 423.731 400.929 431.076 396.854C561.097 324.662 656.219 175.632 656.219 175.632L676.964 187.216Z" fill="#7150FF"/>
<path opacity="0.25" d="M676.964 187.216C690.87 245.34 677.374 306.743 638.853 360.467C600.104 414.536 540.878 453.873 472.128 471.273C444.568 478.249 416.537 481.429 388.677 480.739L377.501 476.949L372.091 475.125C373.768 472.886 375.432 470.594 377.078 468.221C377.421 467.761 377.758 467.273 378.068 466.791C389.38 450.315 399.629 430.771 408.732 408.293C416.292 404.74 423.731 400.929 431.076 396.854C561.097 324.662 656.219 175.632 656.219 175.632L676.964 187.216Z" fill="#7150FF"/>
<path opacity="0.25" d="M676.964 187.216C690.87 245.34 677.374 306.743 638.853 360.467C600.104 414.536 540.878 453.873 472.128 471.273C444.568 478.249 416.537 481.429 388.677 480.739L377.501 476.949L372.091 475.125C373.768 472.886 375.432 470.594 377.078 468.221C377.421 467.761 377.758 467.273 378.068 466.791C389.38 450.315 399.629 430.771 408.732 408.293C416.292 404.74 423.731 400.929 431.076 396.854C561.097 324.662 656.219 175.632 656.219 175.632L676.964 187.216Z" fill="#7150FF"/>
<path opacity="0.25" d="M676.964 187.216C690.87 245.34 677.374 306.743 638.853 360.467C600.104 414.536 540.878 453.873 472.128 471.273C444.568 478.249 416.537 481.429 388.677 480.739L377.501 476.949L372.091 475.125C373.768 472.886 375.432 470.594 377.078 468.221C377.421 467.761 377.758 467.273 378.068 466.791C389.38 450.315 399.629 430.771 408.732 408.293C416.292 404.74 423.731 400.929 431.076 396.854C561.097 324.662 656.219 175.632 656.219 175.632L676.964 187.216Z" fill="#7150FF"/>
<path opacity="0.25" d="M676.964 187.216C690.87 245.34 677.374 306.743 638.853 360.467C600.104 414.536 540.878 453.873 472.128 471.273C444.568 478.249 416.537 481.429 388.677 480.739L377.501 476.949L372.091 475.125C373.768 472.886 375.432 470.594 377.078 468.221C377.421 467.761 377.758 467.273 378.068 466.791C389.38 450.315 399.629 430.771 408.732 408.293C416.292 404.74 423.731 400.929 431.076 396.854C561.097 324.662 656.219 175.632 656.219 175.632L676.964 187.216Z" fill="#7150FF"/>
<path opacity="0.25" d="M676.964 187.216C690.87 245.34 677.374 306.743 638.853 360.467C600.104 414.536 540.878 453.873 472.128 471.273C444.568 478.249 416.537 481.429 388.677 480.739L377.501 476.949L372.091 475.125C373.768 472.886 375.432 470.594 377.078 468.221C377.421 467.761 377.758 467.273 378.068 466.791C389.38 450.315 399.629 430.771 408.732 408.293C416.292 404.74 423.731 400.929 431.076 396.854C561.097 324.662 656.219 175.632 656.219 175.632L676.964 187.216Z" fill="#7150FF"/>
<path opacity="0.25" d="M676.964 187.216C690.87 245.34 677.374 306.743 638.853 360.467C600.104 414.536 540.878 453.873 472.128 471.273C444.568 478.249 416.537 481.429 388.677 480.739L377.501 476.949L372.091 475.125C373.768 472.886 375.432 470.594 377.078 468.221C377.421 467.761 377.758 467.273 378.068 466.791C389.38 450.315 399.629 430.771 408.732 408.293C416.292 404.74 423.731 400.929 431.076 396.854C561.097 324.662 656.219 175.632 656.219 175.632L676.964 187.216Z" fill="#7150FF"/>
</g>
</g>
<path d="M392.124 230.264C395.555 243.818 387.327 257.624 373.771 261.055C360.218 264.485 346.413 256.256 342.982 242.702C339.552 229.148 347.78 215.342 361.333 211.912C363.341 211.404 365.368 211.153 367.326 211.135C362.069 214.473 359.261 220.935 360.867 227.281C362.868 235.185 370.923 239.986 378.827 237.986C385.173 236.38 389.523 230.835 389.956 224.625C390.874 226.354 391.616 228.257 392.124 230.264Z" fill="#07004D"/>
<path d="M15 120.488C35.1486 164.614 91.7568 254.99 157 263.488" stroke="#4B27A5" stroke-width="30" stroke-linejoin="round"/>
<path d="M14 406.488C34.1486 362.671 90.7568 272.927 156 264.488" stroke="#4B27A5" stroke-width="30" stroke-linejoin="round"/>
</g>
<path d="M811.75 225L830 301L849.5 213C851.5 203.667 853.667 197.5 856 194.5C858.5 191.333 862.25 189.75 867.25 189.75C872.417 189.75 876.167 191.333 878.5 194.5C881 197.667 883.25 203.833 885.25 213L904 301L922.5 225C923.667 220.167 924.25 216 924.25 212.5V212C924.25 207.5 922.333 205.25 918.5 205.25C917 205.25 914.833 205.583 912 206.25C909.167 206.75 907 207 905.5 207C899.333 207 896.25 204.25 896.25 198.75C896.25 192.917 900.333 190 908.5 190C909.667 190 910.917 190.083 912.25 190.25L922.5 191.5C925.167 191.833 929.333 192 935 192C939.5 192 943.833 191.75 948 191.25L956.25 190.25C956.917 190.083 957.833 190 959 190C966.167 190 969.75 192.833 969.75 198.5C969.75 204 967 206.75 961.5 206.75C959.667 206.75 958.25 206.583 957.25 206.25C954.583 205.917 953.083 205.75 952.75 205.75C948.25 205.75 943.583 215 938.75 233.5L921.75 297.75C919.75 305.583 917.417 311.083 914.75 314.25C912.083 317.25 908.417 318.75 903.75 318.75C894.917 318.75 889 311.75 886 297.75L867.25 208.75L847.75 296.25C845.917 304.583 843.583 310.5 840.75 314C837.917 317.333 834.083 319 829.25 319C821.417 319 816.167 313.833 813.5 303.5L789.5 213.5C788 208.167 785.667 205.5 782.5 205.5C781.5 205.5 780 205.75 778 206.25C775.333 206.583 773.5 206.75 772.5 206.75C767 206.75 764.25 204.083 764.25 198.75C764.25 192.917 768 190 775.5 190C776.833 190 777.75 190.083 778.25 190.25L789 191.75C791.333 192.083 794.417 192.25 798.25 192.25C802.917 192.25 808.25 191.917 814.25 191.25C821.75 190.417 826.083 190 827.25 190C834.583 190 838.25 192.833 838.25 198.5C838.25 204 835.167 206.75 829 206.75C827.833 206.75 825.75 206.583 822.75 206.25C820.583 205.583 818.5 205.25 816.5 205.25C812.167 205.25 810 207.75 810 212.75C810 216.083 810.583 220.167 811.75 225ZM1016.2 154L1015.2 202.5C1021.86 196.167 1027.95 191.833 1033.45 189.5C1038.95 187 1045.45 185.75 1052.95 185.75C1067.28 185.75 1078.78 189.833 1087.45 198C1096.11 206.167 1100.45 216.917 1100.45 230.25V272C1100.45 281.833 1100.53 287.25 1100.7 288.25C1101.36 296.583 1103.53 300.75 1107.2 300.75C1108.53 300.75 1110.45 300.417 1112.95 299.75C1113.95 299.583 1115.28 299.5 1116.95 299.5C1123.11 299.5 1126.2 302.25 1126.2 307.75C1126.2 313.25 1122.2 316 1114.2 316C1112.03 316 1108.86 315.75 1104.7 315.25C1097.7 314.417 1092.03 314 1087.7 314C1083.36 314 1080.03 314.167 1077.7 314.5C1070.7 315.5 1066.36 316 1064.7 316C1061.7 316 1059.2 315.167 1057.2 313.5C1055.2 311.667 1054.2 309.417 1054.2 306.75C1054.2 304.583 1055.03 302.75 1056.7 301.25C1058.53 299.75 1060.61 299 1062.95 299C1064.78 299 1066.95 299.417 1069.45 300.25C1070.95 300.75 1072.36 301 1073.7 301C1078.7 301 1081.28 295.583 1081.45 284.75C1081.45 282.75 1081.53 278.833 1081.7 273L1081.95 262.25V248.75C1081.95 231.75 1080.28 220.333 1076.95 214.5C1072.11 205.833 1063.61 201.5 1051.45 201.5C1038.28 201.5 1028.7 206 1022.7 215C1018.53 221.167 1016.36 231.083 1016.2 244.75L1015.95 262.75C1015.95 263.75 1015.86 265.417 1015.7 267.75C1015.7 269.917 1015.7 271.5 1015.7 272.5C1015.7 282 1015.78 287.5 1015.95 289C1016.78 297.167 1019.2 301.25 1023.2 301.25C1024.53 301.25 1026.36 301 1028.7 300.5C1031.2 299.833 1033.03 299.5 1034.2 299.5C1039.53 299.5 1042.2 302.083 1042.2 307.25C1042.2 313.083 1038.53 316 1031.2 316C1028.86 316 1025.36 315.75 1020.7 315.25C1014.36 314.583 1008.95 314.25 1004.45 314.25C1001.61 314.25 997.695 314.5 992.695 315C986.029 315.667 981.779 316 979.945 316C973.112 316 969.695 313 969.695 307C969.695 302 972.862 299.5 979.195 299.5C981.362 299.5 982.945 299.667 983.945 300C986.779 300.5 988.779 300.75 989.945 300.75C992.612 300.75 994.362 298.25 995.195 293.25C996.195 288.083 996.779 277.667 996.945 262L997.195 217.25C997.195 192.25 996.695 176.5 995.695 170C994.695 163.333 992.362 160 988.695 160C987.529 160 985.779 160.25 983.445 160.75C981.112 161.25 979.279 161.5 977.945 161.5C972.279 161.5 969.445 158.833 969.445 153.5C969.445 151.167 970.445 149.167 972.445 147.5C974.445 145.833 976.862 145 979.695 145C980.529 145 983.362 145.25 988.195 145.75C991.362 146.083 994.779 146.25 998.445 146.25C999.945 146.25 1002.03 146.083 1004.7 145.75C1007.36 145.417 1009.28 145.25 1010.45 145.25C1014.28 145.25 1016.2 148 1016.2 153.5V154ZM1243.63 318.25C1229.96 318.25 1221.54 312.333 1218.38 300.5C1209.88 313 1196.54 319.25 1178.38 319.25C1164.88 319.25 1154.04 315.917 1145.88 309.25C1137.88 302.583 1133.88 293.667 1133.88 282.5C1133.88 268.667 1139.79 258.5 1151.63 252C1156.13 249.5 1159.96 247.917 1163.12 247.25C1166.46 246.417 1173.04 245.417 1182.88 244.25C1196.88 242.75 1205.96 240.667 1210.13 238C1214.46 235.333 1216.63 230.417 1216.63 223.25C1216.63 216.417 1214.21 211.083 1209.38 207.25C1204.71 203.25 1198.13 201.25 1189.63 201.25C1182.13 201.25 1175.13 203.333 1168.63 207.5C1166.13 209.167 1164.88 210.917 1164.88 212.75C1164.88 213.417 1165.63 214.25 1167.13 215.25C1169.46 216.917 1170.63 219.75 1170.63 223.75C1170.63 227.083 1169.38 229.833 1166.88 232C1164.54 234.167 1161.54 235.25 1157.88 235.25C1153.54 235.25 1149.88 233.75 1146.88 230.75C1144.04 227.75 1142.63 224.083 1142.63 219.75C1142.63 210.417 1147.21 202.417 1156.38 195.75C1165.71 189.083 1176.96 185.75 1190.13 185.75C1220.46 185.75 1235.63 200.333 1235.63 229.5V280C1235.63 288 1235.79 292.75 1236.13 294.25C1237.13 300.083 1239.96 303 1244.63 303C1250.46 303 1253.38 297.667 1253.38 287V274.75C1253.38 269.417 1255.96 266.75 1261.13 266.75C1266.63 266.75 1269.38 270.75 1269.38 278.75V280L1269.13 294.25C1268.79 310.25 1260.29 318.25 1243.63 318.25ZM1215.88 268.5L1216.13 250.75C1212.46 254.083 1208.54 256.417 1204.38 257.75C1200.38 259.083 1193.13 260.25 1182.63 261.25C1163.63 263.083 1154.13 270.083 1154.13 282.25C1154.13 288.583 1156.38 293.583 1160.88 297.25C1165.54 300.917 1171.79 302.75 1179.63 302.75C1190.79 302.75 1199.54 299.75 1205.88 293.75C1212.38 287.583 1215.71 279.167 1215.88 268.5ZM1316.24 210.5L1316.49 288.25C1316.65 296.75 1318.9 301 1323.24 301C1324.24 301 1326.32 300.583 1329.49 299.75C1331.49 299.417 1332.82 299.25 1333.49 299.25C1338.99 299.25 1341.74 302.083 1341.74 307.75C1341.74 313.25 1338.32 316 1331.49 316C1328.82 316 1324.57 315.667 1318.74 315C1312.9 314.333 1308.4 314 1305.24 314C1302.57 314 1298.57 314.333 1293.24 315C1287.9 315.667 1283.99 316 1281.49 316H1280.24C1273.24 316 1269.74 313 1269.74 307C1269.74 301.833 1272.57 299.25 1278.24 299.25C1278.57 299.25 1279.15 299.25 1279.99 299.25C1280.99 299.417 1281.74 299.5 1282.24 299.5C1286.4 300.167 1288.82 300.5 1289.49 300.5C1292.49 300.5 1294.32 299.25 1294.99 296.75C1295.82 294.083 1296.32 287.333 1296.49 276.5L1296.74 259L1297.49 220.25L1297.24 175.75C1297.07 170.75 1296.82 167.417 1296.49 165.75C1295.32 161.917 1292.99 160 1289.49 160C1288.99 160 1286.82 160.333 1282.99 161C1281.15 161.333 1279.65 161.5 1278.49 161.5C1272.82 161.5 1269.99 158.833 1269.99 153.5C1269.99 148 1273.32 145.25 1279.99 145.25C1281.82 145.25 1283.4 145.333 1284.74 145.5L1290.74 146.25C1293.4 146.583 1295.65 146.75 1297.49 146.75C1299.15 146.75 1301.65 146.5 1304.99 146C1308.32 145.333 1310.82 145 1312.49 145C1316.32 145 1318.24 147.417 1318.24 152.25C1318.24 153.917 1318.15 155.167 1317.99 156C1316.82 168.833 1316.24 187 1316.24 210.5ZM1467.89 241.5C1467.89 247.833 1467.47 251.75 1466.64 253.25C1465.8 254.583 1463.39 255.25 1459.39 255.25H1379.89C1377.72 255.25 1376.3 255.583 1375.64 256.25C1374.97 256.75 1374.64 257.667 1374.64 259C1374.64 271.5 1378.39 281.917 1385.89 290.25C1393.39 298.583 1402.72 302.75 1413.89 302.75C1421.22 302.75 1427.89 300.75 1433.89 296.75C1440.05 292.75 1444.05 287.667 1445.89 281.5L1448.14 274.25C1449.3 270.25 1452.05 268.25 1456.39 268.25C1462.55 268.25 1465.64 271.417 1465.64 277.75C1465.64 288.583 1460.14 298.25 1449.14 306.75C1438.14 315.083 1425.64 319.25 1411.64 319.25C1394.14 319.25 1380.22 313.417 1369.89 301.75C1359.55 289.917 1354.39 274.083 1354.39 254.25C1354.39 233.917 1359.89 217.417 1370.89 204.75C1381.89 192.083 1396.22 185.75 1413.89 185.75C1429.55 185.75 1442.47 191 1452.64 201.5C1462.8 212 1467.89 225.333 1467.89 241.5ZM1377.14 235C1377.14 237.333 1378.97 238.5 1382.64 238.5H1442.39C1445.89 238.5 1447.64 237.333 1447.64 235C1447.64 226.167 1444.3 218.5 1437.64 212C1430.97 205.5 1423.14 202.25 1414.14 202.25C1404.8 202.25 1396.3 205.667 1388.64 212.5C1380.97 219.167 1377.14 226.667 1377.14 235Z" fill="#07004D"/>
<path d="M811.75 225L830 301L849.5 213C851.5 203.667 853.667 197.5 856 194.5C858.5 191.333 862.25 189.75 867.25 189.75C872.417 189.75 876.167 191.333 878.5 194.5C881 197.667 883.25 203.833 885.25 213L904 301L922.5 225C923.667 220.167 924.25 216 924.25 212.5V212C924.25 207.5 922.333 205.25 918.5 205.25C917 205.25 914.833 205.583 912 206.25C909.167 206.75 907 207 905.5 207C899.333 207 896.25 204.25 896.25 198.75C896.25 192.917 900.333 190 908.5 190C909.667 190 910.917 190.083 912.25 190.25L922.5 191.5C925.167 191.833 929.333 192 935 192C939.5 192 943.833 191.75 948 191.25L956.25 190.25C956.917 190.083 957.833 190 959 190C966.167 190 969.75 192.833 969.75 198.5C969.75 204 967 206.75 961.5 206.75C959.667 206.75 958.25 206.583 957.25 206.25C954.583 205.917 953.083 205.75 952.75 205.75C948.25 205.75 943.583 215 938.75 233.5L921.75 297.75C919.75 305.583 917.417 311.083 914.75 314.25C912.083 317.25 908.417 318.75 903.75 318.75C894.917 318.75 889 311.75 886 297.75L867.25 208.75L847.75 296.25C845.917 304.583 843.583 310.5 840.75 314C837.917 317.333 834.083 319 829.25 319C821.417 319 816.167 313.833 813.5 303.5L789.5 213.5C788 208.167 785.667 205.5 782.5 205.5C781.5 205.5 780 205.75 778 206.25C775.333 206.583 773.5 206.75 772.5 206.75C767 206.75 764.25 204.083 764.25 198.75C764.25 192.917 768 190 775.5 190C776.833 190 777.75 190.083 778.25 190.25L789 191.75C791.333 192.083 794.417 192.25 798.25 192.25C802.917 192.25 808.25 191.917 814.25 191.25C821.75 190.417 826.083 190 827.25 190C834.583 190 838.25 192.833 838.25 198.5C838.25 204 835.167 206.75 829 206.75C827.833 206.75 825.75 206.583 822.75 206.25C820.583 205.583 818.5 205.25 816.5 205.25C812.167 205.25 810 207.75 810 212.75C810 216.083 810.583 220.167 811.75 225ZM1016.2 154L1015.2 202.5C1021.86 196.167 1027.95 191.833 1033.45 189.5C1038.95 187 1045.45 185.75 1052.95 185.75C1067.28 185.75 1078.78 189.833 1087.45 198C1096.11 206.167 1100.45 216.917 1100.45 230.25V272C1100.45 281.833 1100.53 287.25 1100.7 288.25C1101.36 296.583 1103.53 300.75 1107.2 300.75C1108.53 300.75 1110.45 300.417 1112.95 299.75C1113.95 299.583 1115.28 299.5 1116.95 299.5C1123.11 299.5 1126.2 302.25 1126.2 307.75C1126.2 313.25 1122.2 316 1114.2 316C1112.03 316 1108.86 315.75 1104.7 315.25C1097.7 314.417 1092.03 314 1087.7 314C1083.36 314 1080.03 314.167 1077.7 314.5C1070.7 315.5 1066.36 316 1064.7 316C1061.7 316 1059.2 315.167 1057.2 313.5C1055.2 311.667 1054.2 309.417 1054.2 306.75C1054.2 304.583 1055.03 302.75 1056.7 301.25C1058.53 299.75 1060.61 299 1062.95 299C1064.78 299 1066.95 299.417 1069.45 300.25C1070.95 300.75 1072.36 301 1073.7 301C1078.7 301 1081.28 295.583 1081.45 284.75C1081.45 282.75 1081.53 278.833 1081.7 273L1081.95 262.25V248.75C1081.95 231.75 1080.28 220.333 1076.95 214.5C1072.11 205.833 1063.61 201.5 1051.45 201.5C1038.28 201.5 1028.7 206 1022.7 215C1018.53 221.167 1016.36 231.083 1016.2 244.75L1015.95 262.75C1015.95 263.75 1015.86 265.417 1015.7 267.75C1015.7 269.917 1015.7 271.5 1015.7 272.5C1015.7 282 1015.78 287.5 1015.95 289C1016.78 297.167 1019.2 301.25 1023.2 301.25C1024.53 301.25 1026.36 301 1028.7 300.5C1031.2 299.833 1033.03 299.5 1034.2 299.5C1039.53 299.5 1042.2 302.083 1042.2 307.25C1042.2 313.083 1038.53 316 1031.2 316C1028.86 316 1025.36 315.75 1020.7 315.25C1014.36 314.583 1008.95 314.25 1004.45 314.25C1001.61 314.25 997.695 314.5 992.695 315C986.029 315.667 981.779 316 979.945 316C973.112 316 969.695 313 969.695 307C969.695 302 972.862 299.5 979.195 299.5C981.362 299.5 982.945 299.667 983.945 300C986.779 300.5 988.779 300.75 989.945 300.75C992.612 300.75 994.362 298.25 995.195 293.25C996.195 288.083 996.779 277.667 996.945 262L997.195 217.25C997.195 192.25 996.695 176.5 995.695 170C994.695 163.333 992.362 160 988.695 160C987.529 160 985.779 160.25 983.445 160.75C981.112 161.25 979.279 161.5 977.945 161.5C972.279 161.5 969.445 158.833 969.445 153.5C969.445 151.167 970.445 149.167 972.445 147.5C974.445 145.833 976.862 145 979.695 145C980.529 145 983.362 145.25 988.195 145.75C991.362 146.083 994.779 146.25 998.445 146.25C999.945 146.25 1002.03 146.083 1004.7 145.75C1007.36 145.417 1009.28 145.25 1010.45 145.25C1014.28 145.25 1016.2 148 1016.2 153.5V154ZM1243.63 318.25C1229.96 318.25 1221.54 312.333 1218.38 300.5C1209.88 313 1196.54 319.25 1178.38 319.25C1164.88 319.25 1154.04 315.917 1145.88 309.25C1137.88 302.583 1133.88 293.667 1133.88 282.5C1133.88 268.667 1139.79 258.5 1151.63 252C1156.13 249.5 1159.96 247.917 1163.12 247.25C1166.46 246.417 1173.04 245.417 1182.88 244.25C1196.88 242.75 1205.96 240.667 1210.13 238C1214.46 235.333 1216.63 230.417 1216.63 223.25C1216.63 216.417 1214.21 211.083 1209.38 207.25C1204.71 203.25 1198.13 201.25 1189.63 201.25C1182.13 201.25 1175.13 203.333 1168.63 207.5C1166.13 209.167 1164.88 210.917 1164.88 212.75C1164.88 213.417 1165.63 214.25 1167.13 215.25C1169.46 216.917 1170.63 219.75 1170.63 223.75C1170.63 227.083 1169.38 229.833 1166.88 232C1164.54 234.167 1161.54 235.25 1157.88 235.25C1153.54 235.25 1149.88 233.75 1146.88 230.75C1144.04 227.75 1142.63 224.083 1142.63 219.75C1142.63 210.417 1147.21 202.417 1156.38 195.75C1165.71 189.083 1176.96 185.75 1190.13 185.75C1220.46 185.75 1235.63 200.333 1235.63 229.5V280C1235.63 288 1235.79 292.75 1236.13 294.25C1237.13 300.083 1239.96 303 1244.63 303C1250.46 303 1253.38 297.667 1253.38 287V274.75C1253.38 269.417 1255.96 266.75 1261.13 266.75C1266.63 266.75 1269.38 270.75 1269.38 278.75V280L1269.13 294.25C1268.79 310.25 1260.29 318.25 1243.63 318.25ZM1215.88 268.5L1216.13 250.75C1212.46 254.083 1208.54 256.417 1204.38 257.75C1200.38 259.083 1193.13 260.25 1182.63 261.25C1163.63 263.083 1154.13 270.083 1154.13 282.25C1154.13 288.583 1156.38 293.583 1160.88 297.25C1165.54 300.917 1171.79 302.75 1179.63 302.75C1190.79 302.75 1199.54 299.75 1205.88 293.75C1212.38 287.583 1215.71 279.167 1215.88 268.5ZM1316.24 210.5L1316.49 288.25C1316.65 296.75 1318.9 301 1323.24 301C1324.24 301 1326.32 300.583 1329.49 299.75C1331.49 299.417 1332.82 299.25 1333.49 299.25C1338.99 299.25 1341.74 302.083 1341.74 307.75C1341.74 313.25 1338.32 316 1331.49 316C1328.82 316 1324.57 315.667 1318.74 315C1312.9 314.333 1308.4 314 1305.24 314C1302.57 314 1298.57 314.333 1293.24 315C1287.9 315.667 1283.99 316 1281.49 316H1280.24C1273.24 316 1269.74 313 1269.74 307C1269.74 301.833 1272.57 299.25 1278.24 299.25C1278.57 299.25 1279.15 299.25 1279.99 299.25C1280.99 299.417 1281.74 299.5 1282.24 299.5C1286.4 300.167 1288.82 300.5 1289.49 300.5C1292.49 300.5 1294.32 299.25 1294.99 296.75C1295.82 294.083 1296.32 287.333 1296.49 276.5L1296.74 259L1297.49 220.25L1297.24 175.75C1297.07 170.75 1296.82 167.417 1296.49 165.75C1295.32 161.917 1292.99 160 1289.49 160C1288.99 160 1286.82 160.333 1282.99 161C1281.15 161.333 1279.65 161.5 1278.49 161.5C1272.82 161.5 1269.99 158.833 1269.99 153.5C1269.99 148 1273.32 145.25 1279.99 145.25C1281.82 145.25 1283.4 145.333 1284.74 145.5L1290.74 146.25C1293.4 146.583 1295.65 146.75 1297.49 146.75C1299.15 146.75 1301.65 146.5 1304.99 146C1308.32 145.333 1310.82 145 1312.49 145C1316.32 145 1318.24 147.417 1318.24 152.25C1318.24 153.917 1318.15 155.167 1317.99 156C1316.82 168.833 1316.24 187 1316.24 210.5ZM1467.89 241.5C1467.89 247.833 1467.47 251.75 1466.64 253.25C1465.8 254.583 1463.39 255.25 1459.39 255.25H1379.89C1377.72 255.25 1376.3 255.583 1375.64 256.25C1374.97 256.75 1374.64 257.667 1374.64 259C1374.64 271.5 1378.39 281.917 1385.89 290.25C1393.39 298.583 1402.72 302.75 1413.89 302.75C1421.22 302.75 1427.89 300.75 1433.89 296.75C1440.05 292.75 1444.05 287.667 1445.89 281.5L1448.14 274.25C1449.3 270.25 1452.05 268.25 1456.39 268.25C1462.55 268.25 1465.64 271.417 1465.64 277.75C1465.64 288.583 1460.14 298.25 1449.14 306.75C1438.14 315.083 1425.64 319.25 1411.64 319.25C1394.14 319.25 1380.22 313.417 1369.89 301.75C1359.55 289.917 1354.39 274.083 1354.39 254.25C1354.39 233.917 1359.89 217.417 1370.89 204.75C1381.89 192.083 1396.22 185.75 1413.89 185.75C1429.55 185.75 1442.47 191 1452.64 201.5C1462.8 212 1467.89 225.333 1467.89 241.5ZM1377.14 235C1377.14 237.333 1378.97 238.5 1382.64 238.5H1442.39C1445.89 238.5 1447.64 237.333 1447.64 235C1447.64 226.167 1444.3 218.5 1437.64 212C1430.97 205.5 1423.14 202.25 1414.14 202.25C1404.8 202.25 1396.3 205.667 1388.64 212.5C1380.97 219.167 1377.14 226.667 1377.14 235Z" fill="url(#paint0_linear)"/>
</g>
<defs>
<linearGradient id="paint0_linear" x1="1495.75" y1="292.463" x2="204.541" y2="283.661" gradientUnits="userSpaceOnUse">
<stop stop-color="white" stop-opacity="0"/>
<stop offset="1" stop-color="#4B27A5"/>
</linearGradient>
<clipPath id="clip0">
<rect width="1672" height="564" fill="white"/>
</clipPath>
<clipPath id="clip1">
<rect width="738.323" height="599.618" fill="white" transform="translate(0 -36)"/>
</clipPath>
</defs>
</svg>
