<svg width="1747" height="600" viewBox="0 0 1747 600" fill="none" xmlns="http://www.w3.org/2000/svg">
<g clip-path="url(#clip0)">
<path d="M296.535 485.267C296.966 486.969 296.898 488.858 296.139 490.633C295.076 493.147 292.923 494.871 290.462 495.494C288.758 495.925 286.923 495.843 285.183 495.104C282.771 494.104 280.4 493.034 278.055 491.958C233.906 471.821 198.937 440.987 176.554 402.362C174.249 398.37 175.601 393.251 179.62 390.938C183.579 388.612 188.732 389.985 191.038 393.977C209.087 425.151 236.201 450.866 270.167 469.321L270.439 469.482C274.409 471.642 278.503 473.714 282.683 475.678C285.623 477.063 288.639 478.401 291.667 479.678C294.174 480.712 295.892 482.838 296.535 485.267Z" fill="#07004D"/>
<path d="M676.361 220.721C676.573 221.559 676.779 222.371 676.964 223.216C690.87 281.34 677.373 342.743 638.854 396.467C600.105 450.536 540.878 489.873 472.128 507.274C444.567 514.249 416.536 517.43 388.676 516.739C387.148 516.723 385.613 516.681 384.068 516.611C381.308 516.504 378.928 515.062 377.502 512.949C376.51 511.53 375.95 509.773 376.025 507.912C376.089 506.571 376.464 505.325 377.078 504.221C377.421 503.76 377.757 503.272 378.068 502.79C379.666 500.918 382.085 499.787 384.731 499.895C389.732 500.098 394.726 500.157 399.711 500.074C422.548 499.791 445.464 496.755 468.02 491.045C602.492 457.011 688.672 337.582 660.134 224.828C658.998 220.338 657.713 215.944 656.218 211.633C654.41 206.191 652.344 200.87 650.001 195.709C607.794 101.379 486.915 51.0774 364.506 82.0593C282.098 102.917 214.624 156.744 184.004 225.994C182.143 230.235 177.189 232.151 172.974 230.281C168.726 228.392 166.817 223.466 168.679 219.224C201.397 145.3 273.04 87.9415 360.398 65.831C429.149 48.4301 499.965 54.8837 559.763 83.9796C620.058 113.327 661.473 161.896 676.361 220.721Z" fill="#07004D"/>
<path d="M669.992 200.894C670.741 205.453 667.656 209.745 663.07 210.503C660.749 210.888 658.485 211.26 656.219 211.631C483.183 240.434 478.864 257.931 459.051 338.259C452.871 363.42 445.247 394.244 431.075 432.855C429.813 436.281 428.504 439.749 427.128 443.293C418.928 464.563 409.794 483.508 399.712 500.074C396.164 505.951 392.471 511.492 388.677 516.739C384.519 522.597 380.178 528.071 375.68 533.151C359.259 551.955 340.948 565.8 320.836 574.573C313.951 577.611 307.21 579.863 300.747 581.499C263.748 590.863 235.684 580.038 234.31 579.495L222.921 574.981L231.271 566.018C257.234 538.179 270.929 512.583 278.055 491.957C279.933 486.532 281.355 481.453 282.436 476.748C282.517 476.383 282.603 476.044 282.684 475.679C283.051 473.944 283.378 472.279 283.684 470.648C286.784 452.998 284.812 442.361 284.778 442.11C283.864 437.593 286.714 433.159 291.26 432.24C295.769 431.299 300.174 434.157 301.135 438.632C301.362 439.755 303.759 451.725 300.743 471.078C300.026 475.634 299.011 480.61 297.592 485.919C291.757 507.888 279.159 535.998 252.819 567.01C266.177 569.299 289.083 570.322 314.498 559.084C331.373 551.618 346.969 540.015 361.133 524.343C364.896 520.225 368.531 515.823 372.09 511.124C373.768 508.887 375.433 506.595 377.078 504.221C377.421 503.76 377.758 503.272 378.068 502.791C389.38 486.315 399.629 466.771 408.732 444.293C409.671 441.984 410.578 439.653 411.506 437.289C427.893 394.693 436.157 361.177 442.811 334.253C453.351 291.526 460.306 263.29 489.786 242.302C516.196 223.503 558.631 211.064 650.002 195.709C653.396 195.137 656.846 194.551 660.382 193.973C664.947 193.25 669.24 196.336 669.992 200.894Z" fill="#07004D"/>
<g opacity="0.25">
<g opacity="0.25">
<path opacity="0.25" d="M283.684 470.648C289.396 471.044 295.073 471.19 300.742 471.078C300.026 475.634 299.012 480.61 297.592 485.919L296.535 485.267L282.436 476.748L270.439 469.482C274.409 471.643 278.502 473.714 282.684 475.679C283.051 473.944 283.378 472.279 283.684 470.648Z" fill="#0071BC"/>
</g>
</g>
<g opacity="0.25">
<g opacity="0.25">
<path opacity="0.25" d="M676.964 223.216C690.87 281.34 677.374 342.743 638.853 396.467C600.104 450.536 540.878 489.873 472.128 507.273C444.568 514.249 416.537 517.429 388.677 516.739L377.501 512.949L372.091 511.125C373.768 508.886 375.432 506.594 377.078 504.221C377.421 503.761 377.758 503.273 378.068 502.791C389.38 486.315 399.629 466.771 408.732 444.293C416.292 440.74 423.731 436.929 431.076 432.854C561.097 360.662 656.219 211.632 656.219 211.632L676.964 223.216Z" fill="#7150FF"/>
<path opacity="0.25" d="M676.964 223.216C690.87 281.34 677.374 342.743 638.853 396.467C600.104 450.536 540.878 489.873 472.128 507.273C444.568 514.249 416.537 517.429 388.677 516.739L377.501 512.949L372.091 511.125C373.768 508.886 375.432 506.594 377.078 504.221C377.421 503.761 377.758 503.273 378.068 502.791C389.38 486.315 399.629 466.771 408.732 444.293C416.292 440.74 423.731 436.929 431.076 432.854C561.097 360.662 656.219 211.632 656.219 211.632L676.964 223.216Z" fill="#7150FF"/>
<path opacity="0.25" d="M676.964 223.216C690.87 281.34 677.374 342.743 638.853 396.467C600.104 450.536 540.878 489.873 472.128 507.273C444.568 514.249 416.537 517.429 388.677 516.739L377.501 512.949L372.091 511.125C373.768 508.886 375.432 506.594 377.078 504.221C377.421 503.761 377.758 503.273 378.068 502.791C389.38 486.315 399.629 466.771 408.732 444.293C416.292 440.74 423.731 436.929 431.076 432.854C561.097 360.662 656.219 211.632 656.219 211.632L676.964 223.216Z" fill="#7150FF"/>
<path opacity="0.25" d="M676.964 223.216C690.87 281.34 677.374 342.743 638.853 396.467C600.104 450.536 540.878 489.873 472.128 507.273C444.568 514.249 416.537 517.429 388.677 516.739L377.501 512.949L372.091 511.125C373.768 508.886 375.432 506.594 377.078 504.221C377.421 503.761 377.758 503.273 378.068 502.791C389.38 486.315 399.629 466.771 408.732 444.293C416.292 440.74 423.731 436.929 431.076 432.854C561.097 360.662 656.219 211.632 656.219 211.632L676.964 223.216Z" fill="#7150FF"/>
<path opacity="0.25" d="M676.964 223.216C690.87 281.34 677.374 342.743 638.853 396.467C600.104 450.536 540.878 489.873 472.128 507.273C444.568 514.249 416.537 517.429 388.677 516.739L377.501 512.949L372.091 511.125C373.768 508.886 375.432 506.594 377.078 504.221C377.421 503.761 377.758 503.273 378.068 502.791C389.38 486.315 399.629 466.771 408.732 444.293C416.292 440.74 423.731 436.929 431.076 432.854C561.097 360.662 656.219 211.632 656.219 211.632L676.964 223.216Z" fill="#7150FF"/>
<path opacity="0.25" d="M676.964 223.216C690.87 281.34 677.374 342.743 638.853 396.467C600.104 450.536 540.878 489.873 472.128 507.273C444.568 514.249 416.537 517.429 388.677 516.739L377.501 512.949L372.091 511.125C373.768 508.886 375.432 506.594 377.078 504.221C377.421 503.761 377.758 503.273 378.068 502.791C389.38 486.315 399.629 466.771 408.732 444.293C416.292 440.74 423.731 436.929 431.076 432.854C561.097 360.662 656.219 211.632 656.219 211.632L676.964 223.216Z" fill="#7150FF"/>
<path opacity="0.25" d="M676.964 223.216C690.87 281.34 677.374 342.743 638.853 396.467C600.104 450.536 540.878 489.873 472.128 507.273C444.568 514.249 416.537 517.429 388.677 516.739L377.501 512.949L372.091 511.125C373.768 508.886 375.432 506.594 377.078 504.221C377.421 503.761 377.758 503.273 378.068 502.791C389.38 486.315 399.629 466.771 408.732 444.293C416.292 440.74 423.731 436.929 431.076 432.854C561.097 360.662 656.219 211.632 656.219 211.632L676.964 223.216Z" fill="#7150FF"/>
<path opacity="0.25" d="M676.964 223.216C690.87 281.34 677.374 342.743 638.853 396.467C600.104 450.536 540.878 489.873 472.128 507.273C444.568 514.249 416.537 517.429 388.677 516.739L377.501 512.949L372.091 511.125C373.768 508.886 375.432 506.594 377.078 504.221C377.421 503.761 377.758 503.273 378.068 502.791C389.38 486.315 399.629 466.771 408.732 444.293C416.292 440.74 423.731 436.929 431.076 432.854C561.097 360.662 656.219 211.632 656.219 211.632L676.964 223.216Z" fill="#7150FF"/>
<path opacity="0.25" d="M676.964 223.216C690.87 281.34 677.374 342.743 638.853 396.467C600.104 450.536 540.878 489.873 472.128 507.273C444.568 514.249 416.537 517.429 388.677 516.739L377.501 512.949L372.091 511.125C373.768 508.886 375.432 506.594 377.078 504.221C377.421 503.761 377.758 503.273 378.068 502.791C389.38 486.315 399.629 466.771 408.732 444.293C416.292 440.74 423.731 436.929 431.076 432.854C561.097 360.662 656.219 211.632 656.219 211.632L676.964 223.216Z" fill="#7150FF"/>
<path opacity="0.25" d="M676.964 223.216C690.87 281.34 677.374 342.743 638.853 396.467C600.104 450.536 540.878 489.873 472.128 507.273C444.568 514.249 416.537 517.429 388.677 516.739L377.501 512.949L372.091 511.125C373.768 508.886 375.432 506.594 377.078 504.221C377.421 503.761 377.758 503.273 378.068 502.791C389.38 486.315 399.629 466.771 408.732 444.293C416.292 440.74 423.731 436.929 431.076 432.854C561.097 360.662 656.219 211.632 656.219 211.632L676.964 223.216Z" fill="#7150FF"/>
<path opacity="0.25" d="M676.964 223.216C690.87 281.34 677.374 342.743 638.853 396.467C600.104 450.536 540.878 489.873 472.128 507.273C444.568 514.249 416.537 517.429 388.677 516.739L377.501 512.949L372.091 511.125C373.768 508.886 375.432 506.594 377.078 504.221C377.421 503.761 377.758 503.273 378.068 502.791C389.38 486.315 399.629 466.771 408.732 444.293C416.292 440.74 423.731 436.929 431.076 432.854C561.097 360.662 656.219 211.632 656.219 211.632L676.964 223.216Z" fill="#7150FF"/>
<path opacity="0.25" d="M676.964 223.216C690.87 281.34 677.374 342.743 638.853 396.467C600.104 450.536 540.878 489.873 472.128 507.273C444.568 514.249 416.537 517.429 388.677 516.739L377.501 512.949L372.091 511.125C373.768 508.886 375.432 506.594 377.078 504.221C377.421 503.761 377.758 503.273 378.068 502.791C389.38 486.315 399.629 466.771 408.732 444.293C416.292 440.74 423.731 436.929 431.076 432.854C561.097 360.662 656.219 211.632 656.219 211.632L676.964 223.216Z" fill="#7150FF"/>
<path opacity="0.25" d="M676.964 223.216C690.87 281.34 677.374 342.743 638.853 396.467C600.104 450.536 540.878 489.873 472.128 507.273C444.568 514.249 416.537 517.429 388.677 516.739L377.501 512.949L372.091 511.125C373.768 508.886 375.432 506.594 377.078 504.221C377.421 503.761 377.758 503.273 378.068 502.791C389.38 486.315 399.629 466.771 408.732 444.293C416.292 440.74 423.731 436.929 431.076 432.854C561.097 360.662 656.219 211.632 656.219 211.632L676.964 223.216Z" fill="#7150FF"/>
</g>
</g>
<g opacity="0.25">
<g opacity="0.25">
<path opacity="0.25" d="M676.964 223.216C690.87 281.34 677.374 342.743 638.853 396.467C600.104 450.536 540.878 489.873 472.128 507.273C444.568 514.249 416.537 517.429 388.677 516.739L377.501 512.949L372.091 511.125C373.768 508.886 375.432 506.594 377.078 504.221C377.421 503.761 377.758 503.273 378.068 502.791C389.38 486.315 399.629 466.771 408.732 444.293C416.292 440.74 423.731 436.929 431.076 432.854C561.097 360.662 656.219 211.632 656.219 211.632L676.964 223.216Z" fill="#7150FF"/>
<path opacity="0.25" d="M676.964 223.216C690.87 281.34 677.374 342.743 638.853 396.467C600.104 450.536 540.878 489.873 472.128 507.273C444.568 514.249 416.537 517.429 388.677 516.739L377.501 512.949L372.091 511.125C373.768 508.886 375.432 506.594 377.078 504.221C377.421 503.761 377.758 503.273 378.068 502.791C389.38 486.315 399.629 466.771 408.732 444.293C416.292 440.74 423.731 436.929 431.076 432.854C561.097 360.662 656.219 211.632 656.219 211.632L676.964 223.216Z" fill="#7150FF"/>
<path opacity="0.25" d="M676.964 223.216C690.87 281.34 677.374 342.743 638.853 396.467C600.104 450.536 540.878 489.873 472.128 507.273C444.568 514.249 416.537 517.429 388.677 516.739L377.501 512.949L372.091 511.125C373.768 508.886 375.432 506.594 377.078 504.221C377.421 503.761 377.758 503.273 378.068 502.791C389.38 486.315 399.629 466.771 408.732 444.293C416.292 440.74 423.731 436.929 431.076 432.854C561.097 360.662 656.219 211.632 656.219 211.632L676.964 223.216Z" fill="#7150FF"/>
<path opacity="0.25" d="M676.964 223.216C690.87 281.34 677.374 342.743 638.853 396.467C600.104 450.536 540.878 489.873 472.128 507.273C444.568 514.249 416.537 517.429 388.677 516.739L377.501 512.949L372.091 511.125C373.768 508.886 375.432 506.594 377.078 504.221C377.421 503.761 377.758 503.273 378.068 502.791C389.38 486.315 399.629 466.771 408.732 444.293C416.292 440.74 423.731 436.929 431.076 432.854C561.097 360.662 656.219 211.632 656.219 211.632L676.964 223.216Z" fill="#7150FF"/>
<path opacity="0.25" d="M676.964 223.216C690.87 281.34 677.374 342.743 638.853 396.467C600.104 450.536 540.878 489.873 472.128 507.273C444.568 514.249 416.537 517.429 388.677 516.739L377.501 512.949L372.091 511.125C373.768 508.886 375.432 506.594 377.078 504.221C377.421 503.761 377.758 503.273 378.068 502.791C389.38 486.315 399.629 466.771 408.732 444.293C416.292 440.74 423.731 436.929 431.076 432.854C561.097 360.662 656.219 211.632 656.219 211.632L676.964 223.216Z" fill="#7150FF"/>
<path opacity="0.25" d="M676.964 223.216C690.87 281.34 677.374 342.743 638.853 396.467C600.104 450.536 540.878 489.873 472.128 507.273C444.568 514.249 416.537 517.429 388.677 516.739L377.501 512.949L372.091 511.125C373.768 508.886 375.432 506.594 377.078 504.221C377.421 503.761 377.758 503.273 378.068 502.791C389.38 486.315 399.629 466.771 408.732 444.293C416.292 440.74 423.731 436.929 431.076 432.854C561.097 360.662 656.219 211.632 656.219 211.632L676.964 223.216Z" fill="#7150FF"/>
<path opacity="0.25" d="M676.964 223.216C690.87 281.34 677.374 342.743 638.853 396.467C600.104 450.536 540.878 489.873 472.128 507.273C444.568 514.249 416.537 517.429 388.677 516.739L377.501 512.949L372.091 511.125C373.768 508.886 375.432 506.594 377.078 504.221C377.421 503.761 377.758 503.273 378.068 502.791C389.38 486.315 399.629 466.771 408.732 444.293C416.292 440.74 423.731 436.929 431.076 432.854C561.097 360.662 656.219 211.632 656.219 211.632L676.964 223.216Z" fill="#7150FF"/>
<path opacity="0.25" d="M676.964 223.216C690.87 281.34 677.374 342.743 638.853 396.467C600.104 450.536 540.878 489.873 472.128 507.273C444.568 514.249 416.537 517.429 388.677 516.739L377.501 512.949L372.091 511.125C373.768 508.886 375.432 506.594 377.078 504.221C377.421 503.761 377.758 503.273 378.068 502.791C389.38 486.315 399.629 466.771 408.732 444.293C416.292 440.74 423.731 436.929 431.076 432.854C561.097 360.662 656.219 211.632 656.219 211.632L676.964 223.216Z" fill="#7150FF"/>
<path opacity="0.25" d="M676.964 223.216C690.87 281.34 677.374 342.743 638.853 396.467C600.104 450.536 540.878 489.873 472.128 507.273C444.568 514.249 416.537 517.429 388.677 516.739L377.501 512.949L372.091 511.125C373.768 508.886 375.432 506.594 377.078 504.221C377.421 503.761 377.758 503.273 378.068 502.791C389.38 486.315 399.629 466.771 408.732 444.293C416.292 440.74 423.731 436.929 431.076 432.854C561.097 360.662 656.219 211.632 656.219 211.632L676.964 223.216Z" fill="#7150FF"/>
<path opacity="0.25" d="M676.964 223.216C690.87 281.34 677.374 342.743 638.853 396.467C600.104 450.536 540.878 489.873 472.128 507.273C444.568 514.249 416.537 517.429 388.677 516.739L377.501 512.949L372.091 511.125C373.768 508.886 375.432 506.594 377.078 504.221C377.421 503.761 377.758 503.273 378.068 502.791C389.38 486.315 399.629 466.771 408.732 444.293C416.292 440.74 423.731 436.929 431.076 432.854C561.097 360.662 656.219 211.632 656.219 211.632L676.964 223.216Z" fill="#7150FF"/>
<path opacity="0.25" d="M676.964 223.216C690.87 281.34 677.374 342.743 638.853 396.467C600.104 450.536 540.878 489.873 472.128 507.273C444.568 514.249 416.537 517.429 388.677 516.739L377.501 512.949L372.091 511.125C373.768 508.886 375.432 506.594 377.078 504.221C377.421 503.761 377.758 503.273 378.068 502.791C389.38 486.315 399.629 466.771 408.732 444.293C416.292 440.74 423.731 436.929 431.076 432.854C561.097 360.662 656.219 211.632 656.219 211.632L676.964 223.216Z" fill="#7150FF"/>
<path opacity="0.25" d="M676.964 223.216C690.87 281.34 677.374 342.743 638.853 396.467C600.104 450.536 540.878 489.873 472.128 507.273C444.568 514.249 416.537 517.429 388.677 516.739L377.501 512.949L372.091 511.125C373.768 508.886 375.432 506.594 377.078 504.221C377.421 503.761 377.758 503.273 378.068 502.791C389.38 486.315 399.629 466.771 408.732 444.293C416.292 440.74 423.731 436.929 431.076 432.854C561.097 360.662 656.219 211.632 656.219 211.632L676.964 223.216Z" fill="#7150FF"/>
<path opacity="0.25" d="M676.964 223.216C690.87 281.34 677.374 342.743 638.853 396.467C600.104 450.536 540.878 489.873 472.128 507.273C444.568 514.249 416.537 517.429 388.677 516.739L377.501 512.949L372.091 511.125C373.768 508.886 375.432 506.594 377.078 504.221C377.421 503.761 377.758 503.273 378.068 502.791C389.38 486.315 399.629 466.771 408.732 444.293C416.292 440.74 423.731 436.929 431.076 432.854C561.097 360.662 656.219 211.632 656.219 211.632L676.964 223.216Z" fill="#7150FF"/>
</g>
</g>
<path d="M392.124 266.264C395.555 279.818 387.327 293.624 373.771 297.055C360.218 300.485 346.413 292.256 342.982 278.702C339.552 265.148 347.78 251.342 361.333 247.912C363.341 247.404 365.368 247.153 367.326 247.135C362.069 250.473 359.261 256.935 360.867 263.281C362.868 271.185 370.923 275.986 378.827 273.986C385.173 272.38 389.523 266.835 389.956 260.625C390.874 262.354 391.616 264.257 392.124 266.264Z" fill="#07004D"/>
<path d="M15 156.488C35.1486 200.614 91.7568 290.99 157 299.488" stroke="#4B27A5" stroke-width="30" stroke-linejoin="round"/>
<path d="M14 442.488C34.1486 398.671 90.7568 308.927 156 300.488" stroke="#4B27A5" stroke-width="30" stroke-linejoin="round"/>
</g>
<path d="M769.859 194.609C769.859 191.68 770.836 189.238 772.789 187.285C774.938 185.137 777.477 184.062 780.406 184.062H790.367C793.297 184.062 795.641 185.039 797.398 186.992C799.352 188.945 800.426 191.484 800.621 194.609L805.602 342.266L832.848 287.773C834.996 283.086 838.707 280.742 843.98 280.742H852.184C857.457 280.742 861.168 283.086 863.316 287.773L890.562 342.266L895.543 194.316C895.738 191.191 896.715 188.75 898.473 186.992C900.426 185.039 902.867 184.062 905.797 184.062H915.758C918.688 184.062 921.129 185.137 923.082 187.285C925.23 189.238 926.305 191.68 926.305 194.609L920.445 386.211C920.445 389.336 919.469 391.875 917.516 393.828C915.562 395.586 912.926 396.465 909.605 396.465H904.918C895.543 396.465 888.902 392.363 884.996 384.16L848.082 310.332L811.168 384.16C807.457 392.363 800.816 396.465 791.246 396.465H786.559C783.238 396.465 780.602 395.586 778.648 393.828C776.695 391.875 775.719 389.336 775.719 386.211L769.859 194.609ZM1073.67 184.062C1076.6 184.062 1079.04 185.039 1080.99 186.992C1082.95 188.75 1083.92 191.191 1083.92 194.316V384.746C1083.92 387.676 1082.95 390.117 1080.99 392.07C1079.23 394.023 1076.79 395 1073.67 395H1063.41C1060.48 395 1058.04 394.023 1056.09 392.07C1054.14 390.117 1053.16 387.676 1053.16 384.746V297.441H980.211V384.746C980.211 387.676 979.234 390.117 977.281 392.07C975.523 394.023 973.082 395 969.957 395H959.703C956.773 395 954.332 394.023 952.379 392.07C950.426 390.117 949.449 387.676 949.449 384.746V194.316C949.449 191.387 950.426 188.945 952.379 186.992C954.332 185.039 956.773 184.062 959.703 184.062H969.957C973.082 184.062 975.523 185.039 977.281 186.992C979.234 188.75 980.211 191.191 980.211 194.316V269.023H1053.16V194.316C1053.16 191.191 1054.14 188.75 1056.09 186.992C1058.04 185.039 1060.48 184.062 1063.41 184.062H1073.67Z" fill="#07004D"/>
<path d="M769.859 194.609C769.859 191.68 770.836 189.238 772.789 187.285C774.938 185.137 777.477 184.062 780.406 184.062H790.367C793.297 184.062 795.641 185.039 797.398 186.992C799.352 188.945 800.426 191.484 800.621 194.609L805.602 342.266L832.848 287.773C834.996 283.086 838.707 280.742 843.98 280.742H852.184C857.457 280.742 861.168 283.086 863.316 287.773L890.562 342.266L895.543 194.316C895.738 191.191 896.715 188.75 898.473 186.992C900.426 185.039 902.867 184.062 905.797 184.062H915.758C918.688 184.062 921.129 185.137 923.082 187.285C925.23 189.238 926.305 191.68 926.305 194.609L920.445 386.211C920.445 389.336 919.469 391.875 917.516 393.828C915.562 395.586 912.926 396.465 909.605 396.465H904.918C895.543 396.465 888.902 392.363 884.996 384.16L848.082 310.332L811.168 384.16C807.457 392.363 800.816 396.465 791.246 396.465H786.559C783.238 396.465 780.602 395.586 778.648 393.828C776.695 391.875 775.719 389.336 775.719 386.211L769.859 194.609ZM1073.67 184.062C1076.6 184.062 1079.04 185.039 1080.99 186.992C1082.95 188.75 1083.92 191.191 1083.92 194.316V384.746C1083.92 387.676 1082.95 390.117 1080.99 392.07C1079.23 394.023 1076.79 395 1073.67 395H1063.41C1060.48 395 1058.04 394.023 1056.09 392.07C1054.14 390.117 1053.16 387.676 1053.16 384.746V297.441H980.211V384.746C980.211 387.676 979.234 390.117 977.281 392.07C975.523 394.023 973.082 395 969.957 395H959.703C956.773 395 954.332 394.023 952.379 392.07C950.426 390.117 949.449 387.676 949.449 384.746V194.316C949.449 191.387 950.426 188.945 952.379 186.992C954.332 185.039 956.773 184.062 959.703 184.062H969.957C973.082 184.062 975.523 185.039 977.281 186.992C979.234 188.75 980.211 191.191 980.211 194.316V269.023H1053.16V194.316C1053.16 191.191 1054.14 188.75 1056.09 186.992C1058.04 185.039 1060.48 184.062 1063.41 184.062H1073.67Z" fill="url(#paint0_linear)"/>
<path d="M1112.34 395C1109.21 395 1106.77 394.219 1105.02 392.656C1103.45 390.898 1102.67 388.652 1102.67 385.918C1102.67 384.746 1102.77 383.867 1102.96 383.281L1146.32 209.258C1148.67 200.664 1153.36 193.828 1160.39 188.75C1167.42 183.672 1175.72 181.133 1185.29 181.133C1195.05 181.133 1203.36 183.672 1210.19 188.75C1217.22 193.828 1221.81 200.762 1223.96 209.551L1267.32 382.988C1267.52 383.77 1267.61 384.844 1267.61 386.211C1267.61 388.75 1266.73 390.898 1264.98 392.656C1263.41 394.219 1261.17 395 1258.24 395H1247.69C1241.83 395 1238.12 392.07 1236.56 386.211L1222.79 330.547H1147.79L1133.73 386.211C1133.14 388.945 1131.87 391.094 1129.92 392.656C1127.96 394.219 1125.52 395 1122.59 395H1112.34ZM1215.76 302.422L1193.79 214.824C1193.39 213.262 1192.42 211.992 1190.86 211.016C1189.29 209.844 1187.44 209.258 1185.29 209.258C1183.14 209.258 1181.29 209.844 1179.72 211.016C1178.16 211.992 1177.18 213.262 1176.79 214.824L1154.82 302.422H1215.76ZM1424.35 366.582C1427.28 366.582 1429.72 367.559 1431.68 369.512C1433.63 371.465 1434.61 373.906 1434.61 376.836V384.746C1434.61 387.676 1433.63 390.117 1431.68 392.07C1429.72 394.023 1427.28 395 1424.35 395H1301.6C1298.67 395 1296.23 394.023 1294.27 392.07C1292.32 390.117 1291.34 387.676 1291.34 384.746V194.316C1291.34 191.387 1292.32 188.945 1294.27 186.992C1296.23 185.039 1298.67 184.062 1301.6 184.062H1311.85C1314.98 184.062 1317.42 185.039 1319.18 186.992C1321.13 188.75 1322.11 191.191 1322.11 194.316V366.582H1424.35ZM1581.68 366.582C1584.61 366.582 1587.05 367.559 1589 369.512C1590.95 371.465 1591.93 373.906 1591.93 376.836V384.746C1591.93 387.676 1590.95 390.117 1589 392.07C1587.05 394.023 1584.61 395 1581.68 395H1470.05C1467.12 395 1464.68 394.023 1462.73 392.07C1460.78 390.117 1459.8 387.676 1459.8 384.746V194.316C1459.8 191.387 1460.78 188.945 1462.73 186.992C1464.68 185.039 1467.12 184.062 1470.05 184.062H1575.23C1578.16 184.062 1580.6 185.039 1582.55 186.992C1584.51 188.75 1585.48 191.191 1585.48 194.316V201.934C1585.48 205.059 1584.51 207.598 1582.55 209.551C1580.6 211.309 1578.16 212.188 1575.23 212.188H1490.56V271.074H1569.08C1572.01 271.074 1574.45 272.051 1576.4 274.004C1578.36 275.957 1579.33 278.398 1579.33 281.328V289.238C1579.33 292.168 1578.36 294.609 1576.4 296.562C1574.45 298.516 1572.01 299.492 1569.08 299.492H1490.56V366.582H1581.68Z" fill="#F2F2F2"/>
<path d="M1112.34 395C1109.21 395 1106.77 394.219 1105.02 392.656C1103.45 390.898 1102.67 388.652 1102.67 385.918C1102.67 384.746 1102.77 383.867 1102.96 383.281L1146.32 209.258C1148.67 200.664 1153.36 193.828 1160.39 188.75C1167.42 183.672 1175.72 181.133 1185.29 181.133C1195.05 181.133 1203.36 183.672 1210.19 188.75C1217.22 193.828 1221.81 200.762 1223.96 209.551L1267.32 382.988C1267.52 383.77 1267.61 384.844 1267.61 386.211C1267.61 388.75 1266.73 390.898 1264.98 392.656C1263.41 394.219 1261.17 395 1258.24 395H1247.69C1241.83 395 1238.12 392.07 1236.56 386.211L1222.79 330.547H1147.79L1133.73 386.211C1133.14 388.945 1131.87 391.094 1129.92 392.656C1127.96 394.219 1125.52 395 1122.59 395H1112.34ZM1215.76 302.422L1193.79 214.824C1193.39 213.262 1192.42 211.992 1190.86 211.016C1189.29 209.844 1187.44 209.258 1185.29 209.258C1183.14 209.258 1181.29 209.844 1179.72 211.016C1178.16 211.992 1177.18 213.262 1176.79 214.824L1154.82 302.422H1215.76ZM1424.35 366.582C1427.28 366.582 1429.72 367.559 1431.68 369.512C1433.63 371.465 1434.61 373.906 1434.61 376.836V384.746C1434.61 387.676 1433.63 390.117 1431.68 392.07C1429.72 394.023 1427.28 395 1424.35 395H1301.6C1298.67 395 1296.23 394.023 1294.27 392.07C1292.32 390.117 1291.34 387.676 1291.34 384.746V194.316C1291.34 191.387 1292.32 188.945 1294.27 186.992C1296.23 185.039 1298.67 184.062 1301.6 184.062H1311.85C1314.98 184.062 1317.42 185.039 1319.18 186.992C1321.13 188.75 1322.11 191.191 1322.11 194.316V366.582H1424.35ZM1581.68 366.582C1584.61 366.582 1587.05 367.559 1589 369.512C1590.95 371.465 1591.93 373.906 1591.93 376.836V384.746C1591.93 387.676 1590.95 390.117 1589 392.07C1587.05 394.023 1584.61 395 1581.68 395H1470.05C1467.12 395 1464.68 394.023 1462.73 392.07C1460.78 390.117 1459.8 387.676 1459.8 384.746V194.316C1459.8 191.387 1460.78 188.945 1462.73 186.992C1464.68 185.039 1467.12 184.062 1470.05 184.062H1575.23C1578.16 184.062 1580.6 185.039 1582.55 186.992C1584.51 188.75 1585.48 191.191 1585.48 194.316V201.934C1585.48 205.059 1584.51 207.598 1582.55 209.551C1580.6 211.309 1578.16 212.188 1575.23 212.188H1490.56V271.074H1569.08C1572.01 271.074 1574.45 272.051 1576.4 274.004C1578.36 275.957 1579.33 278.398 1579.33 281.328V289.238C1579.33 292.168 1578.36 294.609 1576.4 296.562C1574.45 298.516 1572.01 299.492 1569.08 299.492H1490.56V366.582H1581.68Z" fill="url(#paint1_linear)"/>
<defs>
<linearGradient id="paint0_linear" x1="1080.5" y1="357.603" x2="96.1813" y2="357.611" gradientUnits="userSpaceOnUse">
<stop stop-color="white" stop-opacity="0"/>
<stop offset="1" stop-color="#4B27A5"/>
</linearGradient>
<linearGradient id="paint1_linear" x1="1080.5" y1="357.603" x2="96.1813" y2="357.611" gradientUnits="userSpaceOnUse">
<stop stop-color="white" stop-opacity="0"/>
<stop offset="1" stop-color="#4B27A5"/>
</linearGradient>
<clipPath id="clip0">
<rect width="738.323" height="599.618" fill="white"/>
</clipPath>
</defs>
</svg>
